<?xml version="1.0" encoding="utf-8"?>
<!-- Generator: Adobe Illustrator 27.9.0, SVG Export Plug-In . SVG Version: 6.00 Build 0)  -->
<svg version="1.1" id="Layer_1" xmlns="http://www.w3.org/2000/svg" xmlns:xlink="http://www.w3.org/1999/xlink" x="0px" y="0px"
	 viewBox="0 0 31.9 32" style="enable-background:new 0 0 31.9 32;" xml:space="preserve">
<style type="text/css">
	.st0{fill:url(#SVGID_1_);}
	.st1{fill:url(#SVGID_00000132774118742329019280000013767437648726114485_);}
</style>
<linearGradient id="SVGID_1_" gradientUnits="userSpaceOnUse" x1="6.18" y1="15.94" x2="25.62" y2="15.94">
	<stop  offset="0" style="stop-color:#FFEA83"/>
	<stop  offset="8.333001e-02" style="stop-color:#FFDD35"/>
	<stop  offset="1" style="stop-color:#FFA800"/>
</linearGradient>
<path class="st0" d="M15.3,14.7h10.3c-0.6-4.8-4.7-8.5-9.7-8.5c-5.4,0-9.8,4.4-9.8,9.8s4.4,9.8,9.8,9.8c4,0,7.4-2.4,8.9-5.8h-9.5
	V14.7z M12.4,11.1c0-1.1,0.9-2,2-2c1.1,0,2,0.9,2,2c0,1.1-0.9,2-2,2C13.3,13.1,12.4,12.2,12.4,11.1z"/>
<linearGradient id="SVGID_00000052073048769082606270000011578337961022998196_" gradientUnits="userSpaceOnUse" x1="0" y1="15.94" x2="31.88" y2="15.94">
	<stop  offset="0" style="stop-color:#41D1FF"/>
	<stop  offset="1" style="stop-color:#BD34FE"/>
</linearGradient>
<path style="fill:url(#SVGID_00000052073048769082606270000011578337961022998196_);" d="M31.9,15.9c0,0.9-0.1,1.8-0.2,2.7
	c-1.3,7.5-7.8,13.2-15.7,13.2c-2.5,0-4.8-0.6-6.9-1.6l-9,1.6l2.2-7.8C0.8,21.7,0,18.9,0,15.9C0,7.1,7.1,0,15.9,0
	c4.9,0,9.3,2.2,12.2,5.7l-2.6,1.2c-2.4-2.5-5.8-4.1-9.6-4.1C8.6,2.7,2.7,8.6,2.7,15.9c0,2.8,0.9,5.4,2.3,7.5l-0.5,1.9l-0.4,1.3
	L3.4,29l2.8-0.5l1.5-0.3l2.5-0.4c1.7,0.8,3.7,1.3,5.8,1.3c6.4,0,11.7-4.5,13-10.6H16.7v-2.7H31.9z"/>
</svg>
