<?xml version="1.0" encoding="utf-8"?>
<!-- Generator: Adobe Illustrator 28.3.0, SVG Export Plug-In . SVG Version: 6.00 Build 0)  -->
<svg version="1.1" id="Layer_1" xmlns="http://www.w3.org/2000/svg" xmlns:xlink="http://www.w3.org/1999/xlink" x="0px" y="0px"
	 viewBox="0 0 500 500" style="enable-background:new 0 0 500 500;" xml:space="preserve">
<style type="text/css">
	.st0{fill:#013A28;}
	.st1{fill:#62BB76;}
	.st2{fill:#0E8B53;}
	.st3{fill:#1C925C;}
	.st4{fill:#64BA7A;}
	.st5{fill:#F8F6D7;}
	.st6{fill:#0B814C;}
	.st7{fill:#61BA78;}
	.st8{fill:#63B978;}
	.st9{fill:#F6F6DB;}
	.st10{fill:#F1F7CD;}
	.st11{fill:#97AC42;}
	.st12{fill:#91AA43;}
	.st13{fill:#176232;}
	.st14{fill:#28A15B;}
	.st15{fill:#156331;}
	.st16{fill:#138E59;}
	.st17{fill:#188E55;}
	.st18{fill:#F0F6D7;}
	.st19{fill:#F2F5D6;}
	.st20{fill:#60B976;}
	.st21{fill:#86A740;}
	.st22{fill:#86A33D;}
	.st23{fill:#87A33E;}
	.st24{fill:#1B8F53;}
	.st25{fill:#F4F8CE;}
	.st26{fill:#839F3E;}
	.st27{fill:#367437;}
	.st28{fill:#5EB879;}
	.st29{fill:#68BD7D;}
	.st30{fill:#208D56;}
	.st31{fill:#218F55;}
	.st32{fill:#F6F5D1;}
	.st33{fill:#88A041;}
	.st34{fill:#138C54;}
	.st35{fill:#ECF6CE;}
	.st36{fill:#5ABA7A;}
	.st37{fill:#87A445;}
	.st38{fill:#EDF7D1;}
	.st39{fill:#EFF3E0;}
	.st40{fill:#63B575;}
	.st41{fill:#F1F2E2;}
	.st42{fill:#48A36D;}
	.st43{fill:#F1F6D3;}
	.st44{fill:#7E9B3E;}
	.st45{fill:#95A848;}
	.st46{fill:#E1ECC9;}
	.st47{fill:#36975F;}
	.st48{fill:#EFEEC6;}
	.st49{fill:#146839;}
	.st50{fill:#E7EDD0;}
	.st51{fill:#138151;}
	.st52{fill:#106632;}
	.st53{fill:#84923C;}
	.st54{fill:#8EA54C;}
	.st55{fill:#E8F3C3;}
	.st56{fill:#A3B857;}
	.st57{fill:#95AA40;}
	.st58{fill:#EDF8DD;}
	.st59{fill:#EFF4CA;}
	.st60{fill:#1A7B4C;}
	.st61{fill:#F0F4D1;}
	.st62{fill:#B8D784;}
	.st63{fill:#DFECBB;}
	.st64{fill:#94A955;}
	.st65{fill:#E8EBC3;}
	.st66{fill:#8BAA44;}
	.st67{fill:#9AAC42;}
	.st68{fill:#8FAB45;}
	.st69{fill:#F0F2D2;}
	.st70{fill:#2A6F38;}
	.st71{fill:#E8F2CD;}
	.st72{fill:#95B140;}
	.st73{fill:#2B6530;}
	.st74{fill:#90AA48;}
	.st75{fill:#EDEDCF;}
	.st76{fill:#598743;}
	.st77{fill:#155F2A;}
	.st78{fill:#1E6732;}
	.st79{fill:#1B5E32;}
	.st80{fill:#819652;}
	.st81{fill:#186536;}
	.st82{fill:#9BC292;}
	.st83{fill:#EAF1C5;}
	.st84{fill:#E9F2BC;}
	.st85{fill:#ECF5C7;}
	.st86{fill:#EDEDC8;}
	.st87{fill:#EDF0D2;}
	.st88{fill:#38773D;}
	.st89{fill:#BBC66C;}
	.st90{fill:#89A147;}
	.st91{fill:#EAF0D2;}
	.st92{fill:#2D6F3E;}
	.st93{fill:#E8F4C9;}
	.st94{fill:#226A35;}
	.st95{fill:#357540;}
	.st96{fill:#65A170;}
	.st97{fill:#B3C372;}
	.st98{fill:#EFF0B8;}
	.st99{fill:#B8CB7E;}
	.st100{fill:#E8F5BE;}
	.st101{fill:#226937;}
	.st102{fill:#A4B553;}
	.st103{fill:#97B36A;}
	.st104{fill:#CAD571;}
	.st105{fill:#56AE69;}
	.st106{fill:#98B055;}
	.st107{fill:#C6DC8B;}
	.st108{fill:#8FA952;}
	.st109{fill:#CFE298;}
	.st110{fill:#CAE1B6;}
	.st111{fill:#E4F0B6;}
	.st112{fill:#44A571;}
	.st113{fill:#CBE4AB;}
	.st114{fill:#82B583;}
	.st115{fill:#DFF1AC;}
	.st116{fill:#DDE1BA;}
	.st117{fill:#82B798;}
	.st118{fill:#63B97A;}
	.st119{fill:#023B28;}
	.st120{fill:#ECF4CF;}
	.st121{fill:#47AE6E;}
	.st122{fill:#F8F1C8;}
	.st123{fill:#ECF3CA;}
	.st124{fill:#A6E49F;}
	.st125{fill:#D7F6CB;}
	.st126{fill:#ADEDB3;}
	.st127{fill:#21A263;}
	.st128{fill:#4AAB77;}
	.st129{fill:#60BA7A;}
	.st130{fill:#F0F4CB;}
	.st131{fill:#063720;}
	.st132{fill:#F7EFCA;}
	.st133{fill:#053323;}
	.st134{fill:#F1F6CB;}
	.st135{fill:#F9F1C7;}
	.st136{fill:#F7F3C2;}
	.st137{fill:#9EE9B0;}
	.st138{fill:#033B29;}
	.st139{fill:#023D25;}
	.st140{fill:#033E26;}
	.st141{fill:#C4E7B1;}
	.st142{fill:#034129;}
	.st143{fill:#043F25;}
	.st144{fill:#15854F;}
	.st145{fill:#4DA875;}
	.st146{fill:#063E2B;}
	.st147{fill:#C7F1C1;}
	.st148{fill:#124C2A;}
	.st149{fill:#074223;}
	.st150{fill:#0F4B28;}
	.st151{fill:#DEF0BF;}
	.st152{fill:#DEF1D4;}
	.st153{fill:#CAF3C2;}
	.st154{fill:#87C892;}
	.st155{fill:#043D27;}
	.st156{fill:#033D27;}
	.st157{fill:#063D2A;}
	.st158{fill:#05412A;}
	.st159{fill:#044228;}
	.st160{fill:#FAF1C9;}
	.st161{fill:#F5EEC8;}
	.st162{fill:#3B9354;}
	.st163{fill:#398F51;}
	.st164{fill:#32753F;}
	.st165{fill:#EFF0C2;}
	.st166{fill:#E9C674;}
	.st167{fill:#A8BB7E;}
	.st168{fill:#F3F8D2;}
	.st169{fill:#ABB14E;}
	.st170{fill:#F9F3D6;}
	.st171{fill:#B2B774;}
	.st172{fill:#C3BA6C;}
	.st173{fill:#E1BE77;}
	.st174{fill:#F1F2D3;}
	.st175{fill:#45A560;}
	.st176{fill:#D4E8BB;}
	.st177{fill:#F0F0CB;}
	.st178{fill:#8FA13C;}
	.st179{fill:#DB9E48;}
	.st180{fill:#EDD591;}
	.st181{fill:#EDB761;}
	.st182{fill:#F8F3D5;}
	.st183{fill:#EFB45F;}
	.st184{fill:#F6F3D4;}
	.st185{fill:#F5D291;}
	.st186{fill:#F5E3B0;}
	.st187{fill:#EFC17A;}
	.st188{fill:#62B877;}
	.st189{fill:#034329;}
	.st190{fill:#033B25;}
	.st191{fill:#033727;}
	.st192{fill:#023A24;}
	.st193{fill:#033721;}
	.st194{fill:#0F703F;}
	.st195{fill:#003B2B;}
	.st196{fill:#F8F2D4;}
	.st197{fill:#F3D79E;}
	.st198{fill:#003C2A;}
	.st199{fill:#F8F2D3;}
	.st200{fill:#EDCE8C;}
	.st201{fill:#F1D5A2;}
	.st202{fill:#043221;}
	.st203{fill:#D3F1D1;}
	.st204{fill:#CFEECD;}
	.st205{fill:#C7F2D0;}
	.st206{fill:#ECC670;}
	.st207{fill:#D1AE70;}
	.st208{fill:#CFB361;}
	.st209{fill:#F7F3D4;}
	.st210{fill:#E19D3D;}
	.st211{fill:#FAF1CE;}
	.st212{fill:#ECEDCE;}
	.st213{fill:#F9F0CE;}
	.st214{fill:#ECEED0;}
	.st215{fill:#F0D396;}
	.st216{fill:#F3D796;}
	.st217{fill:#65C396;}
	.st218{fill:#A1B147;}
</style>
<g>
	<path class="st0" d="M108.2,693.4c1.9-10,5.9-18.8,13.5-25.9c4.7-4.3,10.1-7.3,16.1-9.1c2-0.6,2.5-1.3,2.5-3.2
		c-0.1-26.9-0.1-53.7,0-80.6c0-2.3-0.5-3.2-3-3.4c-20-2.2-35.4-18.9-35.8-39.3c-0.4-18.2,0-36.4,0-54.7c0-4.7-0.2-9.3,0-14
		c0.1-2.6-0.6-3.3-3.3-3.3c-8.3-0.1-13.5-4.7-14.9-13.2c-5.5,4.5-9.1,10.2-12.3,16c-4.1,7.4-7.2,15.2-9.3,23.4
		c-2.3,9.2-2.9,18.5-3.4,27.9c-0.1,1.6,1,2.4,1.9,3.3c20.8,21.1,19,53.9-4.1,72.2c-5,4-10.3,8-17.3,8.1c-5.6,0-8.8-4-7.5-9.5
		c1.3-5.3,4-10,5.8-15.1c3.1-8.8,0.8-14.3-4.5-17.9c-7.6-5.1-15.6-2.3-21.4,6.6c-3.5,5.3-6.3,11.1-9.4,16.6
		c-0.7,1.3-1.6,2.4-2.8,3.3c-5.4,4.2-11.6,2.6-13.5-3.9c-4.9-16.4-3.7-32.3,5-47.4C-3.7,520,4.5,512.5,16,508.9
		c2.8-0.9,2.9-2.7,2.8-5c-0.7-15.3,2.4-29.9,7.9-44.1c6.3-16.1,15.7-30,28.8-41.4c2.4-2,2.8-3.8,2-6.8c-3.7-13.2-2.3-25.7,6.7-36.6
		c4.8-5.8,10.4-10.4,18.5-9.8c1.7,0.1,1.9-1,2.6-1.9c5.2-6.6,13.5-8.6,21.6-6.6c4.3,1.1,8.1,2.2,11,5.5c0.7,0.8,1.3,0.3,2-0.1
		c6-3.1,12.4-4.2,19-4.2c10.5-0.1,21-0.1,31.5,0.1c2.7,0,3.5-0.9,3.4-3.4c-0.3-3.7,0.9-8.4-0.9-10.8c-1.8-2.4-6.7-0.6-10.2-0.8
		c-8.5-0.4-17,0.9-25.4-1c-17.1-3.9-28.3-14.2-33.5-31c-0.7-2.2-1.8-4.5-1.7-6.9c0.1-1.8-1.3-1.7-2.5-1.7c-3.5,0.1-6.9,0.1-10.4,0.3
		c-9.2,0.5-16.1-6.3-15.3-14.3c0.3-2.7-0.2-4.6-3.9-5.9c-5.4-2-9.4-6.8-12.6-11.8c-11.5-18.3-7.7-44.5,8.4-58.8
		c0.2-0.2,0.4-0.4,0.6-0.5c4.5-2.2,7-5.6,8.5-10.6c1.8-5.8,7.5-7.4,13.1-7.9c3.8-0.4,7.7-0.2,11.6-0.1c1.9,0,2.4-0.7,2.6-2.5
		c1.7-20.4,16-37.6,35.7-42.9c3.7-1,7.5-1.2,11.4-1.1c22.1,0,44.2-0.1,66.2,0.1c4.1,0,5.4-1.1,4.9-5.1c-0.5-3.7-0.3-7.2,3.6-9.3
		c1-0.5,0.8-1.9,0.8-2.9c0-2.3-0.1-4.5,0-6.8c0.2-4.7,3.5-8.8,8.1-10.1c2.3-0.6,3.4-1.6,3.3-4.3c-0.2-6.4-0.1-12.8,0-19.2
		c0-1.6-0.4-2.6-1.9-3.5c-9.9-5.6-15.2-17.2-13.3-28.5c1.9-11.1,9.7-19.9,20.8-21.8c17.4-2.9,29.8,8.4,31.1,24.3
		c0.9,11.8-4,20.8-14.6,26.4c-1.5,0.8-1.3,1.8-1.3,2.9c0,6.8,0,13.6-0.1,20.4c0,1.4,0,2.3,2,2.5c6.5,0.9,9.9,5.2,9.9,12.2
		c0,4-0.5,7.8,3.4,10.6c1.8,1.3,1.4,4.2,1.2,6.4c-0.4,3.9,0.5,5.4,4.9,5.3c22.3-0.1,44.7,0,67,0.3c14.2,0.2,25.6,6.8,34.5,17.5
		c6.4,7.7,9.9,16.8,10.5,26.9c0.1,1.6,0.7,2,2.1,2c3.9,0,7.8-0.4,11.6,0.1c6.8,1,13.3,3.3,14.5,10.5c0.5,3.2,2,4.7,4.6,6.2
		c10.2,5.8,15.5,15.3,17.9,26.5c2.8,12.7,1,24.7-6.3,35.7c-3.5,5.3-8.3,9.3-14.1,11.9c-1.7,0.8-2.1,1.7-2,3.3
		c0.5,12.9-7.9,15.8-17.1,15.8c-3.5,0-7.6-1-10.2,0.5c-2.6,1.5-1.9,6.1-2.9,9.3c-5.3,16.9-22.9,30.8-40.8,30.4
		c-8.2-0.2-16.5,0-24.7-0.1c-2.3,0-3.4,0.3-3.1,3c0.5,3.9-1.7,9.2,0.9,11.4c2.2,1.9,7.3,0.6,11.2,0.7c9.4,0.3,18.8-0.5,28.2,0.5
		c4.4,0.5,8.4,2,12.3,4c1.1,0.6,1.6,1.3,2.8-0.1c5.5-6.2,12.3-7,20.3-5.6c5.1,0.9,8.5,3,11.5,6.7c0.6,0.8,1.2,1.3,2.2,1.5
		c15.1,2.2,25.2,12.7,27.3,27.6c1,7.4,0.7,14.5-2.1,21.4c-0.6,1.5,0,2.2,1,3c19.5,16.7,30.7,38.1,35.9,63c1.7,8.3,2.1,16.8,2.3,25.3
		c0,1.7,0.4,2.7,2.3,3.4c17.1,5.7,26.8,18.2,31.3,35.1c3,11,2.8,22.2-0.6,33.3c-1.1,3.7-3.2,6-7.1,6.6c-3.8,0.7-6.6-1.1-8.5-4
		c-3.3-5.1-6.1-10.6-9.3-15.7c-3.6-5.8-7.6-11.3-15.7-11c-7.4,0.2-13.4,7-12.4,14.3c0.8,6,3.4,11.4,5.5,16.9
		c1.6,3.9,3.2,8.1-0.5,11.4c-3.6,3.3-8.1,2.8-12.3,0.9c-15.8-7.2-25.3-19.5-28.2-36.5c-2.9-16.8,1.6-31.5,14.6-43.1
		c1-0.9,1.2-1.9,1.2-3.2c0.2-21.3-5.2-40.9-17.4-58.4c-2.1-3.1-4.9-5.6-7.9-8.6c-1.6,9.4-7.5,13.4-16.4,13.4c-2,0-2,1.1-2,2.5
		c0,5.2,0,10.4,0,15.6c0,16.9-0.2,33.8,0,50.7c0.2,14.6-5.4,26.3-16.7,35.2c-5.3,4.2-11.8,6.4-18.5,7.6c-2.1,0.4-2.5,1-2.5,3
		c0.1,26.9,0.2,53.7,0.2,80.6c0,1.9,0.3,2.9,2.5,3.5c17.8,5.1,29.9,21.6,30,40.3c0,6.6,0.1,13.3,0.1,19.9c1.9,3.9,1.1,7.9-2.4,11
		c-2.9,2.5-6.3,3.3-10,3.3c-33,0.1-66,0.1-99,0c-7.7,0-11.8-4.1-12.3-11.8c-0.2-3-0.3-6.1,0.1-9.2c-0.1-7.7-0.6-15.4,1.2-23
		c3.4-13.8,11.3-23.8,24-30.1c5.1-2.5,5.4-2.8,4.8-8.6c-1-10.6-0.2-21.2-0.2-31.8c0.1-13.5-0.6-27.1,0.3-40.6
		c0.4-6.1-0.1-6.2-6.2-6.3c-26.3,0-52.6,0-79,0c-5.9,0-6.1,0.2-6.1,6c0,19.8,0.1,39.5-0.1,59.3c0,5.2,0,10.4,0,15.5
		c0,2.9,1,4.7,3.7,5.9c7.9,3.4,14.4,8.4,19.2,15.7c5,7.7,7.5,16.1,7.4,25.3c-0.5,6.5,0.3,13,0.2,19.5c-0.1,10.3-4,14.2-14.4,14.2
		c-32.1,0-64.1,0-96.2,0c-11.1,0-15.6-5.9-12.9-16.7c0.3-1.2,0.2-2.4,0.2-3.6C108.1,706.4,107.6,699.9,108.2,693.4z"/>
	<path class="st1" d="M117.9,546.6c-1.6-2.3-3.1-4.7-3.8-7.5c0.5-4.6,0.7-9.2,0.7-13.8c0-42.5,0-85.1,0-127.6c0-6,1.2-11.6,5.5-16.1
		c2.1-1,2.3,0.3,2.1,1.8c-0.2,1.4-0.8,2.9-0.1,4.3c1.2,2.2,2.8,4.1,5.5,3.8c2.4-0.2,4.2-1.7,4.9-4.1c0.8-2.6-0.4-4.6-2.4-6.2
		c-1.2-0.9-2.6-1.1-4.1-1.4c-1.2-0.2-2.5-0.3-1.9-2.2c3.4-4.4,8.2-5.8,13.4-5.7c13.8,0.4,27.7,0.3,41.5,0.3c1.7,0,3.5,0.1,5.2-0.3
		c25.7-0.2,51.3-0.1,77-0.1c28.5,0,56.9,0,85.4,0c6.6,0,13,1,18.5,5.1c3,1.7,4.7,5.2,8,6.6c0.4,0.2,0.6,0.5,0.8,0.9
		c0.2,6.2-6.8,12.8-12.1,11.5c-0.8-1.4-1.5-2.6-3.6-2.6c-2.7,0-3.3-1.7-2.4-4.1c0.2-0.5,0.5-0.9,0.7-1.4c0.5-1.1,1.4-2.2,0.5-3.3
		c-1.1-1.2-2.5-0.4-3.7,0c-0.6,0.2-1.2,0.6-1.8,0.8c-1.6,0.8-3.1,1.1-4.3-0.6c-1.3-1.8,0.6-2.5,1.6-3.8c-7.6-0.8-15-0.1-22.3,0.9
		c-5.1,0.7-9.9,1-15-0.2c-4.2-1-8.5-1-12.8,1c-3.6,1.7-7.6,1.3-11.3-0.1c-4.3-1.7-8.3-1.7-12.8,0c-4.5,1.7-9.4,1.7-14-0.1
		c-2.2-0.8-4.3-1.5-6.6-1.3c-3.8,0.3-7.6-0.2-11.6-0.1c2.4,0.2,5-0.9,6.4,1.6c0.8,1.4-0.2,2.8-1.6,3.6c-2.8,1-5.8,0.9-8.7,0.9
		c-26.1-0.5-52.1-0.1-78.2-0.2c-4.1,0-8.2,0.5-12.3,1c-6.7,0.8-14,8.8-15.2,15.8c-0.6,3.8-0.9,7.6-0.9,11.5c0,30.6,0,61.2,0,91.8
		c0,2.5,0.1,5.1-0.3,7.6c-1.5,6.1-2.7,12.3-0.2,18.3c3.8,9.2,12.5,13.9,23.6,13.5c3.7-0.1,7.4-0.9,11,0.6c0.5,3.5,0,6.6-3.4,8.5
		c-1.7,0.5-3.5,0.6-5.3,0.4c-3.6-0.1-7.2-0.5-10.7,0.5c-4.8,0.5-9.6,0.8-14.3-0.2C126.5,554.8,121.6,551.5,117.9,546.6z"/>
	<path class="st2" d="M117.9,546.6c0.4,0.1,0.9,0,1.1,0.3c7.6,8.2,17.4,9.2,27.6,8.4c3.7-1,7.5,0.3,11.2-0.7c1.8,0,3.7-0.1,5.5-0.1
		c1.7-0.9,3.4-1.5,5.3-1.5c25.3,0.2,50.5-1.4,75.8-0.8c0.8,0,1.6,0,2.4,0.2c23.4-0.4,46.7-0.2,70.1-0.1c7,0,14.1-0.5,21.1-1
		c4.1-0.3,7.7-3.6,11.4-5.9c1-1.1,2.3-1.8,3.5-2.6c6.4-3.7,9-9.5,8.8-16.7c-0.1-4,0.4-8-1-11.9c-0.7-1.9-0.5-3.9-0.5-5.9
		c0-32.6,0-65.2,0-97.8c0-2.1,0-4.2-0.6-6.3c-0.3-1.7-0.4-3.4-0.6-5.1c-0.3-2.2,0.3-4,3.2-3.6c5.6-0.9,10.9-6.5,11.2-12
		c2.2,0.1,2.6,2,3.2,3.5c1.4,3.5,1.5,7.2,1.5,11c0,42.8,0,85.6,0,128.4c0,2.2-0.6,4.6,1.5,6.3c-0.7,14.9-14.1,27.9-29,27.9
		c-70.1,0.1-140.1,0.1-210.2,0C131.2,560.9,120.6,554,117.9,546.6z"/>
	<path class="st3" d="M346.9,157.1c16.9,1.4,32.1,16.5,32.9,33c1.7,35,0.4,70.1,0.8,105.1c0,3.2-0.1,6.4-0.9,9.5
		c-1.6,3-3.4,6-5.3,8.9c-6.5,9.9-15.6,14.9-27.4,15c-5.2,0-10.4,0-15.6,0c-61.4,0-122.9,0-184.3,0c-9.6,0-18.1-2.4-24.7-9.8
		c-1.7-1.9-3.1-4-3.5-6.6c0-1.4,0.4-2.9,0-4.3c-0.3-1.2-0.3-2.6,0.9-3.2c1.4-0.8,2.6,0.3,3.4,1.3c2.9,3.5,6.1,6.7,10.3,8.7
		c1.2,0.6,2.3,1.2,3.7,1.3c15.3,1,30.5,1.1,45.8,0.4c13.4-0.6,26.9-0.9,40.3,0.3c2.3,0.2,4.5,0.2,6.8,0.2c34.6,0,69.2,0,103.8,0
		c6.4,0,12.8-0.3,19.1-1c6.6-0.7,11.2-4.8,14.6-10.1c3-4.6,4.6-9.8,4.5-15.5c-0.1-15-0.3-30.1,0-45.1c0.3-15.4-0.2-30.8,0.1-46.2
		c0.3-14-5.4-24.6-16.1-33c-1.8-1.8-4.1-2.9-6.2-4.3C348.6,160.2,345.4,160.1,346.9,157.1z"/>
	<path class="st4" d="M206.4,706c-28.5,0-56.9,0-85.4,0c-2.3-3.8-1.4-7.7-0.3-11.5c4.3-15,15.7-23.7,31.4-24
		c10.6-0.2,21.2,0,31.9-0.1c2,0,4,0.3,5.7-1.2c3.7,0.1,6.7,2,9.1,4.3c8.8,8.5,10.1,19.4,8.8,30.9C207.4,705.1,206.9,705.6,206.4,706
		z"/>
	<path class="st4" d="M361.3,706.1c-29,0-58,0-87-0.1c0.8-2.3,1-4.6,1.2-7c1.9-16.9,14.3-28.3,31.4-28.5c11.4-0.2,22.9,0,34.3,0
		c2,0,4,0.2,5.6-1.4c1.6-0.8,2.8,0,4,0.9c4.1,3,7.4,6.7,9.3,11.5c2.6,6.8,3.7,13.7,2.7,21C362.6,703.8,362.4,705.1,361.3,706.1z"/>
	<path class="st5" d="M350.2,160.9c1.8,1.1,3.6,2.2,5.4,3.3c-0.6,2.5-2.7,1.8-4.2,1.5c-4.5-1-9-0.8-13.5-0.8c-60.5,0-121,0-181.4,0
		c-9.7,0-18.5,2.1-26.6,7.9c-8.8,6.2-11.7,14.9-12,24.7c-0.4,15.4-0.1,30.8-0.1,46.3c0,13.6,0.1,27.1,0,40.7
		c0,5.6,0.3,11.1,1.3,16.7c0.4,2.3,0.8,4.8-1.7,6.4c-3.6-0.5-3.7-3.7-4.6-6.2c-0.6-1.7-0.5-3.6-1.4-5.3c0-34.3-0.2-68.6,0.1-102.9
		c0.1-18.7,17.1-36,35.5-36c63.2-0.2,126.3-0.1,189.5-0.1c0.8,0,1.6,0.1,2.4,0.2C343.1,157.2,346.7,159,350.2,160.9z"/>
	<path class="st6" d="M111.5,295.9c2.7,3.1,2.7,7.5,4.9,10.9c1.6,1.4,3.6,2.5,3,5.1c3.3,6.4,8.3,10.9,15,13.4
		c3.1,1.1,6.4,1.7,9.7,1.7c67.6,0,135.1,0,202.7,0c11.3,0,20.2-4.5,26.1-14.4c1.6-2.6,4.2-4.5,5-7.6c0.2-0.9,1-0.6,1.7-0.4
		c-0.3,4.9-2.4,9.1-5.2,13.1c-6.9,9.8-16.4,14.9-28.4,14.9c-13.9,0-27.9,0.9-41.8,0.8c-42.6-0.2-85.3,0.1-127.9-0.2
		c-11.4-0.1-22.9,0.1-34.2-0.8c-10.6-0.8-19.1-6.3-24.8-15.4C113.3,310.7,110.9,303.7,111.5,295.9z"/>
	<path class="st7" d="M497.1,569.7c-4-4.8-6.1-10.8-9.9-15.7c-8.5-11.2-23-14.2-33.7-6.7c-7.8,5.5-11.3,15.6-8.9,25.8
		c0.4,1.8,0.9,3.6,1.3,5.4c-2.3,1.6-3.8-0.1-5.1-1.5c-5.3-5.8-8.4-12.7-9.9-20.3c0.6-4.3,0.2-8.7,1.2-13.1
		c4.2-18.5,21.4-28.3,39.3-22.2c1.6,0.5,3.2,1.5,5,1.1c3.3,0.4,5.5,2.7,7.5,4.9c7.5,8,12.6,17.5,14.3,28.3
		C498.9,560.3,499.3,565.2,497.1,569.7z"/>
	<path class="st8" d="M45.2,580c2.3-6.8,4.1-13.5,1.9-20.9c-4.7-16.4-25.1-20.4-36.5-11c-6.8,5.6-11,13.1-15.2,20.7
		c-0.3,0.6-0.2,1.7-1.6,1.8c-0.5-2.2-1.7-4.3-1.2-6.7c1.2-3.8,0.5-7.9,1.6-11.7c4-14.8,12.7-25.5,27.1-31c7-2.7,14.1-2,20.8,1.3
		c1.1,0.5,2.2,0.9,3.4,0.9c4,1.1,6.4,4.2,8.5,7.4c10.6,16.3,8.6,34.7-5.2,48.4C48.1,580,47.1,582.3,45.2,580z"/>
	<path class="st9" d="M366.2,378.9c-5.9-4.4-12.6-5.6-19.9-5.6c-51.8,0.1-103.6,0-155.4,0c-2.3,0-4.5-0.1-6.8-0.1
		c-10.3-0.6-20.6,0-31-0.3c-5.7-0.2-11.3-1.1-16.9-2c-1.3-0.2-3-0.3-3.2-2.3c1.2-1.1,2.8-0.6,4.2-0.6c70.9,0,141.9,0,212.8-0.1
		c3.4,0,6.4,1.2,9.7,1.6c3.7,1.4,7.4,2.8,8.6,7.2C368.1,377.8,367.9,379.1,366.2,378.9z"/>
	<path class="st10" d="M133.1,368.5c1.9,1.3,4.3,1,6.4,1.5c13.4,3.4,27.2,2.4,40.8,2.5c1.3,0,2.7-0.3,3.8,0.6c-16,0.1-32,0-48,0.2
		c-4.8,0-8.9,2-12,5.7c0,1.1-0.3,2-1.7,1.6c-3.7,4.2-6,9-6,14.7c-0.1,40.8,0,81.7-0.1,122.5c0,6,0.3,12-0.7,17.9
		c-0.2,1.3-0.1,2.7-1.5,3.4c-2.4-6.8-2.8-13.9-2.8-21c0-40.8,0.1-81.5-0.2-122.3C110.9,379,122.8,369.9,133.1,368.5z"/>
	<path class="st11" d="M390.2,261.3c0-17.5-0.5-35,0.1-52.4c4.2-3.4,8.7-2.7,13.1-0.9c4.2,1.7,5,5.4,5,9.5c0,12.9,0,25.7,0,38.6
		c0,2,0.1,4-1.3,5.7C401.4,263.6,395.8,264.2,390.2,261.3z"/>
	<path class="st12" d="M101.3,202.7c1,0.7,0.6,1.7,0.6,2.5c0,17.6-0.1,35.3-0.1,52.9c0,1.2,0.3,2.4-0.6,3.4
		c-5.3,2.2-10.5,2.6-15.6-0.4c-1.2-1.9-1.1-4.1-1.1-6.2c0-12.1-0.1-24.2,0-36.3c0-8.9,2.3-11.6,11.2-11.9
		C98.9,206.6,99.7,204.4,101.3,202.7z"/>
	<path class="st13" d="M147.6,573.4c0.4-2.1,2-1.4,3.2-1.4c12.4,0,24.7,0,37.1,0c1.1,0,2.9-0.7,2.9,1c0.1,1.5-1.7,1.3-2.8,1.4
		c-1.7,0.2-3.7-0.5-5.3,0.7c0.4,2,2-0.4,2.5,1c2.1-1.4,4-0.6,4.5,1.5c0.6,2.7,2.1,6-3.2,6.7c-6.9,0.9-13.8,0.2-20.7,0.5
		c-4,0.1-8,0.1-12,0c-3.1,0-6.7-5.1-5.5-7.9c0.3-0.8,0.7-3.1,2.5-1c0.5,0.6,0.9,0,1.1-0.4c0.3-0.9,0-1.5-1-1.8
		C149.9,573.3,148.6,574.4,147.6,573.4z"/>
	<path class="st14" d="M379.6,532.9c-2.1,0.3-3.3-0.5-3.1-2.9c0.1-1.2,0-2.4,0-3.6c0-43.6,0-87.1,0-130.7c0-4.3-1-8.4-3.2-12.1
		c-0.2,0-0.5,0-0.7-0.1c-1.7-1.1-2.9-2.5-3.4-4.5c0-1.2,0-2.5,1.4-2.8c1.1-0.2,1.9,0.7,2.4,1.6c0.5,0.8,0.8,1.6,2,1.5
		c2.7,3.4,4.7,7.1,4.7,11.5c0.1,46.9,0,93.8,0,140.7C379.7,532.1,379.7,532.5,379.6,532.9z"/>
	<path class="st15" d="M336.5,573.8c0.8,1.2,1.3,2.7,3,2.1c0.2-0.1,5-1.2,1.7,2.5c-0.5,0.5,0.9,1.8,1.6,1.9c1.4,0.4,2.1,0.8,1.7,2.4
		c-0.4,1.7-1.8,1.2-2.9,1.4c-7.4,1.2-14.8,0.7-22.2,0.7c-4.1,0.1-8.2,0.1-12.4-0.1c-2.1-0.1-5,0.1-4.7-3.4c0.2-2.8,0.5-5.9,4.6-5.4
		c0.5,0.1,1,0.4,1.3-0.3c0.3-0.8-0.2-1.2-0.9-1.5c-1.5-0.8-3.1-0.7-4.7-0.3c-0.6,0.1-1.4,1.3-1.9,0c-0.4-1,0.3-1.8,1.5-1.9
		c0.8-0.1,1.6-0.1,2.4-0.1c12,0,23.9,0,35.9,0c1.2,0,3.5-0.9,3.4,1.1c0,1.4-2.4,1.1-3.8,1.2C339,574.5,337.7,574,336.5,573.8z"/>
	<path class="st16" d="M206.4,706c0-5.5,0.6-11.1-0.5-16.6c-1.9-9.5-7.2-16.2-16.3-19.9c-0.6,0-0.8-0.2-0.7-0.8
		c6.4-2.2,11.9,0.3,16.9,3.8c10.5,7.2,14.7,17.6,14.3,30.2c-0.1,2.5-0.7,3.6-3.4,3.5C213.3,706,209.9,706.1,206.4,706z"/>
	<path class="st17" d="M361.3,706.1c1.1-9.3,0.9-18.5-3.8-27c-2.4-4.4-6-7.5-10.5-9.6c-1.4,0.2-1.3-0.6-1-1.4
		c13.7-0.9,25.8,11.2,28.8,24.4c0.8,3.5,0.8,7.1,0.9,10.7c0.1,2.5-1,3.3-3.3,3.2C368.7,706,365,706.1,361.3,706.1z"/>
	<path class="st18" d="M346.1,668c0.3,0.5,0.6,1,1,1.4c0.4,1.8,0.7,2.7-2,2.6c-13.3-0.2-26.6-0.4-39.8,0
		c-16.1,0.5-27.9,12.8-28.4,29c-0.1,2,0.6,4.4-2.4,5c0,0-0.3,0-0.3,0l-0.3,0c-0.9-3.9-0.6-7.8-0.2-11.7c2.5-12.8,9.1-22.3,22.3-25.8
		c3.3-0.9,6.8-1.2,10.2-1.2c11.9-0.1,23.9-0.1,35.9-0.1C343.4,667.1,344.8,667.3,346.1,668z"/>
	<path class="st19" d="M189,668.8c0.2,0.3,0.4,0.5,0.7,0.8c0.9,2.3-0.6,2.3-2.1,2.3c-8.9,0-17.8,0.1-26.7,0.1
		c-5.7,0-11.5-0.4-17.1,0.8c-14.5,3.3-23.1,18.1-22.6,29.6c0.1,1.2-0.1,2.4-0.1,3.6c-2.3,0.4-3.5,0.2-3.5-2.9c0-12,2.9-22.5,13.1-30
		c5.4-4,11.5-5.7,18.1-5.8c11.4-0.1,22.9-0.1,34.3-0.2C185.1,667.2,187.2,667.4,189,668.8z"/>
	<path class="st20" d="M241.6,44.3c5.4-2.7,10-0.6,14.3,2.6c1.2,2.4,2.5,4.7,3.2,7.3c2.4,8.9-4,18.5-12.6,18.7
		c-0.9-0.3-1.6-1-2.6-0.9c-5.1,0.1-8-2.9-10-7.1c-0.2-5.6,3.3-9,7.4-11.8c5.1-3.5,5.2-3.3,0.8-7.6C241.7,45.1,241.6,44.7,241.6,44.3
		z"/>
	<path class="st21" d="M337.6,619.8c-1.5,0.8-4.7-0.8-4.5,1.5c0.2,2.3-1,6.3,4,6.7c1.7,0.1,3.2,2.3,5.2,0.7c0.3,1.6,3,0.3,2.9,2.3
		c-0.1,1.6,0.1,3.7-2.3,3.9c-1.8,0.2-3.7,0.2-5.6,0.2c-10.4,0-20.7,0-31.1,0c-1.4,0-3.2,0.3-3.7-1.6c-0.3-1.2-0.4-3.6,0.1-3.8
		c1.9-0.8,4.2-1.4,6.2-1.1c2.9,0.4,5.7,0.1,7.8-1.7c2.2-1.9,4.5-3.9,5.4-7C326.4,616.8,334.5,616.7,337.6,619.8z"/>
	<path class="st22" d="M173,620c0.2,4.8,4.1,8.9,8.9,9.4c2.6,0.3,4.9,2.4,7.7,0.6c0.6-0.4,0.8,0.8,0.8,1.4c0,1.1,0.5,2.5-1.3,2.8
		c-1.7,0.3-3.4,0.7-5.1,0.7c-9,0.1-18,0-27,0c-4.3-0.7-5-1.5-5.3-5.8c-0.6-9.8-0.1-10.5,9.8-10.3c3.7,0,7.5-0.7,11,0.7
		C172.6,619.7,172.8,619.9,173,620z"/>
	<path class="st23" d="M172.3,594.5c0.7,6,5.5,10.3,11.3,9.9c0.5,0,1.1-0.2,1.5,0c1.7,0.8,4.8-0.6,4.9,2.4c0.1,3.2-2.9,2-4.5,2.2
		c-10.8,1-21.7,0.3-32.5,0.5c-2.4-4.9-1.9-10-0.4-15c1.4-1.4,3.2-1.5,5-1.4c3.4,0.6,6.9,0.2,10.3,0.2
		C169.4,593.3,171.1,592.9,172.3,594.5z"/>
	<path class="st24" d="M421.3,382.9c4.8,5.9,6,12.9,5.5,20.1c-0.8,11.1-6.1,19.5-15.7,25.2c-3.3,2-4.1,1.6-4.1-2.3
		c-0.1-4.3,0-8.5,0-12.8c1-1.1,2.2-1.9,3.5-2.6c9.4-4.4,11.7-15,9.8-23.4C420,385.7,419.9,384.1,421.3,382.9z"/>
	<path class="st25" d="M101.3,202.7c0,0.7-0.1,1.3,0,2c0.3,2.8-0.5,4.2-3.7,3.7c-1.9-0.3-4,0.1-5.9,0.2c-4,0.2-5.7,2.6-5.7,6.2
		c-0.1,15.4,0,30.8,0,46.2c1.7,2.8,2.1,5.7,0,8.5c-0.1,1.5-0.5,2.5-2.4,2.4c-1.8-0.1-1.7-1.3-1.7-2.5c-0.2-19.4-0.4-38.8-0.4-58.2
		c0-5.9,2.5-8.2,8.2-8.5C93.6,202.5,97.5,202.7,101.3,202.7z"/>
	<path class="st26" d="M333.6,594.4c-1.3,2.6,0,5.1,0.5,7.7c0.2,0.7,0.7,1.2,1.5,0.9c3.1-1.2,5.1,1.7,7.8,2.1
		c0.9,0.2,1.3,1.2,1.2,2.3c-0.1,1.2-1,1.3-2,1.5c-3.8,0.8-7.7,0.7-11.5,0.5c-8.6-0.3-17.3,0.6-25.9-0.3c-2.6-0.3-2.6-1.4-2.7-3.6
		c-0.2-3.3,2.3-1.3,2.6-1.2c8.6,1.1,14.1-3.3,18.6-9.8C327,592.2,330.3,592.2,333.6,594.4z"/>
	<path class="st27" d="M287.9,355.7c-8.9,0-17.8-0.3-26.7,0.1c-17.6,0.8-35.3-0.7-52.9-0.1c-6.2,0.2-12.4,1.5-18.6,0.7
		c1-2.7,3.4-1.9,5.4-2c2.6-0.1,5-0.2,6.6-2.7c28.8,0,57.5,0.1,86.3,0.1C289.1,353.1,289.9,354.4,287.9,355.7z"/>
	<path class="st28" d="M84.3,373.5c1.3,0.8,0.8,2.2,0.8,3.3c0,11.9-0.1,23.8-0.1,35.7c-1.1,2.3-2.8,1.6-4.3,0.8
		c-7.7-4.3-12.1-10.8-12.7-19.7c2-3.9,4.4-7.5,7.9-10.3c3.6-2.8,5.2-2.4,6.9,1.8C84,381.3,81.8,377,84.3,373.5z"/>
	<path class="st29" d="M421.3,387.6c3,11-2.8,23.2-14.4,25.6c0-9.6,0-19.2,0.1-28.8c0.6-0.6,1.1,1.2,1.4,0.2
		c0.7-3.4,2.2-4.1,5.2-2.3c1.7,1.1,3,2.6,4.4,4C418.9,387.2,419.7,388.5,421.3,387.6z"/>
	<path class="st30" d="M45.2,580c4.5-1.6,6.5-5.8,8.8-9.3c10.6-15.5,4.9-35.8-6.7-45.6c-0.6-0.5-1.4-0.7-2.1-1c-3.6-1.6-6.8-3.6-9-7
		c10.1,0.6,17.3,6.3,22.1,14.4c11.1,18.6,6.8,37.9-10.6,50.8c-1.4,1-2.4,2.9-4.8,3.1C43.2,583.3,44.2,581.6,45.2,580z"/>
	<path class="st31" d="M68.6,393.1c1.5,8.3,5.1,15.1,12.9,19.3c1.3,0.7,2.4,1,3.6,0c0,4.4,0,8.8,0.1,13.2c0.1,2.9-1.1,3-3.4,1.9
		c-9.4-4.6-14.2-12.2-15.7-22.4c-0.7-4.6-1.4-9.2,0.3-13.8c0.5-1.3,0.6-2.9,2.1-3.7C70.2,389.4,69.4,391.2,68.6,393.1z"/>
	<path class="st32" d="M406.8,261.7c0-15.4,0.1-30.8,0.1-46.1c0-4.3-1.7-6.2-5.9-7c-3.6-0.7-7.1-0.2-10.6,0.4
		c-0.6-6.1-0.6-6.1,5.4-6.3c0.8,0,1.6,0,2.4-0.1c10.2-0.2,12.4,2.2,12.3,12.3c-0.2,17.9-0.1,35.9-0.1,53.8c0,2.5-0.2,4.5-3.4,2.4
		C404.9,268,404.7,264.8,406.8,261.7z"/>
	<path class="st33" d="M172.4,645.6c0.9,7.4,6.5,9.7,14.4,9.2c1.3-0.1,3.3-1.1,3.4,1.2c0.1,2-1.9,1.4-3.1,1.4
		c-11.4,0.3-22.8-0.1-34.2,0.8c-1,0.1-2.1,0.2-3-0.7c1.4-1,2.2-1.9,2-4c-0.3-3-1.2-6.3,1.6-8.8c5.5-1.5,11.1-0.8,16.6-0.5
		C171.1,644.3,171.9,644.8,172.4,645.6z"/>
	<path class="st34" d="M246.4,72.3c9.5-2,14.3-10.9,10.8-19.8c-0.7-1.7-2.6-3.3-1.4-5.5c5.4,3.5,9.3,12.1,7.9,17.7
		c-1.9,7.6-8.8,13.5-16.3,14.1c-7.1,0.5-13-3.3-16-10.5c1.2-1.9,2.8-1.5,4.4-0.7c2.1,2.6,4.7,4.1,8,4
		C244.7,71.5,245.6,71.6,246.4,72.3z"/>
	<path class="st35" d="M476.1,523.4c-1,1.1-1.9,0.3-2.9-0.1c-19.5-8-39.5,3.8-40.8,26.7c-0.1,2.2,0.5,4.5-0.8,6.6
		c-2.6-3.8-3.5-8-3.4-12.5c2.4-12.2,8.8-21.2,20.7-26c3.9-1.6,8.1-0.8,12-1.9c4.3,0.6,8.4,1.5,12.2,3.8
		C474.5,520.9,476.1,521.5,476.1,523.4z"/>
	<path class="st36" d="M430.9,238.3c1.1,5.6,1.3,11.2-0.1,16.7c-4,2.4-8,2.3-11.9,0c-1.3-5.2-0.4-10.5-0.6-15.7
		c-0.1-3.8,0-7.6,0-11.4C422.3,231.7,427.6,233.7,430.9,238.3z"/>
	<path class="st37" d="M332.9,645.5c-0.3,5.7,0.9,7.5,7.1,7.9c1.5,0.1,2.4,3.2,4.2,0.9c0.1-0.2,0.2,0.9,0.3,1.3c0,0.8,0,1.6-1.1,1.7
		c-1.6,0.1-3.2,0.3-4.8,0.3c-10.7,0-21.5,0-32.2-0.1c-2.4,0-4.7-0.2-3.7-3.7c1.6-0.1,0.9,1.9,2.3,2.2c0-3.9,2.8-2.1,4.6-2
		c6.5,0.2,10.3-2.6,10.9-8.5C324.6,643.1,328.8,643.1,332.9,645.5z"/>
	<path class="st38" d="M36.3,517.2c3.7,1.4,6.1,4.5,9,7c-3.6,0.6-6.2-2.1-9.5-2.7c-7.7-1.5-14.6,0-20.9,4.1
		c-12.3,8.1-19.4,19.6-20.8,34.3c-0.1,1.5-0.5,2.8-1.4,4C-8.2,549.7-4,537.2,5.9,527C14.2,518.5,24.5,515.1,36.3,517.2z"/>
	<path class="st39" d="M358.8,714.8c-27.6,0.1-55.2,0.1-82.9,0.2c-1,0-2.5,0.7-2.6-1.4c-0.1-2.2,1.4-1.7,2.7-1.7
		c22.8,0,45.7,0,68.5,0c3.8,0.6,7.7,0.1,11.5,0.2C357.8,712.2,359.4,712.4,358.8,714.8z"/>
	<path class="st40" d="M61.9,255.3c-1.3-6.4-1.4-12.9,0-19.3c2,1,3.1-0.6,4.5-1.5c2.3-1.6,4.2-4.2,7.6-3.2c0,7.9,0,15.9,0,23.8
		C69.9,257.6,66,257.2,61.9,255.3z"/>
	<path class="st41" d="M200,714.8c-26.7,0.1-53.4,0.2-80.1,0.3c-1.1,0-2.2,0.3-2.3-1.3c-0.1-2.1,1.4-1.9,2.7-1.9
		c9.8,0,19.7,0,29.5,0c13.2,0.5,26.5,0.2,39.7,0.2c3,0,5.7,1,8.6,1C199.1,713.1,200,713.6,200,714.8z"/>
	<path class="st42" d="M476.1,523.4c-4.5-3.6-9.9-5.2-15.1-7.1c12.8-1.1,26.8,8.1,32.9,21.4c3.9,8.6,5.9,17.5,5.6,26.9
		c0,2-0.5,4-1.3,5.7c-0.7,1.4-0.9-0.2-1.2-0.7c0.1-4-0.4-8,0.7-11.9c0.2-0.7,0.2-1.7-0.1-2.4c-4.2-11.8-8.8-23.4-19.4-31.2
		C477.7,523.8,476.9,523.7,476.1,523.4z"/>
	<path class="st43" d="M94,414c-0.2-13.5-0.4-27-0.4-40.6c0-5.9,2.3-8.1,8.2-8.3c2.8-0.1,5.6,0.1,8.3,0.2c0.9,0,2.1-0.1,2.4,1
		c0.3,1.2-0.7,1.9-1.8,2.1c-2.8-0.9-5.5,0-8.1,0.9c-2.3,0.8-3.6,2.6-3.7,5.1c-1,5.1-0.3,10.3-0.5,15.5c-0.2,5.2,0.2,10.3-0.2,15.5
		c-0.9,2.3-2.2,4.4-2.4,7C95.7,413.2,95.2,414.1,94,414z"/>
	<path class="st44" d="M97.8,373c1.8-5.6,5.8-7,12.8-4.6c-1.1,0.1-2.2-0.1-3.2,0.2c-1.7,0.6,0.2,0.9,0.2,1.3c-0.4,1-1.4,1.1-2.2,1.4
		c-5.1,1.8-5.1,2.1-1.3,5.9c-5,10.3-2.4,21.3-2.9,32.1c-0.2,3.7-0.1,7.4-0.2,11.1c-3-0.1-4.1-1.9-4.2-4.6c-0.1-1.7-0.2-3.5,0-5.2
		c1.5-12,0.4-24,0.8-36C97.6,374,97.6,373.5,97.8,373z"/>
	<path class="st45" d="M398,424.3c0.1,1.3,0.2,2.6,0.2,3.9c0,5.6-1.5,6.6-7.4,4.8c-0.8-4.2-0.3-8.4-0.4-12.7
		c-0.1-9.3-0.1-18.6,0-27.9c0-1.2-0.9-3.4,1.3-3.5c2.2-0.1,2.5,2,2.6,3.8c0.1,4.1,0.1,8.2,0,12.3c0,1.3,0.3,2.6,0.6,3.9
		C395.1,414.3,398.4,419,398,424.3z"/>
	<path class="st46" d="M333.6,594.4c-3.3,0-6.7,0-10,0c-6.4-0.5-12.7-0.4-19.1-0.2c-1.1,0-3.3,0.9-3.1-1.7c0.2-2.3,2-1.3,3-1.4
		c12.4-0.8,24.7-0.4,37.1-0.5c0.5,0,1.1,0,1.6,0.1c1.4,0.1,2.3,0.5,2.2,2.1c-0.1,1.6-1.1,1.6-2.2,1.6
		C340,594.4,336.8,594.4,333.6,594.4z"/>
	<path class="st47" d="M428.3,544.2c1.3,4.1,3.1,8.1,3.4,12.5c2.5,7.2,4.9,14.4,10.5,19.9c1.1,1,2.1,2,3.7,1.8c1,2.1,2,4.2,3.1,6.3
		c-4.7-1.9-8.4-4.7-11.7-8.3c-8.1-8.9-10.9-19.5-9.6-31.3C427.7,544.8,428.1,544.5,428.3,544.2z"/>
	<path class="st48" d="M241.6,44.3c0.6,0.3,1.2,0.6,1.7,0.9c2.1,1.1,4.8,2.3,5,4.6c0.1,1.9-2.9,2.1-4.6,3.1c-4.6,2.6-8.1,6-9.1,11.4
		c-0.3,0.3-0.7,0.4-1.1,0.4c-2.8-1.5-2-4.6-2.9-6.9C231.2,50.9,235.4,46.8,241.6,44.3z"/>
	<path class="st49" d="M406.8,261.7c0,3.2,0,6.3,0,9.5c-4,0-8-0.2-12,0c-3.5,0.2-4.9-1.3-4.7-4.6c0.1-1.7,0.1-3.5,0.1-5.2
		C395.8,261.5,401.3,261.6,406.8,261.7z"/>
	<path class="st50" d="M337.6,619.8c-5.2-1.1-10.4-0.3-15.6,0.2c-5.8-0.9-11.6-0.3-17.4-0.2c-1.3,0-3.1,0.8-3.1-1.8
		c0-2.1,1.6-1.8,2.8-1.8c12.5-0.1,24.9-0.1,37.4-0.1c0.7,0,1.3,0.2,2,0.2c1.2,0.2,1.9,0.8,1.8,2.1c-0.1,1.3-1,1.4-2,1.4
		C341.5,619.8,339.5,619.8,337.6,619.8z"/>
	<path class="st51" d="M418.8,255.1c4,0,8,0,11.9,0c-0.9,7.6-4.8,13.2-11.7,17.4C417.8,266.5,417.5,260.8,418.8,255.1z"/>
	<path class="st52" d="M86,269.5c0-2.8,0-5.7,0-8.5c5,1.1,10.1,0,15.2,0.6c1.2,2.4,0.6,4.9,0.7,7.4c0,1-0.3,2-1.4,2
		c-4.3,0-8.7,0-13-0.2C87,270.8,86.5,270,86,269.5z"/>
	<path class="st53" d="M394,410c-1.6-5-0.3-10.2-0.8-15.3c-0.2-1.7,1-4.6-1.4-4.6c-1.8,0-0.9,2.9-0.9,4.5
		c-0.1,12.9-0.1,25.8-0.1,38.7c-1.2-1.2-0.7-2.8-0.7-4.2c0-11.4-0.1-22.8,0.1-34.2c0.1-5.8-0.8-11.3-3.6-16.4
		c-0.5-0.8-0.7-1.7-0.6-2.7c0.1-2.1,1.6-0.9,2.5-1c0.9-0.1,1.9,0.3,2.3-0.9c0.4-1.2-0.3-2-1.3-2.6c-0.9-0.5-1.9-0.9-2.6-1.8
		c-1.1-1.4-2.8-0.7-4.2-1c3.2-3.4,10.4-1.5,12.1,3.1c0.4,1,0.5,2,0.3,3.1c-0.4,9.7,0.5,19.4,0.3,29C395.6,405.8,396,408.2,394,410z"
		/>
	<path class="st54" d="M246.5,119.5c3.2-0.2,6.3-0.6,9.4,0.5c1.7,0.6,3.2,1.3,3.4,3.4c0.6,1.1,0.2,2-1,1.7c-3-0.8-5.1,0.7-6.9,2.7
		c-1.2,1.2-2.7,1.5-4.2,2c-3.7-0.3-7.5,1.4-11.2-0.1c-1.1-4.9,0.4-7.3,5-8.3C242.8,120.9,244.9,121,246.5,119.5z"/>
	<path class="st55" d="M68.6,393.1c-0.1-1.8-0.2-3.6-0.2-5.5c2.1-6.1,6.2-10.4,11.8-13.2c1.3-0.6,2.6-1.4,4.1-0.9
		c0,3.8,0,7.7,0,11.5c0,1.3,0.2,2.7-1.9,2.6c-2-0.1-1.5-1.3-1.4-2.5c0.1-1,0.5-2.3-0.6-2.9c-1.2-0.7-1.8,0.6-2.7,1.2
		c-3.6,2.2-6,5.4-7.7,9.2C69.6,393.5,69.2,393.4,68.6,393.1z"/>
	<path class="st56" d="M97.8,373c0.1,12.3,0.1,24.7,0.2,37c0,3.7-1,7.8,3.1,10.3c0,3.5,0,7.1,0.1,10.6c0.1,2.7-1.4,2.9-3.5,2.9
		c-2.1,0-4,0.2-3.9-2.9c0.2-2.7,0.1-5.5,0.2-8.3c2.1-5.4,1.3-11.3,3.1-16.8c0-9.6,0-19.1,0.1-28.7C97.2,375.8,96.8,374.3,97.8,373z"
		/>
	<path class="st57" d="M459.6,494.6c-2.8,1.2-5.8,1.4-8.7,0.8c-2.7-3.8-3-8.2-2.8-12.7c1.9-1.6,4.2-2.4,6.6-3.1
		c3.3-0.4,5,1.3,5.2,4.4C460.2,487.4,462.2,491.1,459.6,494.6z"/>
	<path class="st58" d="M332.9,645.5c-4.1,0-8.3,0-12.4,0c-5.3,0-10.6,0-15.9-0.1c-1.1,0-2.9,0.7-3-1.5c-0.1-2.3,1.7-1.6,2.8-1.6
		c12.6-0.1,25.2-0.1,37.9-0.1c1.2,0,3-0.5,3.1,1.5c0.1,2.4-2,1.6-3.2,1.7C339,645.6,336,645.5,332.9,645.5z"/>
	<path class="st59" d="M172.4,645.6c-6.4,0-12.8,0-19.3,0c-1.1,0.5-1.6,2.3-3.3,1.3c-0.2-0.3-0.3-0.9-0.6-1c-1.4-0.4-2-1.3-1.7-2.7
		c0.4-1.7,2-1.1,3-1.1c7.5-0.1,15.1-0.2,22.6-0.1c4.9,0,9.8,0.3,14.7,0.5c1.2,0,2.7,0,2.5,1.7c-0.2,1.7-1.7,0.9-2.6,0.9
		C182.7,645.3,177.6,645.5,172.4,645.6z"/>
	<path class="st60" d="M61.9,255.3c4-0.1,8-0.2,11.9-0.3c0,4.4,0.1,8.7,0.1,13.1c0,1,0.4,2.3-1,2.7c-1.1,0.4-2.2-0.3-2.9-1
		C66.1,265.8,63,261.1,61.9,255.3z"/>
	<path class="st61" d="M421.3,387.6c-0.2,0.9-0.3,1.7-0.5,2.9c-2.6-2.4-4.9-4.7-7.4-6.8c-2.1-1.8-4.1-3-4.3,1.4
		c0,0.6-0.5,1.2-0.7,1.9c-1.3-0.5-0.5-2-1.4-2.6c0-2.9,0.1-5.8-0.1-8.7c-0.2-2.5,0.8-3,3-2.1c4.7,2,8.8,4.8,11.4,9.3
		C421.3,384.5,421.3,386,421.3,387.6z"/>
	<path class="st62" d="M394,410c0.1-12,0.2-23.9,0.3-35.9c2.2,0.4,1.9,2.2,1.9,3.7c0,2.3-0.1,4.7-0.1,7.1c0,1.8,0.3,3.4,2,4.4
		c0.6,11.7,0.1,23.4-0.1,35.1C398.2,419.1,393,415.4,394,410z"/>
	<path class="st63" d="M398.2,389.2c-2.2,0.8-3.2,0.5-3.3-2.3c-0.1-4.3,0.9-8.6-0.6-12.8c-0.7-5.3-5.3-7.7-11.4-5.7
		c-1.5,0.3-3.5,0.1-3.7-1.4c-0.3-1.9,1.9-1.8,3.2-2c3.6-0.6,7.2-0.4,10.7,0.4c3.3,0.7,5.2,3.1,5.2,6.7
		C398.3,377.8,398.2,383.5,398.2,389.2z"/>
	<path class="st64" d="M232,139.2c8.5-1,17-0.7,25.5,0.2c2.2,4.2,1.4,5.9-3.1,5.9c-5.8,0-11.6,0-17.4,0c-1.6-2-1.1-3.1,2.5-5
		C236.8,140.3,234.1,141.6,232,139.2z"/>
	<path class="st65" d="M73.9,231.2c-4.4,1.5-7.7,4.6-11,7.7c-1.7-0.5-0.5-2-1-2.9c1.5-7.4,5.6-13,12-18.3
		C73.9,222.8,73.9,227,73.9,231.2z"/>
	<path class="st66" d="M446,450.7c-2.4,1.8-4.5,4-7.8,3.9c-3.7-2.7-4.6-7.6-8-10.5c1.5-2.2,2.8-4.5,5.4-5.5c0.5-0.2,1.1-0.6,1.5-0.3
		C441,441.8,445.4,444.9,446,450.7z"/>
	<path class="st67" d="M41.2,481.2c1-0.3,1.6,0.6,2.4,0.7c1.5,4.5-0.4,8.6-1.6,12.8c-0.3,0.9-1.2,1.3-2.3,0.8
		c-2.2-0.4-4.5,0.2-6.6-0.9c-2.4-4.4-1-8.8,0.3-13.1c0.5-1.6,1.9-2,3.6-1.5C38.4,480.5,39.7,481.3,41.2,481.2z"/>
	<path class="st68" d="M53.2,454.8c-1.9-0.9-4.1-1.4-5.6-3.3c-0.5-0.7-0.8-1.4-0.8-2.2c0.2-3.1,6.4-10.5,9.6-11.5
		c2.1,1.5,4.1,3.2,5.5,5.5C59.8,447.8,57.5,452.1,53.2,454.8z"/>
	<path class="st69" d="M181.7,619.1c-2.9,0.3-5.8,0.6-8.8,0.9c0,0,0-0.3,0-0.3c-6-0.5-12,0.1-17.9-0.3c-2.3-0.2-2.8,3.1-5.2,1.9
		c-0.1-0.5,0-1.3-0.6-1.3c-1.6,0-1.9-0.8-1.8-2.3c0.1-1.7,1.4-1.7,2.6-1.8c6-0.1,11.9,0.1,17.9-0.1c5.7-0.3,11.3,1,17,0.9
		C185.9,620.4,182.5,618,181.7,619.1z"/>
	<path class="st70" d="M53.2,454.8c2.6-4.1,5.1-8.1,8.8-11.3c6.2,5,6.3,9.4,0.3,14.5c-1,0.9-1.9,0.7-2.9,0.2
		C57.3,457,55.3,455.9,53.2,454.8z"/>
	<path class="st71" d="M430.9,238.3c-1.4,2.2-1.7-0.4-2-0.7c-2.8-2.5-5.2-5.3-9.2-6.1c-1.9-0.4-0.4-2.6-1.5-3.5c0-1.6,0-3.2,0-4.8
		c1.5-1.4-0.6-3.3,0.7-4.7C426.1,223.2,429.6,230.1,430.9,238.3z"/>
	<path class="st72" d="M45.5,459.5c2,0.7,3.9,1.5,4.4,4c0,3.4-1.6,6.2-3,9.1c-0.6,1.2-1.7,2-3.2,1.5c-2.3-0.5-4.6-1-6.5-2.5
		c-0.5-4.4,1.7-7.9,3.8-11.3C42.1,458.4,43.8,458.6,45.5,459.5z"/>
	<path class="st73" d="M430.2,444.1c5.1,1.7,5.6,6.7,8,10.5c-2.4,0.5-3.1,3.1-5.1,4.2c-1.4,0.8-2.1,1.1-3-0.6c-1-2-2.3-3.8-3.5-5.7
		c-2.1-3.4-1.5-5.4,2.5-6.2C431.1,445.9,430.2,445,430.2,444.1z"/>
	<path class="st74" d="M454.8,471.5c-2.5,1.4-5,2.6-7.9,2.4c-2.8-3.2-4-7.2-5-11.2c1.2-1.4,2.6-2.4,4.4-3c2.7-1.3,4.7-0.3,5.8,2.2
		C453.3,464.9,456.3,467.5,454.8,471.5z"/>
	<path class="st75" d="M157.8,594.3c-1.6,0-3.1,0.1-4.7,0.1c-1,0.7-1.5,2.4-3.2,1.4c-0.2-0.5,0-1.3-0.7-1.3c-1.7,0-1.9-1.1-1.7-2.4
		c0.2-1.6,1.5-1.6,2.7-1.6c7.7,0,15.4,0.1,23.1,0.2c2.8,0,5.6,0.3,8.4,0.5c0.4,3-1.6,2.7-3.5,2.7
		C171.4,594.1,164.6,593.8,157.8,594.3z"/>
	<path class="st76" d="M287.9,355.7c0.8-1.3-0.2-2.6,0-3.9c7.1-0.2,14.3-0.2,21.4-0.5c2.1-0.1,2.4,1,2.6,2.6c0.2,2.4-1.2,2.7-3,2.5
		C302,355.4,294.9,356,287.9,355.7z"/>
	<path class="st77" d="M448.1,482.6c1.9,4,2.3,8.4,2.8,12.7c-2,1.3-4.5,0.1-6.6,1.8c-1.1,0.9-1.5-1.1-1.7-2c-0.4-2.5-0.6-5-0.9-7.4
		c-0.3-1.9,1.2-2.5,2.4-3.3C445.3,483.7,446.7,483.2,448.1,482.6z"/>
	<path class="st78" d="M441.8,462.7c3.1,3.1,3.7,7.3,5,11.2c-1.4,1.1-3,1.6-4.7,2c-1.2,0.3-2.3,1.8-3.6,0.3
		c-1.5-1.7,1.1-2.3,1.2-3.7c-0.6-0.3-1.2-0.6-1.7-0.9c-3.3-2.1-3.4-3.9-0.2-6.3C439.1,464.3,440.5,463.5,441.8,462.7z"/>
	<path class="st79" d="M39.7,495.5c1.3-0.2,1.5-1.1,1.7-2.2c0.6-3.8,1.4-7.6,2.2-11.4c2,1,3.3,2.5,3.6,4.8c1.7,0.2,0-1.8,1.2-1.9
		c2.9,3.6,0.3,7.4,0.7,11.1c0.1,0.6-0.6,1.1-1.1,0.9C45.4,495.2,42.3,497.2,39.7,495.5z"/>
	<path class="st80" d="M243.3,89.9c4.7-1.8,6.1-1,6.2,3.5c0.1,4.8-0.1,9.6,0.1,14.4c0.2,3.3-0.9,4.5-4.1,3.5c-1.2-1.1-1-2.6-1-4.1
		c0-4.2,0-8.5,0-12.7C244.5,92.8,244.1,91.3,243.3,89.9z"/>
	<path class="st81" d="M43.7,474c1.6-0.1,2-1.3,2.5-2.5c1.2-2.7,1.4-5.8,3.7-8.1c0.4,0,1.1-0.1,1.1,0.1c0.9,2.1,3.4,2.1,4.7,3.6
		c0.5,0.5,1.5,1.6,0.6,1.8c-3.1,0.8-2,3.4-2.1,5.1c-0.2,2.9-1,2.9-3.4,1.9C48.6,475,46.1,474.7,43.7,474z"/>
	<path class="st82" d="M200,714.8c-4.6-0.8-8.9-2.5-13.7-2.4c-10.3,0.2-20.6,0.1-31,0c-1.8,0-3.7,0.4-5.5-0.5
		c19.3-0.4,38.5-0.3,57.8,0.5c1.7,0.1,3.5,0,5.2,0.1c0.7,0,1.8-0.3,1.8,0.9c0.1,1.3-0.9,1.4-1.9,1.4
		C208.5,714.8,204.2,714.8,200,714.8z"/>
	<path class="st83" d="M41.2,481.2c-0.3,0.2-0.7,0.5-1,0.4c-6.1-0.7-6.1-0.7-6.8,5.5c-0.3,2.5-0.2,5-0.3,7.5
		c-5.4,0.1-5.4,0.1-4.4-5.1c0.7-3.6,1.1-7.2,2-10.8c0.5-1.9,1-1.9,2.2-1.3C35.7,478.6,38.4,479.9,41.2,481.2z"/>
	<path class="st84" d="M56.5,437.9c-3.9,3.9-7.9,7.8-8.9,13.6c-0.9-0.5-1.9-1-2.8-1.5c-1.5-0.9-2.3-1.8-0.9-3.7
		c2-2.6,3.6-5.5,5.6-8.2C52.8,433.9,52.9,433.9,56.5,437.9z"/>
	<path class="st85" d="M45.5,459.5c-2.2-0.4-3.7,0.4-4.5,2.7c-1.1,3.2-2.5,6.3-3.8,9.4c-3.6-0.3-4.3-2.2-2.9-5.3
		c1.3-2.9,2.7-5.7,3.6-8.7c0.8-2.7,2-2.3,3.6-1.1C42.9,457.4,44.2,458.4,45.5,459.5z"/>
	<path class="st86" d="M454.8,471.5c-0.7-3.7-2.7-6.8-4.3-10.1c-1-2.2-2.8-1.2-4.3-1.7c6.6-4.9,6.6-4.9,9.9,2.6
		c0.5,1.2,1,2.4,1.6,3.6C459.2,469.1,458.7,471.1,454.8,471.5z"/>
	<path class="st87" d="M446,450.7c-2.7-4.7-5.6-9.2-10.4-12.1c3-5.2,3.3-5.2,6.7-0.7c1.9,2.5,3.7,5.1,5.5,7.7
		C449.5,448.2,449.3,450,446,450.7z"/>
	<path class="st88" d="M89.6,292.1c-4,0-6.1-1.9-7.1-6.1c-0.7-2.8-0.4-5.5-0.5-8.3c0-1,0.4-1.8,1.6-1.8c1.2,0,1.5,0.7,1.6,1.8
		c0.1,1.6,0.2,3.2,0.4,4.7c0.3,4,2.3,6.2,6.4,6c1,0,1,0.7,0.8,1.3C92.4,291.3,91.6,292.3,89.6,292.1z"/>
	<path class="st89" d="M149.9,621.4c2.7-2.4,6-2.3,9.3-2.1c4.6,0.2,9.2-0.7,13.8,0.5c-5.2,0.1-10.5,0.4-15.7,0.2
		c-3.7-0.2-4.7,1.2-4.3,4.5c0.2,1.6,0.2,3.2,0,4.8c-0.3,3.1,0.8,5.1,3.9,5.8c-8.6,0.3-7.8,1.6-7.8-7.4
		C149.1,625.5,149.2,623.4,149.9,621.4z"/>
	<path class="st90" d="M201.7,351.7c0.6,3.1-0.5,4.3-3.8,4.1c-2.7-0.1-5.5-0.7-8.2,0.5c-1.6,0-3.2,0-4.8,0c-1.4-1.5-1.3-3.1-0.1-4.6
		C190.5,351.7,196.1,351.7,201.7,351.7z"/>
	<path class="st91" d="M459.6,494.6c-0.3-3-0.7-5.9-0.8-8.9c-0.1-3-0.7-5.5-4.1-6.1c6-3.2,6.1-3.2,7.4,3.6c0.5,2.6,0.8,5.2,1.3,7.7
		C463.9,494.1,462.8,495.3,459.6,494.6z"/>
	<path class="st92" d="M410,279.9c0.5,3.2-0.2,5.5-0.8,7.8c-0.3,1.4-0.9,3-2.3,3.5c-1.7,0.7-3.8,2.6-5.3,0.4c-1.3-2,1.1-2.9,2.5-3.7
		c2.2-1.3,2.9-3.3,2.8-5.7c0-0.5,0-1.1,0-1.6c0.3-1.8-0.7-5,1.7-4.9C411.5,275.7,409.3,279,410,279.9z"/>
	<path class="st93" d="M246.5,119.5c0.5,2.4-1.6,2.9-2.8,2.8c-5.6-0.5-7.3,2.7-7.7,7.4c-2.1,0.5-3.1-0.1-3.1-2.6
		c-0.1-5.7,1.7-7.7,7.3-7.8C242.2,119.3,244.3,119.5,246.5,119.5z"/>
	<path class="st94" d="M247.1,129.7c0.7-0.6,1.6-1,2.2-1.7c2.5-3.2,5.7-5,9.9-4.7c1.7,5,1.3,6-3.6,6.9
		C252.8,130.9,249.9,130.7,247.1,129.7z"/>
	<path class="st95" d="M235.9,144.8c6.3,0.1,12.6,0.2,18.9,0.2c4.5,0,1.9-3.7,2.7-5.6c1.3,0.1,2.7,0,3.9,0.3c2.3,0.4,3.4,2,3.2,4.3
		c-0.3,2.5-2.4,1.7-3.8,1.7c-7.7,0.1-15.4,0.1-23.1,0c-1.2,0-2.4,0.1-3.4-0.7C234.9,144.6,235.4,144.5,235.9,144.8z"/>
	<path class="st96" d="M358.8,714.8c-0.6-1.9-1.9-2.2-3.7-2.1c-3.5,0.1-7.1,0-10.6-0.8c9.5-0.4,19,0.2,28.5,0.8c0.6,0,1.5,0,1.6,0.8
		c0.2,1.2-0.8,1.2-1.6,1.2C368.3,714.9,363.6,715.4,358.8,714.8z"/>
	<path class="st97" d="M149.9,595.8c1.1-0.4,1.8-1.6,3.2-1.4c0,5-0.1,10-0.1,15c-2.8,0.6-3.8-0.6-3.8-3.4
		C149.2,602.6,149.1,599.2,149.9,595.8z"/>
	<path class="st98" d="M235.9,144.8c-0.5,0.1-1,0.1-1.5,0.2c-0.8,0-1.6,0.1-2.3-0.1c-1.1-0.3-3.1,1.3-3.3-1.2
		c-0.2-2.3,0-4.6,3.2-4.5c2.6,0,5.2,0,8.6,0C238.4,141.3,238,143.7,235.9,144.8z"/>
	<path class="st99" d="M387.1,369.4c1.4,0.5,3,0.1,4.3,1.3c1.4,1.3,1.3,2.9,0.8,4.3c-0.7,1.9-2.1,1.3-3.6,0.8
		c-0.8-0.2-1.6-1-2.5-0.2c-0.4-0.5-0.9-0.9-1.2-1.4c-0.8-1.2-2.9-1.9-1.8-3.8C383.9,369,385.7,369.7,387.1,369.4z"/>
	<path class="st97" d="M157.8,594.3c6.6-1.6,13.3-0.3,20-0.8c1.8-0.2,3.4-0.2,4-2.3c2.2,0,4.5,0,6.7-0.1c1.2,0,2.1,0.4,2.1,1.8
		c-0.1,1.7-1.4,1.2-2.4,1.2c-5.3,0.1-10.6,0.2-15.9,0.2C167.5,594.1,162.6,595.2,157.8,594.3z"/>
	<path class="st100" d="M243.3,89.9c1.7,0.9,2.4,2.3,2.3,4.2c-0.1,5.7-0.1,11.4-0.2,17.1c-1.8,0.5-2.3-0.2-2.3-2
		C243.3,102.8,243.3,96.4,243.3,89.9z"/>
	<path class="st101" d="M425.2,435.6c-0.9,0.6-0.5,1.8-1,2.5c-1,1.6-2.2,3.8-3.9,3.5c-1.8-0.3-3.5-2.1-5-3.4
		c-0.7-0.6,0.1-1.9,0.8-1.6c4.1,1.9,4.2-2.3,6.1-3.7c0.2-0.2,0.4-0.3,0.6-0.5C424.6,432.6,426.3,433.1,425.2,435.6z"/>
	<path class="st102" d="M31.7,502c2.9-0.1,5.8-0.1,8.5,1.3c1.2,0.7,2.2,1.7,1.8,3.2c-0.5,1.7-2,0.8-3,0.8c-2.5-0.1-5-0.5-7.4-0.8
		C30.5,504.9,30.9,503.5,31.7,502z"/>
	<path class="st103" d="M425.2,435.6c0.2-1.9-1.6-2.2-2.4-3.2c1.6-1.6,3.1-3.3,4.7-4.9c2.3,0.1,4,0.9,4.3,3.5
		C429.8,432.7,429.5,436.9,425.2,435.6z"/>
	<path class="st104" d="M149.9,646.9c1.1-0.4,1.9-1.6,3.3-1.3c-0.1,3.8-0.6,7.7,0.5,11.7c-1.3,0.1-2.5,0.1-3.8,0.2
		C148.4,654,149.9,650.5,149.9,646.9z"/>
	<path class="st105" d="M375,379.5c-1.8,2.8-1.9,0-2.6-0.8c-0.6-0.6-0.9-1.7-1.9-1.5c-0.3,0.1-0.3,1.1-0.5,1.7
		c-1.8,0.1-1.8-1.4-2.3-2.5c-2.1-3.1-5-5.1-8-7.1C366.6,370.1,371.5,373.8,375,379.5z"/>
	<path class="st106" d="M65.3,427.5c1,1,2,2.1,3.1,3c2.4,1.9,0.6,3.2-0.5,4.8c-1.7,2.4-2.3-0.2-3.3-0.6c-1-0.5-2.1-1.1-2.6-2.3
		C61.3,429.5,63,428.3,65.3,427.5z"/>
	<path class="st107" d="M104.1,377.2c-2.6,0.5-3.3-1.2-4-3.3c-0.8-2.4,1.5-2,2.3-2.8c1.4-1.6,3.5-0.9,5.3-1.2
		c1.6,1.2,0.2,1.8-0.5,2.7C106.1,374.1,105.1,375.7,104.1,377.2z"/>
	<path class="st108" d="M457.4,506.5c-1.5,0.3-3.1,0.6-4.6,0.8c-1.1,0.1-2.5,0.8-2.9-1c-0.3-1.5,0.5-2.5,2-3c2.5-0.8,5-1.7,7.7-1.3
		C458.9,503.5,459,505.4,457.4,506.5z"/>
	<path class="st109" d="M97.1,406c0.2,5.8,1,11.8-3.1,16.8c-0.1-2.9-0.5-5.9,0-8.8C95.5,411.5,94.1,407.9,97.1,406z"/>
	<path class="st110" d="M457.4,506.5c1.4-1.2-0.8-4.1,2.1-4.5c1.2,0,2.5-0.4,3.5,0.1c1.6,0.7,1.4,2.4,1.3,3.8
		c-0.1,2.3-1.7,0.8-2.6,0.8C460.3,506.7,458.8,506.5,457.4,506.5z"/>
	<path class="st111" d="M65.3,427.5c-1.1,1.6-2.7,2.9-3.2,4.9c-1-1.7-5.4-1.9-2.5-5.3C62.5,423.5,62.5,423.6,65.3,427.5z"/>
	<path class="st112" d="M230.5,57.8c2.9,1.3,1.4,4.7,3,6.6c0.7,1,2.2,1.6,1.4,3.2c-1.1,0.8-2.5-0.4-3.6,0.6
		C230.3,64.8,228.5,61.5,230.5,57.8z"/>
	<path class="st113" d="M431.8,430.8c-1.4-1.2-2.9-2.3-4.3-3.5c0.2-1.2,0.4-3,1.5-2.8c2.1,0.3,3.6,2.2,4.7,3.8
		C434.4,429.5,432.7,430.3,431.8,430.8z"/>
	<path class="st114" d="M181.7,619.1c0.6-1.4,3.1-0.2,3.1-2.3c1.9-0.2,3.9-0.8,5.5,0.8c0.3,0.3,0.3,1.2,0,1.5
		c-1.6,1.5-3.7,0.7-5.6,0.8C183.8,619.9,182.8,619.4,181.7,619.1z"/>
	<path class="st115" d="M31.7,502c1.2,1.5-0.1,3-0.2,4.5c-1.2,0-2.7,1.1-3.6,0c-0.8-1-0.5-2.6,0-3.7C28.7,501,30.3,501.9,31.7,502z"
		/>
	<path class="st116" d="M184.8,351.7c0,1.5,0,3.1,0.1,4.6c-1.6,0-3.8,1.1-3.8-2.1C181.2,351.6,182.4,350.9,184.8,351.7z"/>
	<path class="st117" d="M350.2,160.9c-3.9-0.9-7.6-2.2-11.3-3.8c2.6,0,5.3,0,7.9,0C346.7,159.5,349.7,159.1,350.2,160.9z"/>
	<path class="st92" d="M397.9,291.8c-1.1-0.1-2.5,0-2.5-1.4c0-1.3,1.3-1.7,2.3-1.4c0.9,0.2,2.4,0.1,2.5,1.5
		C400.3,292.2,398.8,291.7,397.9,291.8z"/>
	<path class="st4" d="M273.5,694.3c0.1,3.9,0.1,7.8,0.2,11.7C272.1,702.1,272.4,698.2,273.5,694.3z"/>
	<path class="st36" d="M418.9,218.5c-0.4,2,1.6,2.5,2.4,3.8c-0.7,1.6-2.3-0.2-3,0.9C418.7,221.7,417.1,219.8,418.9,218.5z"/>
	<path class="st118" d="M362.2,395.6c-1.8,0.8-2.8,1.8-2,4c0.4,1.2,0.3,2.6,0.5,3.9c0.7,1.5,0.7,3.3,0.3,4.7c-1.7,6,0.2,12-0.6,18.1
		c-0.7,5.7-0.1,11.6-0.1,17.4c-0.1,15.5-0.2,31,0,46.5c0.1,8.4-0.5,16.9,0.7,25.3c-0.1,3.4-0.5,6.8-0.9,10.2
		c-0.6,5.5-3.4,9.9-7.7,13.4c-1.8,1.4-3.8,2.4-6.2,1.1c-2.2-1.1-4.6-1-7-1c-23.9-0.1-47.8-0.4-71.7,0.1c-22.3,0.5-44.5-2.7-66.8-2.2
		c-13.4,0.4-26.8,0.1-40.2,0c-1.8,0-4.1,0.7-5.2-1.8c1.7-2,4.1-1.6,6.3-1.6c13.3-0.1,26.5-0.2,39.8,0c9.4,0.2,18.8-1.1,28.2-0.9
		c1.8,0,3-0.7,4.1-2c1.1-1,2.4-1.6,3.7-2.3c5-2.9,7.7-7.2,7.7-13c0-8,0.1-15.9,0-23.9c-0.1-8.1-5.3-13.8-13.3-14.6
		c-1.7-0.2-3.4-0.2-5.2-0.2c-23.6,0-47.3,0-70.9,0c-10.7,0-14.1,2.4-18,12.6c-0.3,0.9-0.6,1.8-1.7,2.1c-1.4-0.7-1.6-2-1.8-3.3
		c-0.1-0.8-0.1-1.6-0.1-2.4c0.4-22.7-1.4-45.4-0.9-68.2c0.1-4.1,0.4-8.2,1.1-12.3c1.7-10.8,9.8-17.7,20.7-17.7
		c35.6-0.1,71.3,0,106.9,0c0.8,0,1.6,0,2.4,0.1c1.7,0.4,3.4,0.3,5.2,0.3c23.4,0,46.7,0,70.1,0c1.9,0,3.7-0.1,5.6,0.2
		c0.7,0.2,1.5,0.3,2.2,0.6c6.6,3.3,10.3,8.3,10.3,16c-0.1,35.4,0,70.7,0,106.1c0,1.9-0.2,3.8,0.6,5.6c-1-1.9-0.6-3.9-0.6-5.9
		c0-35.2-0.1-70.4,0-105.7c0-7.6-3.6-12.5-9.8-15.9c-3.2-1.6-6.5-1.9-10-1.9c-11.9,0.1-23.9,0.2-35.8,0c-16-0.3-32.1-0.4-48.1-0.5
		c-2,0-4,0.2-5.6-1.4c0.5-3.3-0.5-4.4-4-4c-1.9,0.2-3.8,1.5-5.8,0.2c0.1-0.3,0.2-0.7,0.3-0.7c6.5-0.3,13-2.1,19.3-0.9
		c4.2,0.8,8.4,3.4,12.5,2c7.6-2.5,14.7-2.3,22.2,0c2.6,0.8,5.3-0.2,8.1-1.7c3.2-1.7,7.8-1.3,11.3-0.2c4.7,1.5,9,1.1,13.7,0.5
		c7.2-0.9,14.4-2.2,21.6-1c0.1,0,0.3,0,0.4,0c1.5,0.3,3.8-1.8,4.2,0c0.6,2.3-2.4,2.5-4.1,3.5c-0.1,0.1-0.1,0.2-0.2,0.4
		c0.7,1.4,1.6,2.1,3,0.9c0.8-0.7,1.6-1.3,2.7-1.6c2.1-0.7,4.4-1.4,5.9,0.6c1.1,1.7-0.3,3.5-1.3,5c-0.7,1-2.2,2-1.2,3.4
		c0.9,1.3,2.2,0.2,3.3,0C364.6,390.8,361.5,394.3,362.2,395.6z"/>
	<path class="st119" d="M347.1,540.2c6.9-1.9,11.9-8.6,12.1-16.6c0-2.5,0.3-4.9,0.7-7.4c0.5-1,1.1-1.7,2.3-0.9
		c1.7,12.7,2.5,23.2-11.2,30.3c-4.4,2.4-9.1,3.3-14.1,3.3c-28.2-0.1-56.3,0-84.5,0c-3.3,0-6.6-0.6-9.9-0.4
		c-23.6,0.9-47.1,0.2-70.7,0.4c-1.8,0-3.7,0.1-5.2-1.4c-6.9-0.7-13.8,1-20.7-0.9c-10.8-2.9-17-11.5-16.3-22.7
		c0.2-2.9-0.4-5.7,1.1-8.4c1.9,0.5,2,2.2,2.3,3.7c0.5,2.5,1.2,5,2.1,7.5c3.2,8.1,9.4,12,17.9,12.9c9-0.1,18,0,27.1-0.1
		c13.4-0.1,26.8,0.7,40.2,0.2c7.4-0.2,14.9-0.6,22.3,0.4c1.8,0.3,3.7,0.2,5.6,0.2c28.8,0,57.7,0,86.5,0.1
		C338.6,540.2,342.8,538.8,347.1,540.2z"/>
	<path class="st120" d="M134,527.3c-2.1-3.7-1.7-8.1-3.4-11.8c0-31.9,0.1-63.8,0.1-95.8c0-5,0-10.1,0.6-15.1
		c1.3-10,9.6-18.1,19.8-18.6c29.1-1.2,58.2-0.6,87.4-0.4c3.2,0,6.4-0.2,9.6-0.3c11.8,0.1,23.6,0.1,35.5,0.2
		c19.5,0.2,39.1,0.4,58.6,0.5c2.4,0,3.8,1.7,5.7,2.4c0.2,0.8,0,1.1-0.8,0.9c-0.5-0.1-1-0.1-1.5-0.2c-0.9-0.4-1.8-0.3-2.7-0.3
		c-25.3,0-50.6,0-75.9,0c-0.9,0-1.9-0.1-2.7,0.3c-36.9,0-73.9,0.3-110.8-0.1c-8.9-0.1-17,9.6-17.7,16.9c-0.4,4-0.7,8-0.6,11.9
		c0.2,23.3,0.5,46.5,0.7,69.8c0,1.3-0.3,2.7,0.6,3.9c0.9,0.5,1.3,1.4,1.4,2.3c0.3,7.2,1.1,14.5-0.5,21.6c-0.5,0.6-1.2,1.4-1.7,0.2
		c-0.5-1.2-0.4-2.5,0-3.8c-1.4,3.3,1.9,5.8,1.4,9c-0.1,1.3,0.4,2.6,0.4,3.8C136.9,526.4,136.6,528.2,134,527.3z"/>
	<path class="st121" d="M166.5,547.4c25.3,0,50.5,0,75.8,0c0.7,1.3,1.8,0.5,2.8,0.7c3.7,0.7,4.4,2.4,2.1,5.5
		c-14.7,0-29.4-0.5-44.1,0.2c-13.2,0.6-26.5,0.3-39.7,0.5C165.5,552.6,164.1,549.1,166.5,547.4z"/>
	<path class="st122" d="M122.4,380.6c0.6-0.5,1.1-1.1,1.7-1.6c1.9-0.4,3.8-0.6,5.8,0.3c3.7,1.7,5.5,5.7,4,9.2
		c-1.3,3.1-6.1,5.2-8.9,3.8c-3.8-1.8-5.2-5.7-3.4-9.6C121.8,382,122.1,381.3,122.4,380.6z"/>
	<path class="st123" d="M142.6,375.9c2.2,0,2.9,1.5,2.8,3.1c-0.1,1.8-0.6,3.8-3.1,3.8c-2.1,0-2.9-1.5-3-3.4
		C139.2,376.9,140.8,376.2,142.6,375.9z"/>
	<path class="st124" d="M367.8,376.4c0.8,0.8,1.5,1.7,2.3,2.5c0.1,1.9,2.3,2.8,2.5,4.7c-0.7,2.2-1.6,0.6-1.9,0c-1.1-2-3-3.2-4.5-4.7
		C366.7,378.1,367.2,377.3,367.8,376.4z"/>
	<path class="st125" d="M126.6,402c0.2,2-1.6,1.5-2.7,1.8c-1.2,0.4-1.3-0.5-1.3-1.3c0-1.5,0.4-2.7,2.1-2.8
		C126.1,399.7,126.6,400.6,126.6,402z"/>
	<path class="st126" d="M125.9,407.9c0,1.1-0.2,1.8-1.3,1.8c-1.2,0-1.5-1-1.6-1.9c-0.1-1,0.5-1.7,1.6-1.7
		C126,406.2,125.8,407.3,125.9,407.9z"/>
	<path class="st121" d="M157.8,554.5c-3.7,1.5-7.5,0.5-11.2,0.7C150.3,553.7,154.1,554.8,157.8,554.5z"/>
	<path class="st127" d="M247.2,553.7c1-4.3,0.9-4.3-6.4-5.1c0.5-0.4,1-0.8,1.5-1.2c19.4-0.1,38.8-0.2,58.2-0.2
		c13.3,0,26.6,0.1,39.9-0.1c3.5,0,7-1.1,10.5-1.6c-1.1,1.8-2.9,2.6-4.8,3.3c-0.6,0.2-1.4,0.3-1.8,0.8c-5.1,6.4-12.6,3.5-18.6,3.7
		C299.6,554.1,273.4,553.7,247.2,553.7z"/>
	<path class="st128" d="M362.2,515.3c-0.8,0.3-1.6,0.6-2.3,0.9c-0.9-37.6-2-75.1,0.8-112.7c1.1,1.3,0.7,2.8,0.7,4.2
		c0.1,33.9,0.1,67.8,0.1,101.6C361.4,511.4,361.5,513.4,362.2,515.3z"/>
	<path class="st129" d="M119.5,311.9c-1-1.7-2.5-3.1-3-5.1c2.2-0.1,2.2-1.5,1.7-3.1c-1.8-6.4-1.7-12.9-1.7-19.4
		c0-28.2,0.4-56.4-0.2-84.6c-0.5-22.6,17.2-36.2,36.8-36.2c38.4,0,76.9,0,115.3,0c24.7,0,49.5-0.1,74.2-0.2c3.3,0,6.6,0.1,9.8,1.2
		c1.1,0.4,2.3,0.9,3.3-0.3c10.8,7.4,17.3,17.4,17.7,30.8c0.3,10.6,1,21.2,0.6,31.8c-1,22.5,0.2,44.9-0.8,67.4
		c-0.5,11.1-10.8,23.4-23.7,23.6c-41.5,0.9-83,0.4-124.5,0.2c-13.1-0.1-26.3-0.7-39.4-0.3c-10.6,0.3-21.2,0.5-31.9,0.4
		c-5.8,0-11.8,0.1-17.5-0.9c-4.5-0.8-8.5-3.5-11.5-7.2c-1.4-1.7-2.8-3.4-4.5-5.5C119,307.3,121.8,309.9,119.5,311.9z"/>
	<path class="st130" d="M132.5,694.1c-2.9,0-5.1-2.3-5-5.4c0-3.3,2.3-4.3,4.9-4.6c2.5-0.3,5.2,2.7,5.2,5.5
		C137.5,692,135.3,694.1,132.5,694.1z"/>
	<path class="st131" d="M166.8,679.8c2.4,0,3.3,1.4,3.4,3.3c0.1,1.8-1.1,3-2.9,3c-2,0-3.2-1.1-3.1-3.2
		C164.3,681.2,165,679.9,166.8,679.8z"/>
	<path class="st132" d="M295,689.6c0.1,3.2-2.8,6.2-5.9,6.2c-3.4,0-6.6-3.1-6.7-6.5c-0.1-2.7,3.3-6,6.3-6.1
		C292,683.1,295,686.1,295,689.6z"/>
	<path class="st133" d="M325.3,679.8c2.1,0.2,3.2,1.2,3.3,3c0.1,2.2-1.2,3.2-3.1,3.3c-1.7,0-2.6-1.2-2.5-2.9
		C323,681.4,323.5,680,325.3,679.8z"/>
	<path class="st134" d="M22.8,531.4c-2,0.1-3.1-0.9-3.1-3.1c-0.1-2.1,1-3.2,3.1-3.3c2.2-0.1,3.9,0.9,3.9,3.1
		C26.7,530.1,25.2,531.4,22.8,531.4z"/>
	<path class="st135" d="M397.5,223.9c-2.1-0.1-3.6-1.6-3.6-4.8c0.1-2.9,1.3-4.9,4.2-5.3c2.2-0.3,5.1,2.9,4.9,5.3
		C402.9,221.9,401.7,224.1,397.5,223.9z"/>
	<path class="st136" d="M87.6,218.8c0.6-2.7,2.1-4.8,5.2-4.9c2.8-0.1,4.8,2.8,4.4,6c-0.3,3.1-2.2,4.4-5.2,4.2
		C88.9,223.8,87.7,221.8,87.6,218.8z"/>
	<path class="st137" d="M235,67.6c-0.5-1.1-1-2.2-1.4-3.2c0.3,0,0.7,0,1-0.1c2.4,3.8,5,7.2,10.3,6.5c0.9-0.1,1.5,0.5,1.5,1.5
		C241.9,72.3,237.8,71.6,235,67.6z"/>
	<path class="st138" d="M193.8,467.5c-11.7,0-23.4-0.4-35.1,0.1c-10.6,0.5-15.5-7.5-17.1-14.5c-1-4.6-0.4-9.3-0.5-13.9
		c0-7.2,0.6-14.4,0-21.5c-0.8-9.5,5.2-18.8,18.7-18.7c17.2,0.1,34.3,0.1,51.5,0.1c7.2,0,14.4-0.2,21.5,0.4
		c8.3,0.7,14.7,6.7,14.9,14.9c0.4,12.9,0.9,25.8-0.4,38.6c-0.9,9.3-7.3,14.4-16.5,14.4C218.5,467.5,206.2,467.5,193.8,467.5z"/>
	<path class="st139" d="M136.2,516.1c0-8.2-0.1-16.4-0.1-24.5c1.2-10.9,6.7-16,17.7-16c25.1-0.1,50.3,0,75.4,0
		c4.4,0,8.4,0.8,11.8,3.9c3.6,3.3,5.6,7.2,5.5,12.3c-0.2,7.7-0.1,15.4-0.2,23.1c-0.1,9-3.4,13.5-12,16.6c-1.8,1.1-3.7,1.4-5.7,1.4
		c-25.1,0-50.2,0.1-75.2-0.1C142.9,532.7,136.7,526.5,136.2,516.1z"/>
	<path class="st140" d="M265.6,442.7c-3.6-14.1-1.4-27.3,8.5-37.9c17-18.2,41.8-20.1,58.9,1.3c8.7,10.9,9.9,23.3,7.5,36.5
		c-4.1,13.5-13.5,22.3-26.4,26.6c-8,2.6-16.7,2.1-24.7-1.2c-10.1-4.2-18.4-10.6-22.8-21.1C266.1,445.6,265.7,444.2,265.6,442.7z"/>
	<path class="st141" d="M134,527.3c1.8-0.3,2.4-1.3,1.8-3c-0.4-1.1-0.5-2.3-0.3-3.4c2,0.3,2.1,2.2,2.6,3.6c2.2,6.2,6,10.1,13.2,9.7
		c1.4-0.1,3-0.2,4,1.3c1.7,1,3.6,0.6,5.5,0.6c21.3,0.1,42.6-0.9,63.8,0.4c38.7,2.3,77.3,0.5,115.9,1.5c2.3,0.1,5.2-0.7,6.6,2.3
		c-3.9,1.7-8.1,1.3-12.2,1.3c-38.3,0.2-76.5,0.5-114.8-0.7c-1-0.3-1.8-1.2-2.9-1.1c-21.7,0.3-43.4-1.5-65.1,0.1
		c-0.3,0-0.5,0.2-0.7,0.3C142.6,539.9,137.4,534.9,134,527.3z"/>
	<path class="st142" d="M318.3,518.6c-10.6,0.1-19.2-8.3-19-18.8c0.1-10.6,9.7-18.6,19.5-18.7c9.1,0,17.8,9,17.8,18.5
		C336.6,510.2,328.6,518.5,318.3,518.6z"/>
	<path class="st143" d="M252.8,499.7c0.1-10,8.8-18.7,18.5-18.6c9,0.1,17.6,9.4,17.4,18.9c-0.3,10.1-8.6,18.7-18,18.5
		C261.3,518.4,252.7,509.3,252.8,499.7z"/>
	<path class="st144" d="M265.6,442.7c4.2,9.1,10.1,16.5,19,21.6c12.2,7,32.2,7.6,44.2-5.3c4.6-5,8.8-10.1,11.7-16.3
		c-0.4,9.2-4.6,16.7-11.2,22.5c-11,9.8-24,12.7-38.1,8.5c-14.6-4.3-23-14.5-26.1-29.2C265,444,265.4,443.4,265.6,442.7z"/>
	<path class="st145" d="M155.3,535.4c-0.9,0-1.9-0.1-2.8,0c-10.5,0.8-13.6-4.7-15.9-12.1c-0.3-0.9-0.7-1.7-1-2.5
		c-0.2-3.3-1.1-6.5-0.5-9.8c0.9,1.6-0.4,3.7,1.2,5.1c1.5,2.5,1.8,5.4,3.4,7.9c3.3,5.1,7.6,7.4,13.6,7.4c26-0.1,52,0,78,0
		c1.1,0,2.1,0,3.2,0.1c-0.9,2.9-3,3-5.6,3.2C204.3,535.8,179.8,535.1,155.3,535.4z"/>
	<path class="st146" d="M331.8,473.6c0.1-5,3.6-8.5,8.5-8.4c5,0,9.9,4.9,9.7,9.6c-0.2,4.5-4.9,8.7-9.7,8.6
		C335,483.3,331.7,479.5,331.8,473.6z"/>
	<path class="st147" d="M346.9,389.3c0.3-0.3,0.6-0.6,0.8-0.9c6,2.3,10.4,8.9,10.4,16c0,34.1,0,68.1,0.1,102.2c0,3.9,0,7.7,0,12.1
		c-1.7-3.2-1.6-6.1-1.6-8.9c0-34.3-0.3-68.6,0-102.9C356.7,398.7,354.2,392.9,346.9,389.3z"/>
	<path class="st147" d="M264,389.1c1.1-1.1,2.5-0.7,3.8-0.7c24.6,0,49.2,0,73.8,0c1.3,0,2.7-0.3,3.8,0.7
		C318.3,389.1,291.1,389.1,264,389.1z"/>
	<path class="st148" d="M339.8,518.7c3-2.6,5.1-0.8,6.7,1.6c1.7,2.5,0.7,6-1.8,7.2c-1.7,0.8-3.1,0.5-3.3-1.7
		C341.6,523.3,341.8,520.7,339.8,518.7z"/>
	<path class="st149" d="M339,398.9c-1.4-2.1-1-4,1.1-5.3c1.3-0.8,3-0.6,3.8,0.8c1.2,2,1.5,4.2-0.7,5.9
		C341.5,400.8,340,400.4,339,398.9z"/>
	<path class="st150" d="M258.4,466.6c1.9-2.6,3.2-0.4,4.3,0.8c1.7,1.7,1.9,3.8-0.1,5.6c-1.3,1.1-2.6,2.6-4.6,0.9
		c-0.1-0.1,0.1-0.5,0.2-0.7C258.9,471,258.1,468.8,258.4,466.6z"/>
	<path class="st151" d="M339.8,518.7c3.8,1.7,4,2.7,1.6,7.1c-1.6-0.1-3.2-0.3-3.8-2.1C336.9,521.3,338.4,520,339.8,518.7z"/>
	<path class="st152" d="M258.4,466.6c2.5,2.2,2.7,4.4-0.1,6.6c-2.4,0-3.7-1.2-3.7-3.5C254.8,467.4,256.3,466.6,258.4,466.6z"/>
	<path class="st153" d="M339,398.9c1.4,0.5,2.8,0.9,4.2,1.4c-0.3,1.9-1.5,3-3.3,2.4C338,402,337.8,400.5,339,398.9z"/>
	<path class="st154" d="M151.4,540.1c-0.5-1.3,0.1-1.5,1.3-1.6c13.1-1.3,26.2-0.6,39.3-0.5c7.9,0.1,15.8,0.6,23.7,0.4
		c2.5-0.1,3.6,0.5,4.5,2.5c-22,0-44-0.1-66-0.1C153.2,540.7,152.3,540.3,151.4,540.1z"/>
	<path class="st155" d="M136.9,234.4c-0.7-25.5,18.9-47.3,46.4-47.5c25.4-0.1,47.4,19.3,47.4,47.9c0,26.8-19.3,46.6-47.2,46.8
		C158.2,281.6,136.7,261.5,136.9,234.4z"/>
	<path class="st156" d="M355.1,234.2c0.5,23.9-17.7,46-45.1,47.1c-25.4,1-48.1-17.3-48.6-46.5c-0.4-22,16-46.9,45.6-47.9
		C332.7,186.1,355.2,207.1,355.1,234.2z"/>
	<path class="st157" d="M246.3,300.6c-9.2,0-17.2-5.3-19.4-12.9c-1.2-4.3,0.5-7.8,3.9-7.8c2,0,3.4,0.8,3.6,2.9
		c0.5,5.5,4.3,7.6,8.9,8.8c7.8,2,13.9-1.4,16-8.8c0.5-1.7,1.5-2.8,3.4-2.8c1.7,0,3.1,0.4,3.9,2.1c1.2,2.5,0.7,5-0.4,7.3
		C262.7,296.7,255.9,300.5,246.3,300.6z"/>
	<path class="st158" d="M157.8,296.8c0,5.6-5.6,11.5-11,11.7c-6,0.2-12-5.7-12.1-11.9c-0.1-6.3,5.7-12,12-11.8
		C152.5,285,157.9,290.8,157.8,296.8z"/>
	<path class="st159" d="M333.2,296.3c0-5.9,5.3-11.4,11.1-11.4c5.8,0,11.4,5.7,11.5,11.6c0.1,6.1-4.9,11.8-10.5,12
		C339.1,308.8,333.3,302.8,333.2,296.3z"/>
	<path class="st160" d="M127.5,191.1c-0.7-0.6-1.4-1.2-2.1-1.7c-2.7-2.3-3.7-5.4-2.4-8.5c1.2-2.8,3.7-5,7.1-4.6
		c3.7,0.4,5.9,2.7,6.7,6.3c0.2,1,0.2,2.1,0.2,3.2c1.2,3-1.2,4.4-3,5.7C131.9,192.8,129.6,193,127.5,191.1z"/>
	<path class="st161" d="M352.7,188.8c-1.1-2.3-2.2-4.5-1.2-7.2c1.3-3.3,5.1-5.4,7.9-4.4c4,1.3,6.2,5.3,5.2,9.4
		c0,3.6-2.4,5.2-5.4,5.7C356.5,192.7,353.7,192.3,352.7,188.8z"/>
	<path class="st162" d="M127.5,191.1c5.5,0.6,7.4-0.4,9.6-5.4c2.4-0.2,2.6,1.3,2.3,3.1c-0.7,3.8-6.5,6.9-10.1,5.6
		C127.4,193.7,128.2,192.1,127.5,191.1z"/>
	<path class="st163" d="M352.7,188.8c5.1,4,8.2,3.4,12-2.3c1.6,2.3,0.8,4.2-0.9,6c-2.5,2.6-5.7,2.7-8.6,1.5
		C353.6,193.2,351.2,191.6,352.7,188.8z"/>
	<path class="st164" d="M250.3,187.1c3.4-0.4,3.7,2.5,3.9,4.4c0.3,3.3-2.4,4.8-5.2,5.2c-1.1,0.2-3.7,1.5-3.4-1.8
		c0.3-0.3,0.5-0.5,0.8-0.8C249.5,192.8,249.6,189.8,250.3,187.1z"/>
	<path class="st165" d="M246.4,194.9c-0.3,0-0.6,0-0.9,0c-4-2.9-4.8-4.9-2.9-7.5c2-2.8,4.4-2.9,7-0.3
		C247.6,189.3,246,191.7,246.4,194.9z"/>
	<path class="st166" d="M246.4,194.9c-2.4-3.7-1.3-6.2,3.3-7.8c0.2,0,0.4,0,0.6,0C251.6,192,251,193.1,246.4,194.9z"/>
	<path class="st167" d="M239.9,415.5c0.1,11.8,0.2,23.6,0.1,35.5c0,4.6-3.7,8.5-8.3,8.5c-24.9,0.1-49.7,0.1-74.6,0
		c-3.6,0-6.2-2-7.3-5.6c1.5-2.2,1.7-4.7,1.7-7.2c0-7.7-0.1-15.4,0.1-23.1c0-1.8-0.7-4.4,2.5-4.5c0.9,1.1,1.1,2.4,1.1,3.7
		c0,8.4,0.3,16.8-0.1,25.2c1,4.6,1.5,5.2,5.9,5.2c22.3,0.1,44.6,0.1,66.9,0c3,0,5.3-0.7,5.8-4.1c0.8-10.3-0.5-20.5,0.3-30.8
		c0.1-1.2,0-2.4,0.7-3.4C236.7,413.4,238.4,413.3,239.9,415.5z"/>
	<path class="st168" d="M153.7,418.7c-1.2,3.8-0.5,7.6-0.6,11.4c-0.1,6.4,0,12.7-0.1,19.1c0,2.1-0.1,4.5-3.2,4.6
		c-1.3-1.7-1.2-3.8-1.1-5.8c0-11,0-22.1,0.2-33.1c0.1-4.9,3.8-8.3,9.2-8.3c19.9-0.1,39.9-0.1,59.8-0.1c4.5,0,9-0.1,13.6,0.1
		c4.7,0.2,8.1,3.8,8.4,8.7c-1.3-1.3-3-0.5-4.5-0.7c-6.3-3.3-13.1-2.5-19.8-2.5c-15.4,0-30.8,0.1-46.2-0.1
		C163.1,412.1,157.1,412.1,153.7,418.7z"/>
	<path class="st169" d="M239,492.9c0.1,7.3,0.2,14.6,0.2,21.9c0,5.1-2.7,8.4-7.8,8.7c-7.9,0.4-15.9,0.4-23.9,0.4
		c-16.6,0-33.2-0.5-49.8-0.1c-4.1,0.1-9,1.2-11.8-3.7c0.4-1.8,1.7-3,3.4-2.6c6.2,1.4,12.4,0.3,18.5,0.7c0.3,0,0.7,0.2,0.8,0
		c0.5-0.5,1.7,1.6,1.6-0.5c1.4-3,1.2-6.2,1.2-9.4c0-5,0-10.1,0-15.1c0-1.5,0.1-2.9,1-4.2c2.1-1.6,4.4-2.3,6.9-0.9
		c1.3,3.8,0.3,7.6,0.5,11.4c0.2,4.4,0,8.7,0.1,13.1c0.1,2.9,1.5,4.3,4.4,4.4c4.4,0.1,8.7,0,13.1,0c2.8,0,4.1-1.3,4.1-4.1
		c0.1-6,0-11.9,0.1-17.9c0-2.1-0.2-4.3,1-6.2c2-2.2,4.4-2.4,6.9-1c1.2,1.4,0.8,3,0.8,4.6c-0.2,6.2-0.3,12.5,0,18.7
		c0.3,5.3,1,5.9,6.2,6c3.2,0,6.4,0.1,9.6-0.1c4.8-0.3,5.8-1.3,5.9-6c0.1-4.5,0-9,0-13.5c0-1.8-0.1-3.7,0.8-5.5
		C235.3,490.2,237.1,491.8,239,492.9z"/>
	<path class="st170" d="M209.8,488.3c-2.1,0.1-4.3-0.4-6.3,0.7c-8-1.7-16-0.7-24.1-0.7c-2.1,0.2-4.2,0.4-6.3,0.6
		c-4-1-8.1-0.7-12.1-1c-5.5-0.4-9.8,1-12.9,5.7c-1.4,0.7-2.7,0.5-3.9-0.6c-1.3-4.9,1.8-9.9,6.7-10.4c3-0.4,6.1-0.5,9.1-0.5
		c23-0.1,45.9-0.1,68.9-0.1c6.3,0,10.4,4.6,10.1,11c-1.9,0.2-3.9,0.5-5.1-1.5c-6.1-5.1-13.3-3.2-20.2-3.2
		C212.4,488.2,211.1,488.9,209.8,488.3z"/>
	<path class="st171" d="M144.2,493c1.3,0,2.6-0.1,3.9-0.1c2.3,2.1,2.1,5,2.3,7.8c0.2,3.8-0.1,7.7,0.2,11.5c0.3,3.9,1.2,4.8,5.1,4.9
		c3.3,0.1,6.6,0,9.9,0.1c1.7,0,3.5-0.1,4.8,1.3c0.1,0,0.3,0,0.4,0.1c0.1,0.2,0.2,0.4,0.3,0.5c-1.1,0.1-2.3,0.3-3.4,0.2
		c-6.1-0.5-12.3,1.1-18.4-0.9c-1.4-0.5-2.3,1.1-3.4,1.7c-1.4-1.2-1.8-2.9-1.8-4.6C144.2,508,144.2,500.5,144.2,493z"/>
	<path class="st172" d="M332.8,423.4c5.1,16.2-7.5,34.8-24.3,37c-11,1.5-19.8-1.3-27.4-8.9c-1.5-1.5-3-3-3.6-5.2
		c-0.8-2.1-1.8-4.1-2.7-6.1c-0.3-0.8-0.4-1.6,0.4-2.1c0.9-0.6,1.5,0.2,1.9,0.8c1.3,1.6,2.4,3.5,3.3,5.4c0.7,1.4,1.5,2.1,3,1.4
		c1.9,0.2,2.9,1.7,4.3,2.8c13.4,10.6,31.5,6.2,38.4-9.5c0.5-1.1,0.9-2.2,1.9-3c1.8-0.5,1.9-1.9,1.8-3.4
		C329.7,429.1,330.9,426.2,332.8,423.4z"/>
	<path class="st173" d="M332.8,423.4c-0.1,4-2.6,7.6-1.9,11.8c0.2,1.1-0.8,2.4-2.3,0.9c-1.5-1.5-1.1-3.5-1-5.3
		c0.3-13.1-7.9-23.1-21.3-24.8c-10.6-1.4-22.3,5.1-26,17.7c-1.9,6.5-0.9,12.6,1.9,18.5c0.6,1.2,1.4,2.3,1.1,3.7
		c-0.7,1.7-1.7,2.4-2.9,0.4c-1.5-2.6-2.9-5.2-4.9-8.7c0.1,3.8,2.2,6,2.2,8.7c-1.9-2.2-3.1-4.7-3.7-7.6c-0.1-7.1-0.6-14.2,2.9-21
		c6.8-13,19.3-19.3,33.5-16.3c5.7,1.2,10.5,4.4,14.5,8.6c1.2,1.2,2.2,2.7,4.1,2.9C331,416.2,332.4,419.6,332.8,423.4z"/>
	<path class="st174" d="M328.8,413.1c-2.2,1.5-3.3-0.3-4.6-1.6c-10.9-11.1-23.9-13-36.9-4.4c-7,4.7-11.6,11.8-12.4,20.6
		c-0.3,3.7-0.9,7.3-1.3,11c-6.4-18,8.4-39.2,27.8-40C313.5,398.3,322.3,403.5,328.8,413.1z"/>
	<path class="st175" d="M327.1,493c3.5,4,2.9,8.3,0.7,12.5c-2,4-5.6,6.1-10,5.8c-5.1-0.3-8.9-3-10.6-8.1c0.7-3.5,3-2.5,5.2-1.9
		c1.5,0.6,2.1,2.4,3.8,2.8c1.9,0.5,3.8,0,5.3-1.2c1.6-1.3,1.1-3.1,0.7-4.8c-0.5-2.2-2.6-3.3-3.6-5.2c-0.2-2.2,1.3-2.2,2.8-2.2
		C323.6,490.7,325.4,491.9,327.1,493z"/>
	<path class="st176" d="M312.1,501.8c-1.5,0.9-3.8-1.1-4.8,1.4c-1.6-8.1,0.6-13,6.6-15.3c4.6-1.7,11-0.6,13.2,5
		c-2.1-0.4-4.2-0.7-6.3-1.1c-1-0.2-1.8-0.3-1.7,1.1c0.1,0.4,0.1,0.9-0.3,1.1C315,495.4,313.6,498.6,312.1,501.8z"/>
	<path class="st177" d="M261.1,504.2c-3.2-9.3,1.7-17.2,10.6-16.7c4.7,0.2,7.6,3.1,9.2,7.4c0.8,2.5-0.4,3.1-2.6,2.6
		c-0.6-0.2-1.2-0.6-1.7-1c-2-1.6-4.1-3.2-6.7-1.8c-3,1.7-3.9,4.5-3.4,7.7C265.7,506.1,263,504,261.1,504.2z"/>
	<path class="st178" d="M265.6,502.5c-1.2-3.7-0.1-6.8,3.4-9c2.9-1.9,5.3-0.7,7.8,1.3c1.1,0.9,2.7,4.8,4.1,0c1,2.3,1.5,4.6,0.9,7
		c-1.3-0.5-2.5-0.7-3.6,0.6c-0.9,1-2,1.8-3.1,2.5C270.7,508,268.1,507.3,265.6,502.5z"/>
	<path class="st179" d="M265.6,502.5c5.3,4.6,6.6,4.6,12.1-1.4c2.2-2.4,3.1-2.1,4,0.7c-1,5.5-4.1,8.5-9.4,9.2
		c-4.8,0.7-8.8-1.8-11.2-6.8c0.5-1.3,1.3-1.8,2.6-1C264.5,503.6,265.4,504,265.6,502.5z"/>
	<path class="st180" d="M340.6,469.8c2.6,0.7,4.2,2.4,4.2,5.1c-0.1,2.5-1.5,4-4.1,3.7c-2.6-0.3-4.2-1.8-3.9-4.5
		C336.9,471.9,338,470.2,340.6,469.8z"/>
	<path class="st181" d="M221.6,242.5c-3.8,14.6-12.4,24.8-27.2,28.8c-21.2,5.8-43.4-7.6-48.2-28.9c1.1-2.4,0.7-4.9,0.8-7.4
		c0.7-19.4,13.7-32.5,28.9-36.2c17.1-4.1,35.9,6.9,42.5,24.5c1.9,5,3.5,10.1,2.2,15.5C220.3,240.2,220.8,241.4,221.6,242.5z"/>
	<path class="st182" d="M221.6,242.5c-3.3,0.7-2.3-1.9-2.2-3.2c1.3-12.9-4.1-23.1-13.4-31.2c-14.9-12.9-36-12-49.7,4.6
		c-5.9,7.2-8.2,15.6-8,24.8c0.1,2.1,0,4-2.2,5c-4.7-15,2.4-33,15.8-41.7c23-14.9,52.8-2.4,59.3,23.6
		C222.7,230.4,223.2,236.4,221.6,242.5z"/>
	<path class="st183" d="M345.3,245.5c-5.8,17.1-20.4,27.6-37.8,27.3c-15.9-0.3-30.8-11.4-35.4-26.6c0-5-0.3-10.2,0.3-15.1
		c1.5-12.1,7.9-21,18.1-27.7c16.9-11.1,37.3-3,47.3,10.6c6.6,8.9,9.1,18.8,7.4,29.7C345.2,244.2,344.9,244.8,345.3,245.5z"/>
	<path class="st184" d="M345.3,245.5c-1.5-2.6-0.7-5.4-0.7-8.1c-0.4-14.4-6.9-25.5-19.1-32.9c-20.4-12.4-40.7-0.5-48.5,15.5
		c-2.8,5.7-3.9,11.5-3.6,17.7c0.1,2.9,0.1,5.8-1.4,8.5c-6.4-14.9,0.4-36.9,16.3-46.3c22.9-13.5,53-0.7,58.4,27.6
		C347.9,233.4,347.1,239.5,345.3,245.5z"/>
	<path class="st185" d="M145.9,291c3.3-0.1,6.1,2.4,6.1,5.4c0,2.7-3.2,6.1-5.8,6.1c-2.6,0-5.5-3.1-5.6-5.8
		C140.6,293.7,143,291.1,145.9,291z"/>
	<path class="st186" d="M340.8,300.6c-2.3-1.7-2.3-4-1.3-6.3c0.9-2,2.4-3.4,4.9-3.3c2.7,0.1,4.4,1.3,5.1,3.9
		c0.2,0.5,0.4,1.4,0.1,1.4C346.2,296.8,344.2,300.2,340.8,300.6z"/>
	<path class="st187" d="M340.8,300.6c2.5-2.5,5.2-4.8,8.7-5.7c1.7,3,0,4.9-2.2,6.6C344.9,303.2,342.7,302.9,340.8,300.6z"/>
	<path class="st188" d="M153.7,418.7c0.6-5.6,2.6-7.7,8.5-7.8c16.6-0.1,33.3-0.1,49.9-0.1c5.2,0,10.4,0.1,15.6,0
		c3.4-0.1,5.9,1.1,7.7,3.9c-0.1,11.5,0.5,23-0.1,34.4c-1.5,0.8-3.1,0.7-4.7,0.7c-23.2,0-46.4,0-69.7,0c-2.3,0-4.8,0.4-6.9-1.3
		C153.9,438.6,153.8,428.6,153.7,418.7z"/>
	<path class="st189" d="M154,448.5c26.2,0,52.4-0.1,78.6-0.1c1,0,1.9,0.1,2.6,0.8c0.3,3.9-1.7,5.5-5.5,5.5c-23.5,0-47,0-70.5-0.1
		C155.3,454.7,154.1,453.1,154,448.5z"/>
	<path class="st190" d="M179.4,488.3c1.8-1.3,3.7-1.8,5.9-1.7c4.4,0.1,8.7,0.1,13.1,0c2.1,0,3.9,0.4,5.1,2.3
		c-0.1,7.6-0.2,15.1-0.2,22.7c0,6.7,0,6.8-6.9,6.8c-4.4,0-8.8,0-13.2,0c-2.4,0-4.3-0.8-4.4-3.6c-0.1-8.4,0-16.7,0-25.1
		C178.8,489.3,179.2,488.8,179.4,488.3z"/>
	<path class="st191" d="M209.8,488.3c1.8-1.5,4-1.7,6.3-1.7c3.4,0.1,6.8,0.2,10.2-0.1c3.9-0.3,6.2,1.4,7.6,4.8
		c-0.1,7.3-0.3,14.6-0.2,21.9c0,3.5-1.7,4.9-4.7,5c-5.4,0.2-10.9,0.1-16.3,0.2c-1.9,0-3-0.9-3.1-2.8
		C209,506.5,208.4,497.4,209.8,488.3z"/>
	<path class="st192" d="M170.5,518.5c-5.2,0-10.4-0.3-15.5,0.1c-5,0.3-5.7-2.1-5.9-5.8c-0.4-6.1-0.4-12.2-0.6-18.3
		c0-0.5-0.2-1-0.2-1.6c1-3.9,3.3-6.2,7.5-6.2c3.8,0,7.7,0.1,11.5-0.1c2.4-0.1,4.4,0.4,6,2.3c-0.1,8.2-0.1,16.5-0.2,24.7
		C172.9,515.6,172.9,517.7,170.5,518.5z"/>
	<path class="st193" d="M283.1,446c-12-15.3-2.4-38.8,17.9-41.4c14.1-1.8,28.3,10.5,27.7,24.8c-0.1,2.2-0.1,4.5-0.2,6.8
		c-4.5,14.4-17,19.9-27.2,19.4C293.8,455.1,288.3,450.9,283.1,446z"/>
	<path class="st194" d="M312.1,501.8c0-5.7,0.6-6.6,7-8.8c4.1,1.4,4.8,4.7,4.9,8.5c0,2.9-2.1,2.8-3.9,3.6
		C316.2,506.8,313.8,505.1,312.1,501.8z"/>
	<path class="st195" d="M155.3,242.4c-1.1-7.1-1.7-14.2,1.6-21.1c5.4-11.6,16-18,28.8-17.3c11.3,0.6,22.5,10,26.5,21.2
		c2,5.7,0.8,11.3,0.6,16.9c0.6,3.1-0.9,5.6-2.2,8.1c-9.8,15.2-32.6,18.9-46.4,7.3c-3.7-3.1-6.3-7.1-8.5-11.4
		C155,245,154.8,243.8,155.3,242.4z"/>
	<path class="st196" d="M155.3,242.4c5.9,14.7,17.5,22.6,31.9,20.8c9.4-1.2,17.1-5.8,22.7-13.7c2.7,1.3,1.2,3.1,0.6,4.8
		c-12.8,17.1-33.8,18.2-49.5,4.9c-3.2-2.7-5.2-6.7-7-10.5C152.8,246.2,152.9,244.1,155.3,242.4z"/>
	<path class="st197" d="M210.4,254.3c-0.2-1.6,0.6-3.3-0.6-4.8c1-2.4,1.9-4.8,2.9-7.3C215.5,246.2,215,248.9,210.4,254.3z"/>
	<path class="st198" d="M279.1,233.7c1.1-18.2,14.6-29.8,29.9-29.5c12,0.3,21,6.6,26.3,17.6c0.7,1.5,1.4,3.1,2,4.7
		c3,8,2.2,15.6-2,22.9c-12.3,19-39.4,22.2-53.4-0.3C279.4,244.3,278.1,239.2,279.1,233.7z"/>
	<path class="st199" d="M283,248.8c12.5,19.2,36.2,19.9,50.4,1.5c0.2-0.3,0.5-0.5,0.8-0.8c1.7,0,2.5,0.6,1.5,2.3
		c-7,14.2-27.3,20.5-41.4,13.1c-4.9-2.6-8.9-6-12.1-10.6C282.3,252.5,279.3,250.2,283,248.8z"/>
	<path class="st200" d="M335.7,251.9c0.1-1.2-0.4-1.9-1.5-2.3c0.4-3.2,2.6-5.6,3.2-8.8c0.8-4.8,0.7-9.5-0.1-14.2
		c2.5,2.6,2.6,6.2,2.8,9.1C340.5,241.3,340,247.2,335.7,251.9z"/>
	<path class="st201" d="M283,248.8c-2.1,1.6,0.2,3.8-0.7,5.5c-5.8-6.1-4.5-13.4-3.3-20.6C278.7,239.2,281,244,283,248.8z"/>
	<path class="st202" d="M209,439.6c-0.8-0.5-1.7-0.8-2.3-1.4c-2.9-2.8-5.5-4.4-8.5,0c-0.4,0.6-1.9,0.6-2.9,0.8
		c-1.2,1-2.5,1.2-3.9,0.7c-1.6-0.6-3.6-0.9-4.7-2c-3.4-3.3-5.8-1.7-8.2,1c-1.8,1.7-3.7,1.7-5.6,0.1c-4.4-0.2-8.4-2.9-9.4-6.4
		c-1.5-5.5,0.2-10.4,4.9-13.6c3.4-2.4,9.1-2.5,12.2,0.4c2.5,2.3,3.9,2.2,6.4,0c4-3.5,9.3-3,13.3,0.7c1.1,1,1.9,2.8,3.7,0.7
		c3.5-3.9,8-4.3,12.4-2.2c4.2,2,6.2,6,6.1,10.8c0,0.3,0.1,0.5,0.1,0.8c0.8,3.9-2.3,8.2-7.1,9.6C213.4,440.2,211.2,440.5,209,439.6z"
		/>
	<path class="st203" d="M209,439.6c0.9-0.7,1.8-0.9,2.9-0.9c5.9-0.3,9-2.9,10.7-8.7c0.5-0.1,0.9-1.5,1.4-0.5c1.3,2.9-0.6,7.2-4.1,10
		c-3.1,2.3-8.7,3.2-10.8,1.6C208.8,440.8,209,440.1,209,439.6z"/>
	<path class="st204" d="M172.9,438.8c1.9,0,3.7-0.1,5.6-0.1c1.3,0.3,1.7,0.8,0.4,1.6c-3.1,1.9-6.3,2.2-9.5-0.1
		C170.5,439.1,172.1,439.9,172.9,438.8z"/>
	<path class="st205" d="M191.4,439.7c1.1-1.1,2.5-1.2,3.9-0.7c0.6,0.4,1.2,0.8,2.1,1.4C195.1,440.9,193,442.6,191.4,439.7z"/>
	<path class="st206" d="M190.8,502.4c-2,0-4,0-5.9,0c-0.9,0-1.6-0.3-1.7-1.2c-0.2-1.1,0.6-1.3,1.4-1.3c4.1-0.1,8.2-0.2,12.3-0.3
		c1,0,1.9,0.1,1.8,1.4c-0.1,1.3-1,1.4-2,1.4C194.8,502.4,192.8,502.4,190.8,502.4C190.8,502.4,190.8,502.4,190.8,502.4z"/>
	<path class="st207" d="M220.6,502.6c-2,0-4,0-6,0c-1.1,0-1.8-0.3-1.8-1.5c0.1-1,0.7-1.3,1.6-1.3c4-0.1,8-0.2,11.9-0.3
		c1,0,1.9,0.1,1.9,1.4c0,1.2-0.7,1.6-1.7,1.6c-2,0-4,0-6,0C220.6,502.5,220.6,502.5,220.6,502.6z"/>
	<path class="st208" d="M160.4,502.5c-1.9,0-3.7,0-5.6,0c-0.8,0-1.6-0.1-1.7-1.2c-0.1-1.3,0.7-1.6,1.7-1.6c4-0.1,8-0.1,12-0.2
		c0.9,0,1.5,0.3,1.6,1.3c0,1.1-0.4,1.8-1.6,1.7C164.6,502.5,162.5,502.5,160.4,502.5C160.4,502.5,160.4,502.5,160.4,502.5z"/>
	<path class="st209" d="M286.6,433.4c-1.1-10.2,2.8-17,11.3-19.5c11.4-3.4,21.4,3.4,22.1,15.2c-1,2.6-2.7,0.9-4.2,0.6
		c-1.5-0.9-1.8-2.6-2.5-4c-2.4-4.4-6.2-6.4-11.3-5.6c-4.4,0.7-7.7,4-8.6,8.8c-0.3,1.8,0.1,3.8-1.5,5.2
		C290,434.8,288.3,434.1,286.6,433.4z"/>
	<path class="st210" d="M315.8,429.1c1.4-0.3,2.8,0.8,4.2,0c0.9,8.8-5.6,16.6-15,18.2c-7.9,1.3-16.4-5.1-18.4-14
		c1.7-1.5,3.2-0.4,4.6,0.5c1.7,0.2,2.8,1.3,3.9,2.4c2.9,3,6.3,5.4,10.5,3.9c4.1-1.5,8.1-3.6,8.4-8.9
		C314.1,430.4,314.3,429.1,315.8,429.1z"/>
	<path class="st211" d="M173.8,232.8c-6.2,0-10.5-4.6-10.5-11c0.1-5.8,4.8-10.4,10.7-10.5c5.6,0,11.1,5.7,10.6,11.7
		C184.1,228.2,179.8,233.4,173.8,232.8z"/>
	<path class="st212" d="M197.6,243.1c2.6,0.5,4.9,1.6,4.7,4.5c-0.1,2.6-1.7,4.5-4.6,4.4c-2.7-0.1-4.1-1.9-4.2-4.3
		C193.5,245.2,195.3,243.7,197.6,243.1z"/>
	<path class="st213" d="M309.5,222.2c-0.3,6.8-4.7,10.9-11.5,10.6c-5.5-0.2-10.1-5.2-9.8-10.4c0.4-6,6.1-11.3,11.9-11.1
		C305.3,211.5,309.7,216.6,309.5,222.2z"/>
	<path class="st214" d="M322.3,243.2c3.3,0.1,4.6,2,4.5,4.4c-0.1,2.2-1.2,4.5-4.1,4.4c-2.8-0.1-4.1-1.9-4.2-4.4
		C318.4,245,320,243.4,322.3,243.2z"/>
	<path class="st215" d="M192.7,433.6c-3,0-5.4-2.5-5.4-5.7c0-2.6,2.6-5.1,5.5-5.2c3.3-0.1,6.2,2.4,6.1,5.4
		C198.9,431,196,433.6,192.7,433.6z"/>
	<path class="st216" d="M168.7,427.3c0.1-2.5,1.7-4.3,4.8-4.6c3.2-0.3,6.1,2.1,6.3,4.9c0.1,2.7-3,5.9-5.9,5.9
		C171.2,433.6,168.8,431,168.7,427.3z"/>
	<path class="st217" d="M211.2,433.2c-2.8-0.1-5-2.8-4.8-6.1c0.2-3.3,2.7-4.2,5.3-4.2c3.2-0.1,4.6,2.3,4.8,5.2
		C216.6,431.2,214.4,433.3,211.2,433.2z"/>
	<path class="st218" d="M315.8,429.1c-0.7,4.3-1.7,7.9-6,10.7c-5.9,4-11.4,1.6-15.5-2.4c-1.1-1.1-2.1-2.4-3.1-3.5
		c0.8-1,0.6-2.3,0.6-3.4c0.4-6.1,4.8-11.2,10.4-11.8c6.7-0.7,11.3,2.6,13.1,9.4C315.4,428.4,315.6,428.8,315.8,429.1z"/>
</g>
</svg>
