<?xml version="1.0" encoding="utf-8"?>
<!-- Generator: Adobe Illustrator 28.3.0, SVG Export Plug-In . SVG Version: 6.00 Build 0)  -->
<svg version="1.1" id="Layer_1" xmlns="http://www.w3.org/2000/svg" xmlns:xlink="http://www.w3.org/1999/xlink" x="0px" y="0px"
	 viewBox="0 0 676 892" style="enable-background:new 0 0 676 892;" xml:space="preserve">
<style type="text/css">
	.st0{fill:#013A28;}
	.st1{fill:#62BB76;}
	.st2{fill:#0E8B53;}
	.st3{fill:#1C925C;}
	.st4{fill:#64BA7A;}
	.st5{fill:#F8F6D7;}
	.st6{fill:#0B814C;}
	.st7{fill:#61BA78;}
	.st8{fill:#63B978;}
	.st9{fill:#F6F6DB;}
	.st10{fill:#F1F7CD;}
	.st11{fill:#97AC42;}
	.st12{fill:#91AA43;}
	.st13{fill:#176232;}
	.st14{fill:#28A15B;}
	.st15{fill:#156331;}
	.st16{fill:#138E59;}
	.st17{fill:#188E55;}
	.st18{fill:#F0F6D7;}
	.st19{fill:#F2F5D6;}
	.st20{fill:#60B976;}
	.st21{fill:#86A740;}
	.st22{fill:#86A33D;}
	.st23{fill:#87A33E;}
	.st24{fill:#1B8F53;}
	.st25{fill:#F4F8CE;}
	.st26{fill:#839F3E;}
	.st27{fill:#367437;}
	.st28{fill:#5EB879;}
	.st29{fill:#68BD7D;}
	.st30{fill:#208D56;}
	.st31{fill:#218F55;}
	.st32{fill:#F6F5D1;}
	.st33{fill:#88A041;}
	.st34{fill:#138C54;}
	.st35{fill:#ECF6CE;}
	.st36{fill:#5ABA7A;}
	.st37{fill:#87A445;}
	.st38{fill:#EDF7D1;}
	.st39{fill:#EFF3E0;}
	.st40{fill:#63B575;}
	.st41{fill:#F1F2E2;}
	.st42{fill:#48A36D;}
	.st43{fill:#F1F6D3;}
	.st44{fill:#7E9B3E;}
	.st45{fill:#95A848;}
	.st46{fill:#E1ECC9;}
	.st47{fill:#36975F;}
	.st48{fill:#EFEEC6;}
	.st49{fill:#146839;}
	.st50{fill:#E7EDD0;}
	.st51{fill:#138151;}
	.st52{fill:#106632;}
	.st53{fill:#84923C;}
	.st54{fill:#8EA54C;}
	.st55{fill:#E8F3C3;}
	.st56{fill:#A3B857;}
	.st57{fill:#95AA40;}
	.st58{fill:#EDF8DD;}
	.st59{fill:#EFF4CA;}
	.st60{fill:#1A7B4C;}
	.st61{fill:#F0F4D1;}
	.st62{fill:#B8D784;}
	.st63{fill:#DFECBB;}
	.st64{fill:#94A955;}
	.st65{fill:#E8EBC3;}
	.st66{fill:#8BAA44;}
	.st67{fill:#9AAC42;}
	.st68{fill:#8FAB45;}
	.st69{fill:#F0F2D2;}
	.st70{fill:#2A6F38;}
	.st71{fill:#E8F2CD;}
	.st72{fill:#95B140;}
	.st73{fill:#2B6530;}
	.st74{fill:#90AA48;}
	.st75{fill:#EDEDCF;}
	.st76{fill:#598743;}
	.st77{fill:#155F2A;}
	.st78{fill:#1E6732;}
	.st79{fill:#1B5E32;}
	.st80{fill:#819652;}
	.st81{fill:#186536;}
	.st82{fill:#9BC292;}
	.st83{fill:#EAF1C5;}
	.st84{fill:#E9F2BC;}
	.st85{fill:#ECF5C7;}
	.st86{fill:#EDEDC8;}
	.st87{fill:#EDF0D2;}
	.st88{fill:#38773D;}
	.st89{fill:#BBC66C;}
	.st90{fill:#89A147;}
	.st91{fill:#EAF0D2;}
	.st92{fill:#2D6F3E;}
	.st93{fill:#E8F4C9;}
	.st94{fill:#226A35;}
	.st95{fill:#357540;}
	.st96{fill:#65A170;}
	.st97{fill:#B3C372;}
	.st98{fill:#EFF0B8;}
	.st99{fill:#B8CB7E;}
	.st100{fill:#E8F5BE;}
	.st101{fill:#226937;}
	.st102{fill:#A4B553;}
	.st103{fill:#97B36A;}
	.st104{fill:#CAD571;}
	.st105{fill:#56AE69;}
	.st106{fill:#98B055;}
	.st107{fill:#C6DC8B;}
	.st108{fill:#8FA952;}
	.st109{fill:#CFE298;}
	.st110{fill:#CAE1B6;}
	.st111{fill:#E4F0B6;}
	.st112{fill:#44A571;}
	.st113{fill:#CBE4AB;}
	.st114{fill:#82B583;}
	.st115{fill:#DFF1AC;}
	.st116{fill:#DDE1BA;}
	.st117{fill:#82B798;}
	.st118{fill:#63B97A;}
	.st119{fill:#023B28;}
	.st120{fill:#ECF4CF;}
	.st121{fill:#47AE6E;}
	.st122{fill:#F8F1C8;}
	.st123{fill:#ECF3CA;}
	.st124{fill:#A6E49F;}
	.st125{fill:#D7F6CB;}
	.st126{fill:#ADEDB3;}
	.st127{fill:#21A263;}
	.st128{fill:#4AAB77;}
	.st129{fill:#60BA7A;}
	.st130{fill:#F0F4CB;}
	.st131{fill:#063720;}
	.st132{fill:#F7EFCA;}
	.st133{fill:#053323;}
	.st134{fill:#F1F6CB;}
	.st135{fill:#F9F1C7;}
	.st136{fill:#F7F3C2;}
	.st137{fill:#9EE9B0;}
	.st138{fill:#033B29;}
	.st139{fill:#023D25;}
	.st140{fill:#033E26;}
	.st141{fill:#C4E7B1;}
	.st142{fill:#034129;}
	.st143{fill:#043F25;}
	.st144{fill:#15854F;}
	.st145{fill:#4DA875;}
	.st146{fill:#063E2B;}
	.st147{fill:#C7F1C1;}
	.st148{fill:#124C2A;}
	.st149{fill:#074223;}
	.st150{fill:#0F4B28;}
	.st151{fill:#DEF0BF;}
	.st152{fill:#DEF1D4;}
	.st153{fill:#CAF3C2;}
	.st154{fill:#87C892;}
	.st155{fill:#043D27;}
	.st156{fill:#033D27;}
	.st157{fill:#063D2A;}
	.st158{fill:#05412A;}
	.st159{fill:#044228;}
	.st160{fill:#FAF1C9;}
	.st161{fill:#F5EEC8;}
	.st162{fill:#3B9354;}
	.st163{fill:#398F51;}
	.st164{fill:#32753F;}
	.st165{fill:#EFF0C2;}
	.st166{fill:#E9C674;}
	.st167{fill:#A8BB7E;}
	.st168{fill:#F3F8D2;}
	.st169{fill:#ABB14E;}
	.st170{fill:#F9F3D6;}
	.st171{fill:#B2B774;}
	.st172{fill:#C3BA6C;}
	.st173{fill:#E1BE77;}
	.st174{fill:#F1F2D3;}
	.st175{fill:#45A560;}
	.st176{fill:#D4E8BB;}
	.st177{fill:#F0F0CB;}
	.st178{fill:#8FA13C;}
	.st179{fill:#DB9E48;}
	.st180{fill:#EDD591;}
	.st181{fill:#EDB761;}
	.st182{fill:#F8F3D5;}
	.st183{fill:#EFB45F;}
	.st184{fill:#F6F3D4;}
	.st185{fill:#F5D291;}
	.st186{fill:#F5E3B0;}
	.st187{fill:#EFC17A;}
	.st188{fill:#62B877;}
	.st189{fill:#034329;}
	.st190{fill:#033B25;}
	.st191{fill:#033727;}
	.st192{fill:#023A24;}
	.st193{fill:#033721;}
	.st194{fill:#0F703F;}
	.st195{fill:#003B2B;}
	.st196{fill:#F8F2D4;}
	.st197{fill:#F3D79E;}
	.st198{fill:#003C2A;}
	.st199{fill:#F8F2D3;}
	.st200{fill:#EDCE8C;}
	.st201{fill:#F1D5A2;}
	.st202{fill:#043221;}
	.st203{fill:#D3F1D1;}
	.st204{fill:#CFEECD;}
	.st205{fill:#C7F2D0;}
	.st206{fill:#ECC670;}
	.st207{fill:#D1AE70;}
	.st208{fill:#CFB361;}
	.st209{fill:#F7F3D4;}
	.st210{fill:#E19D3D;}
	.st211{fill:#FAF1CE;}
	.st212{fill:#ECEDCE;}
	.st213{fill:#F9F0CE;}
	.st214{fill:#ECEED0;}
	.st215{fill:#F0D396;}
	.st216{fill:#F3D796;}
	.st217{fill:#65C396;}
	.st218{fill:#A1B147;}
</style>
<g>
	<path class="st0" d="M163,830.8c2.3-12.5,7.4-23.6,16.9-32.4c5.8-5.4,12.6-9.2,20.2-11.4c2.5-0.7,3.1-1.6,3.1-4
		c-0.1-33.7-0.1-67.3,0-101c0-2.8-0.7-4-3.8-4.3c-25-2.8-44.3-23.6-44.8-49.2c-0.5-22.8,0-45.7,0-68.5c0-5.8-0.3-11.7,0-17.5
		c0.1-3.3-0.8-4.1-4.1-4.1c-10.3-0.1-16.9-5.9-18.7-16.5c-6.9,5.7-11.4,12.7-15.4,20c-5.2,9.2-9,19-11.7,29.3
		c-2.9,11.5-3.7,23.2-4.2,34.9c-0.1,1.9,1.2,3,2.4,4.2c26,26.4,23.8,67.4-5.2,90.4c-6.3,5-12.9,10.1-21.6,10.1c-7,0-11-5-9.4-11.9
		c1.6-6.6,5-12.6,7.3-18.9c3.9-11,1.1-18-5.6-22.4c-9.5-6.4-19.5-2.9-26.8,8.2c-4.4,6.6-7.8,13.8-11.8,20.8c-0.9,1.6-2,3-3.5,4.2
		c-6.8,5.2-14.5,3.2-16.9-4.9c-6.1-20.6-4.6-40.5,6.2-59.4c7.4-12.8,17.7-22.2,32-26.7c3.4-1.1,3.6-3.4,3.5-6.2
		c-0.8-19.1,3-37.5,9.9-55.2c7.9-20.1,19.6-37.6,36-51.8c3-2.6,3.5-4.8,2.5-8.6c-4.6-16.5-2.9-32.2,8.3-45.9c6-7.2,13-13,23.2-12.3
		c2.1,0.1,2.4-1.3,3.3-2.4c6.5-8.3,17-10.8,27-8.2c5.3,1.4,10.1,2.7,13.7,6.9c0.9,1,1.6,0.4,2.5-0.1c7.5-3.9,15.5-5.3,23.8-5.3
		c13.2-0.1,26.3-0.1,39.5,0.1c3.4,0.1,4.4-1.1,4.2-4.3c-0.3-4.6,1.1-10.5-1.2-13.6c-2.2-3-8.4-0.8-12.8-1
		c-10.6-0.5-21.3,1.2-31.8-1.2c-21.4-4.9-35.4-17.8-42-38.8c-0.9-2.8-2.2-5.6-2.1-8.6c0.1-2.3-1.6-2.1-3.1-2.1
		c-4.3,0.1-8.7,0.1-13,0.4c-11.5,0.6-20.1-7.9-19.2-17.9c0.3-3.4-0.3-5.7-4.9-7.4c-6.8-2.5-11.8-8.5-15.7-14.8
		c-14.4-22.9-9.7-55.7,10.5-73.7c0.2-0.2,0.5-0.5,0.7-0.7c5.6-2.7,8.7-7,10.7-13.2c2.3-7.3,9.4-9.3,16.4-9.9
		c4.8-0.4,9.7-0.2,14.5-0.1c2.4,0,3-0.9,3.2-3.2c2.1-25.6,20-47,44.8-53.7c4.6-1.2,9.4-1.4,14.2-1.4c27.7,0,55.3-0.1,83,0.1
		c5.1,0,6.8-1.4,6.1-6.4c-0.6-4.6-0.4-9,4.5-11.6c1.3-0.7,1-2.4,1-3.7c0-2.8-0.2-5.7,0-8.5c0.3-5.9,4.4-11.1,10.2-12.7
		c2.9-0.8,4.3-2,4.2-5.4c-0.3-8-0.1-16,0-24c0-2-0.5-3.2-2.4-4.3c-12.4-7.1-19-21.5-16.7-35.7c2.4-13.9,12.1-25,26-27.3
		c21.8-3.6,37.4,10.5,39,30.4c1.2,14.8-5.1,26.1-18.3,33.1c-1.9,1-1.6,2.3-1.6,3.7c0,8.5,0,17-0.1,25.5c0,1.8,0,2.8,2.5,3.2
		c8.1,1.2,12.5,6.6,12.4,15.3c0,5-0.7,9.7,4.3,13.3c2.3,1.7,1.8,5.3,1.5,8.1c-0.6,4.9,0.7,6.7,6.2,6.7c28-0.2,56-0.1,84,0.4
		c17.8,0.3,32,8.5,43.2,21.9c8,9.7,12.4,21,13.1,33.6c0.1,2.1,0.8,2.5,2.7,2.5c4.8-0.1,9.8-0.6,14.5,0.2c8.5,1.3,16.7,4.2,18.2,13.2
		c0.7,4,2.5,5.8,5.8,7.7c12.8,7.3,19.4,19.1,22.4,33.2c3.5,15.9,1.3,31-7.9,44.7c-4.4,6.6-10.4,11.7-17.6,14.9
		c-2.2,1-2.6,2.2-2.5,4.2c0.6,16.2-9.9,19.7-21.4,19.8c-4.3,0-9.5-1.3-12.8,0.6c-3.3,1.9-2.3,7.6-3.6,11.6
		c-6.7,21.2-28.7,38.6-51.1,38c-10.3-0.3-20.7,0.1-31-0.1c-2.9,0-4.3,0.4-3.9,3.7c0.6,4.9-2.1,11.5,1.1,14.3c2.8,2.4,9.2,0.7,14,0.9
		c11.8,0.3,23.6-0.6,35.4,0.7c5.5,0.6,10.6,2.6,15.4,5c1.4,0.7,2,1.6,3.5-0.1c6.9-7.8,15.4-8.8,25.4-7c6.4,1.1,10.7,3.7,14.4,8.4
		c0.8,0.9,1.5,1.7,2.8,1.9c18.9,2.8,31.6,16,34.2,34.5c1.3,9.3,0.8,18.1-2.6,26.8c-0.8,1.9,0,2.7,1.2,3.7
		c24.5,20.9,38.5,47.8,45,78.9c2.2,10.4,2.7,21,2.9,31.7c0.1,2.2,0.5,3.4,2.9,4.3c21.4,7.2,33.6,22.8,39.2,43.9
		c3.7,13.8,3.5,27.8-0.8,41.7c-1.4,4.6-4.1,7.5-8.9,8.3c-4.8,0.8-8.3-1.4-10.6-5.1c-4.1-6.4-7.6-13.2-11.7-19.7
		c-4.6-7.3-9.5-14.1-19.6-13.8c-9.2,0.3-16.8,8.7-15.6,17.9c1,7.5,4.2,14.2,6.9,21.1c1.9,4.9,4,10.2-0.6,14.3
		c-4.5,4.1-10.2,3.5-15.4,1.1c-19.8-9-31.7-24.4-35.4-45.7c-3.7-21.1,2-39.5,18.3-54c1.2-1.1,1.5-2.4,1.6-4
		c0.3-26.7-6.5-51.2-21.8-73.2c-2.7-3.8-6.1-7-9.9-10.7c-2,11.8-9.4,16.8-20.5,16.8c-2.4,0-2.6,1.3-2.6,3.2c0,6.5,0,13,0,19.5
		c0,21.2-0.3,42.3,0,63.5c0.3,18.3-6.8,33-20.9,44.1c-6.7,5.2-14.8,8-23.2,9.5c-2.6,0.5-3.2,1.3-3.2,3.7c0.1,33.7,0.2,67.3,0.2,101
		c0,2.4,0.4,3.6,3.2,4.4c22.3,6.4,37.5,27.1,37.5,50.4c0,8.3,0.1,16.7,0.2,25c2.4,4.8,1.3,9.9-3,13.8c-3.6,3.1-7.9,4.2-12.5,4.2
		c-41.3,0.1-82.7,0.1-124,0c-9.7,0-14.8-5.1-15.4-14.7c-0.2-3.8-0.4-7.7,0.2-11.5c-0.1-9.6-0.8-19.3,1.6-28.8
		c4.2-17.3,14.2-29.8,30.1-37.7c6.4-3.2,6.7-3.5,6-10.8c-1.3-13.3-0.3-26.6-0.2-39.8c0.1-16.9-0.7-33.9,0.3-50.8
		c0.5-7.6-0.1-7.8-7.7-7.8c-33,0-65.9,0-98.9,0c-7.4,0-7.6,0.2-7.6,7.5c0,24.8,0.1,49.5-0.1,74.3c-0.1,6.5,0,13,0,19.4
		c0,3.6,1.2,5.9,4.7,7.3c9.9,4.2,18.1,10.5,24,19.6c6.2,9.6,9.4,20.1,9.2,31.6c-0.6,8.2,0.4,16.3,0.3,24.5
		c-0.1,12.9-5.1,17.8-18,17.8c-40.1,0-80.3,0-120.4,0c-14,0-19.6-7.3-16.2-20.9c0.4-1.5,0.2-3,0.3-4.5
		C162.8,847.1,162.2,838.9,163,830.8z"/>
	<path class="st1" d="M175.1,646.8c-2-2.9-3.9-5.9-4.7-9.4c0.6-5.8,0.8-11.5,0.8-17.3c0-53.3,0-106.6,0-159.9
		c0-7.6,1.5-14.5,6.9-20.2c2.6-1.3,2.8,0.4,2.6,2.3c-0.2,1.8-1,3.6-0.1,5.3c1.5,2.8,3.5,5.1,6.9,4.7c3-0.3,5.3-2.2,6.1-5.1
		c1-3.2-0.5-5.8-3-7.8c-1.5-1.2-3.3-1.4-5.1-1.7c-1.5-0.2-3.2-0.4-2.4-2.7c4.3-5.5,10.2-7.3,16.8-7.1c17.3,0.5,34.6,0.3,52,0.4
		c2.2,0,4.3,0.1,6.5-0.4c32.2-0.2,64.3-0.1,96.5-0.1c35.7,0,71.3,0,107,0c8.3,0,16.3,1.3,23.2,6.4c3.8,2.2,5.8,6.5,10,8.2
		c0.4,0.3,0.8,0.6,1,1.1c0.2,7.8-8.5,16.1-15.2,14.4c-1-1.8-1.9-3.2-4.5-3.2c-3.4,0-4.2-2.2-3-5.2c0.3-0.6,0.6-1.2,0.9-1.8
		c0.6-1.3,1.8-2.8,0.6-4.1c-1.3-1.5-3.1-0.5-4.7,0c-0.8,0.3-1.5,0.7-2.3,1.1c-1.9,1-3.9,1.3-5.4-0.7c-1.7-2.3,0.8-3.1,2-4.7
		c-9.5-1-18.7-0.1-27.9,1.2c-6.3,0.9-12.4,1.3-18.8-0.3c-5.3-1.3-10.7-1.3-16.1,1.3c-4.4,2.1-9.5,1.6-14.1-0.1
		c-5.4-2.1-10.5-2.1-16,0c-5.7,2.1-11.8,2.1-17.6-0.2c-2.7-1.1-5.4-1.9-8.2-1.6c-4.8,0.4-9.6-0.3-14.6-0.2c3,0.3,6.3-1.1,8,2
		c1,1.8-0.2,3.5-2.1,4.5c-3.5,1.2-7.3,1.2-10.9,1.1c-32.6-0.6-65.3-0.1-97.9-0.2c-5.2,0-10.3,0.6-15.4,1.3c-8.4,1-17.5,11-19,19.8
		c-0.8,4.8-1.1,9.6-1.1,14.4c0,38.3,0,76.6,0,114.9c0,3.2,0.1,6.3-0.4,9.5c-1.9,7.6-3.3,15.4-0.2,22.9c4.8,11.5,15.7,17.4,29.6,16.9
		c4.6-0.2,9.3-1.1,13.8,0.7c0.6,4.3,0,8.2-4.2,10.7c-2.2,0.7-4.4,0.7-6.6,0.6c-4.5-0.2-9-0.6-13.4,0.6c-6,0.6-12,1-17.9-0.3
		C186,657.1,179.8,653.1,175.1,646.8z"/>
	<path class="st2" d="M175.1,646.8c0.5,0.1,1.1,0,1.4,0.3c9.5,10.3,21.7,11.5,34.6,10.5c4.6-1.2,9.4,0.4,14-0.9
		c2.3,0,4.6-0.1,6.9-0.1c2.1-1.1,4.2-1.9,6.7-1.9c31.6,0.3,63.2-1.8,94.9-1c1,0,2,0.1,3,0.3c29.3-0.4,58.5-0.2,87.8-0.1
		c8.8,0,17.6-0.6,26.4-1.2c5.2-0.4,9.7-4.5,14.3-7.3c1.3-1.3,2.8-2.3,4.4-3.2c8-4.7,11.3-11.9,11.1-20.9c-0.2-5,0.4-10-1.3-14.8
		c-0.9-2.4-0.7-4.9-0.7-7.4c-0.1-40.8,0-81.7,0-122.5c0-2.7,0-5.3-0.8-7.9c-0.3-2.1-0.5-4.3-0.8-6.4c-0.4-2.7,0.4-5,4.1-4.5
		c7-1.2,13.6-8.2,14-15c2.8,0.2,3.3,2.5,4.1,4.4c1.8,4.4,1.9,9.1,1.9,13.8c0,53.6,0,107.2,0,160.8c0,2.7-0.8,5.8,1.9,7.9
		c-0.9,18.6-17.6,35-36.3,35c-87.8,0.1-175.5,0.1-263.3,0C191.8,664.7,178.5,656.1,175.1,646.8z"/>
	<path class="st3" d="M461.9,159c21.2,1.8,40.2,20.7,41.2,41.3c2.1,43.9,0.4,87.8,1,131.6c0,4-0.1,8-1.1,11.9
		c-2,3.8-4.2,7.5-6.6,11.1c-8.2,12.4-19.5,18.7-34.3,18.8c-6.5,0-13,0-19.5,0c-77,0-153.9,0-230.9,0c-12,0-22.7-3-31-12.3
		c-2.1-2.4-3.9-5-4.4-8.2c0-1.8,0.5-3.6,0-5.4c-0.4-1.5-0.4-3.2,1.1-4c1.8-1,3.3,0.4,4.3,1.7c3.6,4.4,7.6,8.4,12.8,10.9
		c1.5,0.7,2.9,1.5,4.7,1.6c19.1,1.3,38.2,1.4,57.4,0.5c16.8-0.8,33.6-1.1,50.4,0.4c2.8,0.3,5.7,0.2,8.5,0.2c43.3,0,86.6-0.1,130,0.1
		c8,0,16-0.4,23.9-1.3c8.2-0.9,14-6,18.3-12.6c3.8-5.8,5.7-12.2,5.7-19.4c-0.2-18.8-0.4-37.7,0-56.5c0.4-19.3-0.3-38.6,0.1-57.8
		c0.3-17.6-6.8-30.8-20.1-41.4c-2.3-2.2-5.1-3.6-7.8-5.4C464.1,163,460,162.8,461.9,159z"/>
	<path class="st4" d="M286,846.6c-35.7,0-71.3,0-107,0c-2.9-4.7-1.7-9.7-0.4-14.4c5.4-18.8,19.7-29.7,39.3-30.1
		c13.3-0.2,26.6,0,39.9-0.1c2.5,0,5,0.3,7.1-1.5c4.6,0.1,8.4,2.4,11.4,5.4c11,10.7,12.7,24.3,11,38.7
		C287.2,845.4,286.6,846,286,846.6z"/>
	<path class="st4" d="M480,846.6c-36.3,0-72.6,0-108.9-0.1c1-2.8,1.2-5.8,1.6-8.7c2.4-21.2,18-35.4,39.3-35.7c14.3-0.2,28.6,0,43,0
		c2.5,0,5,0.3,7-1.7c2-0.9,3.4,0,5,1.1c5.2,3.8,9.3,8.4,11.7,14.5c3.3,8.5,4.6,17.2,3.3,26.3C481.6,843.8,481.4,845.4,480,846.6z"/>
	<path class="st5" d="M466.1,163.8c2.3,1.4,4.5,2.8,6.8,4.2c-0.8,3.2-3.4,2.3-5.2,1.9c-5.6-1.2-11.3-1-16.9-1
		c-75.7,0-151.5,0-227.2,0c-12.1,0-23.1,2.7-33.3,9.8c-11.1,7.8-14.7,18.7-15,31c-0.6,19.3-0.1,38.6-0.2,57.9c0,17,0.1,34,0,50.9
		c0,7,0.4,14,1.7,20.9c0.5,2.9,1.1,6-2.1,8c-4.5-0.7-4.6-4.7-5.7-7.7c-0.8-2.1-0.7-4.5-1.7-6.6c0-43-0.2-85.9,0.1-128.9
		c0.2-23.5,21.4-45,44.5-45.1c79.1-0.2,158.2-0.2,237.3-0.2c1,0,2,0.2,3,0.3C457.2,159.2,461.7,161.4,466.1,163.8z"/>
	<path class="st6" d="M167.2,332.9c3.4,3.9,3.4,9.4,6.2,13.6c2,1.7,4.5,3.1,3.8,6.4c4.1,8,10.4,13.7,18.8,16.8
		c3.9,1.4,8,2.1,12.2,2.1c84.6,0,169.3,0,253.9,0c14.2,0,25.3-5.7,32.7-18c1.9-3.3,5.2-5.6,6.2-9.5c0.3-1.1,1.3-0.8,2.1-0.5
		c-0.4,6.2-3,11.4-6.5,16.4c-8.7,12.3-20.5,18.6-35.5,18.6c-17.5,0-34.9,1.1-52.4,1c-53.4-0.2-106.8,0.2-160.2-0.3
		c-14.3-0.1-28.6,0.2-42.9-0.9c-13.3-1-23.9-7.9-31.1-19.3C169.4,351.4,166.3,342.6,167.2,332.9z"/>
	<path class="st7" d="M650,675.8c-5-6-7.6-13.5-12.4-19.7c-10.7-14-28.8-17.7-42.2-8.3c-9.8,6.8-14.1,19.5-11.1,32.3
		c0.5,2.3,1.1,4.5,1.6,6.7c-2.9,2-4.8-0.1-6.3-1.8c-6.6-7.2-10.5-15.9-12.4-25.4c0.8-5.4,0.3-10.9,1.5-16.3
		c5.2-23.1,26.8-35.4,49.2-27.8c2,0.7,3.9,1.8,6.2,1.4c4.1,0.6,6.9,3.4,9.4,6.1c9.3,10.1,15.7,21.9,17.9,35.5
		C652.3,664,652.8,670.2,650,675.8z"/>
	<path class="st8" d="M84.1,688.7c2.9-8.5,5.1-16.9,2.4-26.2C80.6,642.1,55,637,40.8,648.8c-8.5,7-13.8,16.5-19.1,25.9
		c-0.4,0.8-0.2,2.1-2,2.3c-0.6-2.8-2.1-5.4-1.5-8.5c1.5-4.8,0.6-9.8,2-14.7c5.1-18.5,15.9-32,34-38.9c8.8-3.3,17.6-2.5,26.1,1.6
		c1.4,0.7,2.7,1.1,4.3,1.1c5,1.4,8.1,5.3,10.7,9.3c13.3,20.4,10.8,43.5-6.5,60.6C87.7,688.7,86.4,691.6,84.1,688.7z"/>
	<path class="st9" d="M486.1,436.8c-7.4-5.5-15.8-7.1-24.9-7c-64.9,0.1-129.8,0-194.7,0c-2.8,0-5.7-0.1-8.5-0.1
		c-12.9-0.8-25.9,0-38.8-0.4c-7.1-0.2-14.1-1.4-21.2-2.5c-1.7-0.3-3.8-0.4-4-2.9c1.6-1.4,3.5-0.8,5.2-0.8c88.8,0,177.7,0,266.5-0.2
		c4.3,0,8.1,1.5,12.1,2c4.6,1.8,9.3,3.5,10.8,9.1C488.5,435.5,488.3,437.1,486.1,436.8z"/>
	<path class="st10" d="M194.1,423.8c2.4,1.7,5.4,1.2,8.1,1.9c16.8,4.3,34,3,51.1,3.1c1.6,0,3.3-0.4,4.8,0.8
		c-20,0.1-40.1,0.1-60.1,0.2c-6,0.1-11.1,2.5-15.1,7.1c0,1.4-0.3,2.4-2.1,2c-4.7,5.3-7.5,11.3-7.5,18.4c-0.1,51.1,0,102.3-0.1,153.4
		c0,7.5,0.4,15-0.9,22.4c-0.3,1.6-0.1,3.4-1.9,4.3c-3-8.5-3.6-17.4-3.6-26.3c0-51,0.2-102.1-0.2-153.1
		C166.4,437,181.3,425.6,194.1,423.8z"/>
	<path class="st11" d="M516.2,289.6c-0.1-21.9-0.6-43.8,0.1-65.7c5.2-4.2,10.9-3.4,16.4-1.1c5.2,2.1,6.2,6.8,6.2,12
		c0,16.1,0,32.2,0,48.3c0,2.5,0.1,5-1.6,7.1C530.2,292.4,523.2,293.2,516.2,289.6z"/>
	<path class="st12" d="M154.4,216.1c1.2,0.8,0.8,2.1,0.8,3.2c0,22.1-0.1,44.2-0.1,66.3c0,1.5,0.4,3-0.8,4.3
		c-6.6,2.8-13.1,3.2-19.6-0.6c-1.5-2.4-1.4-5.1-1.4-7.7c0-15.1-0.1-30.3,0-45.4c0.1-11.2,2.9-14.5,14-14.9
		C151.4,221.1,152.3,218.3,154.4,216.1z"/>
	<path class="st13" d="M212.3,680.5c0.5-2.6,2.5-1.8,4-1.8c15.5,0,31,0,46.5,0c1.3,0,3.6-0.8,3.7,1.3c0.1,1.9-2.1,1.6-3.6,1.7
		c-2.2,0.2-4.6-0.6-6.6,0.9c0.6,2.5,2.5-0.5,3.1,1.2c2.7-1.7,5-0.8,5.6,1.9c0.7,3.4,2.6,7.5-4,8.3c-8.7,1.1-17.3,0.3-25.9,0.6
		c-5,0.2-10,0.1-15,0c-3.9,0-8.4-6.4-6.8-9.9c0.4-1,0.9-3.9,3.2-1.3c0.7,0.8,1.2,0.1,1.4-0.5c0.4-1.1,0-1.8-1.2-2.2
		C215.2,680.4,213.6,681.7,212.3,680.5z"/>
	<path class="st14" d="M503,629.7c-2.7,0.3-4.1-0.6-3.9-3.6c0.1-1.5,0-3,0-4.5c0-54.6,0-109.1,0-163.7c0-5.4-1.2-10.5-4-15.1
		c-0.3,0-0.6-0.1-0.9-0.1c-2.1-1.4-3.6-3.1-4.2-5.6c0-1.5,0-3.1,1.8-3.4c1.4-0.3,2.3,0.9,3,2c0.6,0.9,1,2,2.5,1.9
		c3.4,4.2,5.9,8.9,5.9,14.4c0.1,58.7,0,117.5,0,176.2C503.1,628.7,503,629.2,503,629.7z"/>
	<path class="st15" d="M448.9,681c1,1.5,1.6,3.4,3.7,2.6c0.2-0.1,6.3-1.5,2.2,3.1c-0.6,0.6,1.1,2.2,2,2.4c1.8,0.4,2.7,1,2.2,3
		c-0.5,2.1-2.2,1.5-3.6,1.7c-9.2,1.5-18.6,0.8-27.8,0.9c-5.2,0.1-10.3,0.2-15.5-0.1c-2.6-0.1-6.2,0.1-5.9-4.2
		c0.3-3.5,0.6-7.4,5.8-6.7c0.7,0.1,1.3,0.5,1.6-0.3c0.4-1-0.3-1.5-1.1-1.9c-1.9-0.9-3.8-0.9-5.8-0.4c-0.8,0.2-1.8,1.7-2.3,0
		c-0.5-1.3,0.4-2.2,1.8-2.3c1-0.1,2-0.1,3-0.1c15,0,29.9,0,44.9,0.1c1.5,0,4.4-1.1,4.3,1.4c-0.1,1.7-3.1,1.3-4.7,1.5
		C452.1,681.8,450.5,681.2,448.9,681z"/>
	<path class="st16" d="M286,846.6c0-6.9,0.8-13.9-0.6-20.8c-2.4-11.9-9.1-20.3-20.4-24.9c-0.7,0-1.1-0.3-0.8-1
		c8-2.8,14.9,0.4,21.2,4.7c13.2,9.1,18.5,22,17.9,37.8c-0.1,3.2-0.9,4.6-4.3,4.4C294.6,846.5,290.3,846.6,286,846.6z"/>
	<path class="st17" d="M480,846.6c1.4-11.7,1.1-23.1-4.7-33.8c-3-5.5-7.5-9.4-13.1-12c-1.7,0.3-1.6-0.7-1.2-1.8
		c17.2-1.1,32.3,14,36,30.5c1,4.4,1,8.9,1.1,13.4c0.1,3.1-1.2,4.1-4.1,4C489.3,846.6,484.6,846.6,480,846.6z"/>
	<path class="st18" d="M460.9,798.9c0.4,0.6,0.8,1.2,1.2,1.8c0.6,2.2,0.9,3.4-2.6,3.3c-16.6-0.3-33.3-0.5-49.9,0
		c-20.2,0.6-34.9,16-35.6,36.3c-0.1,2.5,0.8,5.5-3.1,6.2c0,0-0.4,0-0.4,0l-0.4,0c-1.1-4.9-0.7-9.8-0.2-14.7
		c3.2-16.1,11.4-27.9,28-32.4c4.1-1.1,8.5-1.5,12.8-1.5c15-0.2,29.9-0.1,44.9-0.1C457.5,797.8,459.3,798.1,460.9,798.9z"/>
	<path class="st19" d="M264.1,799.9c0.3,0.3,0.5,0.7,0.8,1c1.2,2.9-0.7,2.9-2.7,2.9c-11.2,0-22.3,0.1-33.5,0.2
		c-7.1,0.1-14.3-0.6-21.4,1c-18.2,4.1-29,22.7-28.3,37.1c0.1,1.5-0.1,3-0.1,4.5c-2.9,0.5-4.4,0.2-4.4-3.6c0-15,3.6-28.2,16.4-37.6
		c6.8-5,14.4-7.2,22.7-7.2c14.3-0.1,28.6-0.1,43-0.2C259.3,797.9,261.9,798.2,264.1,799.9z"/>
	<path class="st20" d="M330,17.8c6.8-3.4,12.5-0.7,17.9,3.3c1.5,3,3.2,5.8,4,9.1c3,11.2-5,23.2-15.8,23.4c-1.1-0.3-2-1.2-3.2-1.2
		c-6.4,0.2-10-3.6-12.5-8.9c-0.3-7,4.1-11.3,9.2-14.8c6.4-4.4,6.6-4.2,1-9.6C330.2,18.8,330.1,18.3,330,17.8z"/>
	<path class="st21" d="M450.3,738.6c-1.9,1-5.9-1-5.6,1.8c0.2,2.9-1.2,7.9,5,8.3c2.1,0.1,4,2.9,6.6,0.9c0.4,2,3.8,0.4,3.6,2.9
		c-0.2,2.1,0.1,4.6-2.9,4.9c-2.3,0.2-4.6,0.2-7,0.2c-13,0-25.9,0-38.9,0c-1.8,0-4,0.3-4.6-2c-0.4-1.5-0.5-4.5,0.1-4.7
		c2.4-1,5.3-1.8,7.8-1.4c3.7,0.5,7.1,0.1,9.8-2.1c2.8-2.3,5.7-4.9,6.8-8.7C436.3,734.8,446.5,734.7,450.3,738.6z"/>
	<path class="st22" d="M244.1,738.9c0.3,6,5.1,11.1,11.1,11.8c3.2,0.4,6.2,3,9.7,0.8c0.7-0.5,1,1,1,1.8c0,1.4,0.6,3.2-1.6,3.5
		c-2.1,0.3-4.3,0.9-6.4,0.9c-11.3,0.1-22.6,0-33.8,0c-5.4-0.9-6.3-1.8-6.7-7.3c-0.8-12.2-0.1-13.1,12.2-13c4.6,0.1,9.3-0.9,13.8,0.9
		C243.7,738.5,243.9,738.7,244.1,738.9z"/>
	<path class="st23" d="M243.3,706.8c0.8,7.5,6.9,12.9,14.2,12.5c0.6,0,1.4-0.3,1.9-0.1c2.1,1,6-0.7,6.1,3c0.2,4-3.7,2.5-5.7,2.7
		c-13.6,1.3-27.2,0.3-40.8,0.7c-3-6.2-2.4-12.5-0.5-18.8c1.8-1.8,4-1.8,6.3-1.8c4.3,0.8,8.6,0.3,12.9,0.3
		C239.7,705.3,241.8,704.9,243.3,706.8z"/>
	<path class="st24" d="M555.1,441.9c6,7.4,7.5,16.1,6.9,25.2c-1,13.9-7.7,24.4-19.7,31.5c-4.2,2.5-5.1,2-5.2-2.9
		c-0.1-5.3,0-10.7,0-16c1.2-1.4,2.8-2.4,4.4-3.2c11.7-5.5,14.6-18.8,12.3-29.3C553.6,445.3,553.3,443.4,555.1,441.9z"/>
	<path class="st25" d="M154.4,216.1c0,0.8-0.1,1.7,0,2.5c0.4,3.5-0.6,5.2-4.6,4.6c-2.4-0.4-5,0.2-7.4,0.3c-5,0.2-7.1,3.3-7.2,7.8
		c-0.1,19.3,0,38.6,0,57.9c2.2,3.6,2.6,7.1,0,10.7c-0.1,1.8-0.6,3.1-3,3c-2.3-0.2-2.1-1.7-2.1-3.2c-0.2-24.3-0.5-48.6-0.5-72.9
		c0-7.3,3.1-10.3,10.3-10.6C144.7,216,149.6,216.1,154.4,216.1z"/>
	<path class="st26" d="M445.3,706.8c-1.6,3.3-0.1,6.4,0.6,9.6c0.2,0.9,0.9,1.5,1.8,1.1c3.9-1.5,6.4,2.1,9.7,2.7
		c1.1,0.2,1.6,1.5,1.5,2.9c-0.2,1.6-1.3,1.6-2.5,1.9c-4.8,1-9.6,0.8-14.4,0.7c-10.8-0.4-21.6,0.8-32.4-0.4c-3.2-0.4-3.2-1.7-3.4-4.5
		c-0.2-4.1,2.9-1.6,3.2-1.5c10.7,1.4,17.7-4.1,23.3-12.3C437,704,441.2,704,445.3,706.8z"/>
	<path class="st27" d="M388.1,407.8c-11.1,0-22.3-0.3-33.4,0.2c-22.1,1-44.2-0.9-66.3-0.2c-7.8,0.3-15.5,1.8-23.3,0.9
		c1.3-3.4,4.3-2.4,6.7-2.5c3.2-0.1,6.3-0.2,8.3-3.3c36,0,72,0.1,108.1,0.1C389.5,404.6,390.5,406.2,388.1,407.8z"/>
	<path class="st28" d="M133,430c1.6,1,1,2.7,1,4.1c0,14.9-0.1,29.8-0.1,44.7c-1.4,2.9-3.5,2-5.4,1c-9.6-5.4-15.2-13.5-16-24.7
		c2.5-4.9,5.6-9.4,9.9-12.9c4.5-3.6,6.5-3,8.6,2.3C132.7,439.8,130,434.5,133,430z"/>
	<path class="st29" d="M555.2,447.7c3.8,13.8-3.5,29-18,32c0-12,0-24,0.1-36.1c0.7-0.7,1.4,1.5,1.7,0.2c0.9-4.2,2.8-5.1,6.5-2.8
		c2.1,1.3,3.8,3.3,5.6,5C552.2,447.2,553.1,448.9,555.2,447.7z"/>
	<path class="st30" d="M84.1,688.7c5.6-2,8.1-7.3,11.1-11.6c13.3-19.5,6.1-44.8-8.4-57.1c-0.7-0.6-1.7-0.9-2.6-1.3
		c-4.5-2-8.5-4.5-11.2-8.7c12.6,0.8,21.6,7.9,27.6,18c13.9,23.2,8.6,47.5-13.2,63.6c-1.8,1.3-3,3.6-6,3.8
		C81.6,692.8,82.8,690.7,84.1,688.7z"/>
	<path class="st31" d="M113.3,454.6c1.9,10.4,6.4,18.9,16.1,24.1c1.7,0.9,3,1.2,4.5,0.1c0,5.5,0,11,0.1,16.5
		c0.1,3.7-1.4,3.8-4.3,2.4c-11.8-5.7-17.8-15.3-19.7-28c-0.8-5.8-1.7-11.5,0.3-17.2c0.6-1.7,0.7-3.7,2.6-4.7
		C115.4,450,114.3,452.3,113.3,454.6z"/>
	<path class="st32" d="M537,290c0-19.3,0.1-38.5,0.1-57.8c0-5.4-2.2-7.8-7.4-8.8c-4.5-0.9-8.9-0.2-13.3,0.5
		c-0.8-7.7-0.8-7.7,6.7-7.9c1,0,2,0,3-0.1c12.8-0.2,15.5,2.7,15.4,15.4c-0.2,22.5-0.1,45-0.2,67.4c0,3.1-0.3,5.7-4.3,3
		C534.5,297.9,534.4,294,537,290z"/>
	<path class="st33" d="M243.4,770.9c1.1,9.2,8.1,12.1,18,11.5c1.6-0.1,4.1-1.3,4.2,1.5c0.1,2.5-2.4,1.8-3.9,1.8
		c-14.3,0.4-28.6-0.1-42.8,0.9c-1.3,0.1-2.7,0.2-3.8-0.8c1.7-1.2,2.8-2.4,2.5-5c-0.4-3.7-1.5-7.9,2.1-11c6.9-1.8,13.9-1,20.8-0.6
		C241.7,769.3,242.8,769.9,243.4,770.9z"/>
	<path class="st34" d="M336,52.8c11.9-2.5,18-13.6,13.6-24.8c-0.8-2.2-3.2-4.1-1.7-6.9c6.8,4.3,11.6,15.2,9.8,22.2
		c-2.4,9.5-11,16.9-20.5,17.7c-8.9,0.7-16.3-4.2-20-13.2c1.5-2.4,3.5-1.9,5.5-0.9c2.6,3.2,5.8,5.1,10.1,5.1
		C334,51.9,335.1,51.9,336,52.8z"/>
	<path class="st35" d="M623.8,617.9c-1.2,1.4-2.4,0.4-3.6-0.1c-24.4-10.1-49.4,4.8-51.1,33.5c-0.2,2.8,0.6,5.7-1,8.3
		c-3.3-4.7-4.3-10.1-4.3-15.7c3-15.3,11.1-26.6,26-32.5c4.9-2,10.1-1.1,15-2.4c5.3,0.8,10.6,1.9,15.3,4.8
		C621.8,614.7,623.7,615.5,623.8,617.9z"/>
	<path class="st36" d="M567.2,260.8c1.4,7,1.7,14-0.1,21c-5,2.9-10,2.9-15,0c-1.7-6.5-0.5-13.1-0.8-19.7c-0.2-4.8,0-9.5,0-14.3
		C556.3,252.5,563.1,255,567.2,260.8z"/>
	<path class="st37" d="M444.4,770.8c-0.4,7.1,1.1,9.4,8.9,9.9c1.9,0.1,3,4,5.3,1.1c0.2-0.2,0.3,1.1,0.3,1.6c0,1,0,2-1.4,2.1
		c-2,0.1-4,0.4-6,0.4c-13.4,0-26.9,0-40.3-0.1c-3,0-5.9-0.2-4.6-4.6c2-0.1,1.1,2.3,2.9,2.7c0-4.9,3.6-2.6,5.7-2.6
		c8.2,0.2,12.9-3.3,13.6-10.6C434.1,767.8,439.2,767.8,444.4,770.8z"/>
	<path class="st38" d="M73,610c4.6,1.8,7.6,5.6,11.2,8.7c-4.5,0.7-7.8-2.6-11.9-3.4c-9.6-1.8-18.3-0.1-26.2,5.1
		c-15.4,10.1-24.3,24.5-26.1,43c-0.2,1.8-0.6,3.6-1.7,5.1c-1-17.8,4.2-33.4,16.6-46.2C45.3,611.7,58.1,607.5,73,610z"/>
	<path class="st39" d="M476.9,857.6c-34.6,0.1-69.2,0.2-103.8,0.2c-1.2,0-3.1,0.9-3.3-1.7c-0.1-2.8,1.8-2.2,3.3-2.2
		c28.6,0,57.2,0,85.8,0c4.8,0.7,9.6,0.2,14.4,0.3C475.7,854.3,477.6,854.5,476.9,857.6z"/>
	<path class="st40" d="M105,282c-1.6-8.1-1.8-16.1-0.1-24.2c2.5,1.3,3.9-0.7,5.6-1.9c2.9-2,5.2-5.2,9.5-4.1c0,10,0,19.9-0.1,29.9
		C115.1,284.9,110.1,284.5,105,282z"/>
	<path class="st41" d="M278,857.6c-33.4,0.1-66.9,0.2-100.3,0.4c-1.4,0-2.8,0.4-2.9-1.6c-0.1-2.6,1.8-2.3,3.4-2.3
		c12.3,0,24.6,0,36.9,0c16.6,0.7,33.2,0.2,49.8,0.2c3.7,0,7.1,1.3,10.8,1.3C276.8,855.4,278,856,278,857.6z"/>
	<path class="st42" d="M623.8,617.9c-5.6-4.5-12.4-6.5-18.9-8.9c16-1.3,33.6,10.1,41.2,26.8c4.9,10.7,7.4,21.9,7.1,33.7
		c-0.1,2.6-0.6,5.1-1.6,7.2c-0.8,1.8-1.2-0.2-1.5-0.9c0.1-5-0.5-10,0.9-14.9c0.3-0.9,0.2-2.1-0.1-3c-5.3-14.8-11.1-29.3-24.3-39.1
		C625.8,618.3,624.7,618.2,623.8,617.9z"/>
	<path class="st43" d="M145.2,480.8c-0.2-16.9-0.5-33.9-0.6-50.8c0-7.4,2.9-10.2,10.3-10.4c3.5-0.1,7,0.1,10.4,0.2
		c1.2,0,2.7-0.1,3,1.2c0.4,1.5-0.8,2.3-2.3,2.6c-3.5-1.1-6.9,0-10.1,1.2c-2.9,1-4.5,3.2-4.6,6.4c-1.3,6.4-0.4,12.9-0.6,19.4
		c-0.2,6.5,0.2,12.9-0.2,19.4c-1.1,2.9-2.8,5.5-3,8.8C147.3,479.8,146.7,481,145.2,480.8z"/>
	<path class="st44" d="M149.9,429.5c2.3-7,7.2-8.8,16.1-5.8c-1.3,0.1-2.8-0.1-4,0.3c-2.2,0.7,0.3,1.1,0.3,1.7
		c-0.5,1.2-1.7,1.3-2.8,1.7c-6.3,2.2-6.4,2.6-1.6,7.4c-6.3,12.9-3.1,26.7-3.7,40.1c-0.2,4.6-0.1,9.3-0.2,13.9
		c-3.8-0.1-5.2-2.4-5.3-5.8c-0.1-2.2-0.3-4.3,0-6.5c1.8-15,0.5-30.1,0.9-45.1C149.7,430.8,149.7,430.1,149.9,429.5z"/>
	<path class="st45" d="M526,493.8c0.1,1.6,0.3,3.3,0.3,4.9c0,7-1.9,8.2-9.2,6.1c-1-5.3-0.4-10.6-0.4-15.9c-0.1-11.6-0.1-23.3,0-34.9
		c0-1.6-1.2-4.3,1.6-4.4c2.7-0.1,3.2,2.5,3.3,4.7c0.2,5.2,0.1,10.3,0.1,15.5c0,1.7,0.3,3.3,0.7,4.9C522.3,481.2,526.5,487,526,493.8
		z"/>
	<path class="st46" d="M445.3,706.8c-4.2,0-8.3,0-12.5,0c-8-0.6-15.9-0.5-23.9-0.2c-1.3,0-4.1,1.2-3.9-2.2c0.2-2.9,2.5-1.6,3.8-1.7
		c15.5-1,31-0.6,46.5-0.6c0.7,0,1.3,0.1,2,0.1c1.7,0.1,2.9,0.6,2.8,2.6c-0.1,2-1.4,2-2.8,2C453.3,706.7,449.3,706.7,445.3,706.8z"/>
	<path class="st47" d="M563.9,643.9c1.6,5.2,3.8,10.2,4.3,15.7c3.2,9,6.1,18,13.1,24.9c1.3,1.3,2.6,2.5,4.7,2.3
		c1.3,2.6,2.6,5.3,3.8,7.9c-5.8-2.4-10.6-5.9-14.6-10.4c-10.2-11.1-13.6-24.4-12.1-39.2C563.2,644.7,563.7,644.3,563.9,643.9z"/>
	<path class="st48" d="M330,17.8c0.7,0.4,1.4,0.8,2.2,1.1c2.7,1.3,6.1,2.8,6.2,5.7c0.1,2.4-3.7,2.7-5.8,3.9
		c-5.7,3.3-10.2,7.5-11.4,14.3c-0.4,0.4-0.9,0.5-1.4,0.5c-3.6-1.9-2.5-5.8-3.6-8.7C317.1,26,322.3,20.9,330,17.8z"/>
	<path class="st49" d="M537,290c0,3.9,0,7.9,0,11.8c-5,0-10-0.2-15,0.1c-4.4,0.3-6.1-1.6-5.9-5.8c0.1-2.2,0.1-4.3,0.1-6.5
		C523.1,289.8,530.1,289.9,537,290z"/>
	<path class="st50" d="M450.3,738.6c-6.5-1.3-13-0.4-19.5,0.2c-7.3-1.1-14.6-0.4-21.8-0.3c-1.6,0-3.9,1-3.8-2.2
		c0.1-2.7,2-2.3,3.5-2.3c15.6-0.1,31.2-0.1,46.8-0.1c0.8,0,1.6,0.2,2.5,0.3c1.5,0.2,2.4,1,2.2,2.6c-0.2,1.6-1.3,1.7-2.5,1.7
		C455.2,738.6,452.7,738.6,450.3,738.6z"/>
	<path class="st51" d="M552.1,281.8c5,0,10,0,15,0c-1.1,9.5-6,16.5-14.7,21.8C550.7,296.1,550.4,289,552.1,281.8z"/>
	<path class="st52" d="M135.2,299.9c0-3.6,0-7.1,0-10.7c6.3,1.3,12.7,0,19,0.7c1.5,3,0.8,6.2,0.9,9.2c0,1.2-0.3,2.5-1.8,2.5
		c-5.4,0-10.9,0-16.3-0.2C136.4,301.5,135.8,300.4,135.2,299.9z"/>
	<path class="st53" d="M521,475.8c-2-6.3-0.3-12.8-1-19.2c-0.2-2.1,1.3-5.7-1.7-5.8c-2.2,0-1.1,3.6-1.1,5.6
		c-0.1,16.1-0.1,32.3-0.1,48.4c-1.5-1.5-0.9-3.5-0.9-5.2c0-14.3-0.1-28.5,0.2-42.8c0.1-7.3-1-14.2-4.6-20.6
		c-0.6-1.1-0.9-2.1-0.7-3.3c0.1-2.7,2-1.1,3.1-1.3c1.1-0.1,2.4,0.4,2.9-1.1c0.4-1.5-0.3-2.5-1.6-3.3c-1.1-0.7-2.4-1.1-3.2-2.2
		c-1.4-1.8-3.5-0.9-5.2-1.3c4-4.3,13-1.9,15.1,3.9c0.5,1.3,0.6,2.6,0.4,3.9c-0.5,12.1,0.7,24.2,0.4,36.4
		C522.9,470.6,523.4,473.6,521,475.8z"/>
	<path class="st54" d="M336.2,112c4-0.2,7.9-0.7,11.8,0.6c2.2,0.7,4,1.6,4.2,4.3c0.8,1.4,0.3,2.5-1.2,2.1c-3.8-1-6.4,0.9-8.7,3.3
		c-1.4,1.5-3.3,1.9-5.2,2.5c-4.7-0.3-9.4,1.8-14.1-0.1c-1.4-6.1,0.5-9.2,6.3-10.4C331.6,113.8,334.2,113.9,336.2,112z"/>
	<path class="st55" d="M113.3,454.6c-0.1-2.3-0.2-4.6-0.3-6.9c2.6-7.6,7.7-13,14.8-16.6c1.6-0.8,3.2-1.8,5.2-1.2c0,4.8,0,9.6,0,14.4
		c0,1.7,0.2,3.4-2.4,3.3c-2.5-0.1-1.9-1.6-1.8-3.1c0.1-1.3,0.6-2.9-0.7-3.7c-1.5-0.9-2.3,0.8-3.3,1.5c-4.5,2.8-7.5,6.8-9.7,11.5
		C114.6,455.1,114.2,455,113.3,454.6z"/>
	<path class="st56" d="M149.9,429.5c0.1,15.5,0.1,30.9,0.2,46.4c0,4.6-1.3,9.7,3.8,12.9c0,4.4-0.1,8.9,0.1,13.3
		c0.2,3.4-1.7,3.7-4.3,3.6c-2.6-0.1-5.1,0.2-4.9-3.6c0.2-3.4,0.2-6.9,0.2-10.3c2.6-6.8,1.6-14.2,3.9-21c0-12,0-24,0.1-36
		C149.2,433,148.8,431.1,149.9,429.5z"/>
	<path class="st57" d="M603.2,581.7c-3.5,1.5-7.2,1.7-11,1c-3.4-4.8-3.8-10.3-3.6-15.9c2.4-2.1,5.3-3.1,8.3-3.9
		c4.2-0.6,6.2,1.7,6.6,5.5C603.9,572.8,606.3,577.4,603.2,581.7z"/>
	<path class="st58" d="M444.4,770.8c-5.2,0-10.4,0-15.6,0c-6.7,0-13.3,0.1-20-0.1c-1.3,0-3.6,0.9-3.8-1.8c-0.2-2.9,2.1-2.1,3.5-2.1
		c15.8-0.1,31.6-0.1,47.4-0.1c1.5,0,3.8-0.7,3.9,1.8c0.1,3.1-2.5,2-4.1,2.1C452.1,770.9,448.2,770.8,444.4,770.8z"/>
	<path class="st59" d="M243.4,770.9c-8,0-16.1,0-24.1,0c-1.3,0.6-2,2.8-4.1,1.7c-0.2-0.4-0.4-1.2-0.7-1.3c-1.8-0.5-2.5-1.6-2.1-3.3
		c0.5-2.1,2.4-1.4,3.7-1.4c9.4-0.1,18.9-0.2,28.3-0.1c6.1,0,12.3,0.3,18.4,0.6c1.5,0.1,3.4-0.1,3.1,2.1c-0.2,2.1-2.1,1.1-3.2,1.1
		C256.4,770.6,249.9,770.7,243.4,770.9z"/>
	<path class="st60" d="M105,282c5-0.1,10-0.2,15-0.3c0.1,5.5,0.1,11,0.1,16.4c0,1.2,0.5,2.9-1.2,3.4c-1.4,0.5-2.7-0.4-3.6-1.3
		C110.2,295.1,106.4,289.3,105,282z"/>
	<path class="st61" d="M555.2,447.7c-0.2,1.1-0.4,2.2-0.6,3.6c-3.2-3-6.2-5.9-9.2-8.6c-2.6-2.3-5.2-3.8-5.4,1.8
		c0,0.8-0.6,1.5-0.9,2.3c-1.6-0.6-0.6-2.5-1.8-3.2c0-3.6,0.1-7.3-0.1-10.9c-0.2-3.2,0.9-3.8,3.7-2.6c5.9,2.5,11,6,14.3,11.7
		C555.1,443.8,555.1,445.8,555.2,447.7z"/>
	<path class="st62" d="M521,475.8c0.1-15,0.2-30,0.3-45c2.7,0.5,2.4,2.7,2.4,4.6c0,2.9-0.1,5.9-0.1,8.8c0,2.2,0.4,4.2,2.5,5.5
		c0.7,14.7,0.1,29.3-0.2,44C526.3,487.2,519.7,482.6,521,475.8z"/>
	<path class="st63" d="M526.1,449.8c-2.8,1-4,0.6-4.1-2.9c-0.1-5.3,1.2-10.8-0.7-16.1c-0.8-6.7-6.7-9.6-14.3-7.1
		c-1.9,0.4-4.3,0.1-4.6-1.7c-0.3-2.4,2.3-2.2,4-2.5c4.5-0.8,9-0.5,13.4,0.5c4.1,0.9,6.5,3.9,6.5,8.3
		C526.3,435.5,526.2,442.6,526.1,449.8z"/>
	<path class="st64" d="M318.1,136.7c10.7-1.3,21.3-0.8,32,0.2c2.8,5.3,1.7,7.4-3.9,7.4c-7.3,0-14.5,0-21.7,0c-2-2.5-1.4-3.9,3.1-6.3
		C324,138,320.6,139.7,318.1,136.7z"/>
	<path class="st65" d="M120,251.8c-5.5,1.9-9.7,5.7-13.8,9.7c-2.1-0.6-0.6-2.6-1.3-3.7c1.8-9.3,7-16.3,15.1-22.9
		C120,241.3,120,246.6,120,251.8z"/>
	<path class="st66" d="M586.1,526.8c-3,2.2-5.7,5.1-9.8,4.9c-4.7-3.4-5.7-9.5-10-13.1c1.8-2.7,3.5-5.6,6.8-6.9
		c0.6-0.3,1.4-0.8,1.9-0.3C579.8,515.6,585.3,519.5,586.1,526.8z"/>
	<path class="st67" d="M79.1,564.9c1.2-0.4,2,0.7,3,0.9c1.9,5.7-0.6,10.8-2.1,16.1c-0.3,1.2-1.6,1.6-2.8,1c-2.7-0.5-5.6,0.3-8.2-1.2
		c-3-5.5-1.2-11,0.4-16.4c0.6-2,2.3-2.5,4.5-1.8C75.5,564.1,77.1,565.1,79.1,564.9z"/>
	<path class="st68" d="M94.1,531.9c-2.4-1.2-5.2-1.8-7-4.1c-0.6-0.8-1-1.7-0.9-2.7c0.2-3.9,8-13.2,12.1-14.3c2.7,1.9,5.2,4,6.8,6.9
		C102.3,523.2,99.4,528.5,94.1,531.9z"/>
	<path class="st69" d="M255.1,737.7c-3.7,0.4-7.3,0.8-11,1.1c0,0,0-0.3,0-0.3c-7.5-0.6-15,0.1-22.4-0.4c-2.9-0.2-3.5,3.9-6.5,2.4
		c-0.2-0.6,0.1-1.6-0.8-1.6c-2,0-2.4-1.1-2.3-2.8c0.2-2.2,1.7-2.2,3.2-2.2c7.5-0.1,15,0.2,22.4-0.2c7.1-0.3,14.1,1.2,21.3,1.1
		C260.3,739.3,256.1,736.3,255.1,737.7z"/>
	<path class="st70" d="M94.1,531.9c3.2-5.1,6.4-10.2,11-14.2c7.8,6.2,7.8,11.7,0.4,18.2c-1.2,1.1-2.3,0.9-3.6,0.2
		C99.3,534.7,96.7,533.3,94.1,531.9z"/>
	<path class="st71" d="M567.2,260.8c-1.7,2.8-2.1-0.5-2.5-0.8c-3.5-3.2-6.5-6.7-11.5-7.6c-2.4-0.5-0.5-3.3-1.9-4.4c0-2,0-4,0-6
		c1.9-1.8-0.8-4.1,0.8-5.9C561.1,241.8,565.5,250.5,567.2,260.8z"/>
	<path class="st72" d="M84.5,537.8c2.6,0.8,4.9,1.9,5.5,5c0,4.2-2,7.8-3.7,11.4c-0.7,1.6-2.1,2.5-4,1.8c-2.9-0.7-5.8-1.3-8.2-3.2
		c-0.6-5.5,2.1-9.9,4.8-14.2C80.2,536.4,82.4,536.6,84.5,537.8z"/>
	<path class="st73" d="M566.3,518.5c6.4,2.1,7.1,8.4,10,13.1c-3,0.7-3.9,3.8-6.4,5.3c-1.7,1-2.7,1.4-3.7-0.8
		c-1.2-2.5-2.9-4.8-4.4-7.2c-2.6-4.3-1.9-6.8,3.1-7.7C567.4,520.7,566.3,519.6,566.3,518.5z"/>
	<path class="st74" d="M597,552.8c-3.1,1.7-6.2,3.3-10,3c-3.6-4-5-9-6.3-14c1.4-1.8,3.3-3,5.5-3.8c3.4-1.7,5.8-0.4,7.2,2.7
		C595.2,544.5,599,547.9,597,552.8z"/>
	<path class="st75" d="M225.1,706.7c-2,0-3.9,0.1-5.9,0.1c-1.2,0.9-1.9,3-4,1.7c-0.2-0.6,0-1.6-0.8-1.6c-2.2,0-2.3-1.4-2.1-3
		c0.3-2,1.9-2,3.4-2c9.7,0.1,19.3,0.1,29,0.2c3.5,0.1,7,0.4,10.5,0.7c0.5,3.7-2,3.4-4.4,3.4C242.1,706.3,233.6,706,225.1,706.7z"/>
	<path class="st76" d="M388.1,407.8c1-1.6-0.3-3.2,0-4.9c8.9-0.2,17.9-0.3,26.8-0.6c2.7-0.1,3,1.2,3.2,3.2c0.3,3-1.5,3.4-3.8,3.1
		C405.7,407.5,396.9,408.2,388.1,407.8z"/>
	<path class="st77" d="M588.7,566.8c2.3,5,2.8,10.5,3.6,15.9c-2.5,1.6-5.6,0.2-8.2,2.2c-1.3,1.1-1.9-1.3-2.1-2.5
		c-0.5-3.1-0.8-6.2-1.2-9.3c-0.3-2.4,1.5-3.2,3-4.1C585.2,568.1,587,567.5,588.7,566.8z"/>
	<path class="st78" d="M580.8,541.8c3.9,3.9,4.7,9.1,6.3,14c-1.7,1.4-3.8,2-5.9,2.5c-1.5,0.3-2.9,2.3-4.5,0.4
		c-1.9-2.2,1.4-2.9,1.5-4.7c-0.7-0.4-1.5-0.7-2.2-1.1c-4.1-2.6-4.2-4.9-0.3-7.9C577.4,543.8,579.1,542.8,580.8,541.8z"/>
	<path class="st79" d="M77.2,583c1.6-0.2,1.9-1.3,2.2-2.8c0.8-4.8,1.8-9.6,2.7-14.3c2.5,1.2,4.2,3.2,4.5,6c2.1,0.2,0-2.2,1.5-2.4
		c3.7,4.5,0.4,9.3,0.9,13.9c0.1,0.7-0.8,1.4-1.3,1.1C84.4,582.5,80.4,585.1,77.2,583z"/>
	<path class="st80" d="M332.2,74.9c5.9-2.2,7.6-1.3,7.7,4.4c0.1,6-0.2,12,0.1,18c0.2,4.2-1.2,5.6-5.2,4.4c-1.5-1.4-1.3-3.3-1.3-5.1
		c0-5.3-0.1-10.6,0-15.9C333.7,78.6,333.2,76.7,332.2,74.9z"/>
	<path class="st81" d="M82.2,556c2-0.1,2.5-1.6,3.2-3.2c1.5-3.4,1.8-7.3,4.6-10.1c0.5,0,1.3-0.1,1.4,0.1c1.1,2.7,4.2,2.6,5.9,4.5
		c0.6,0.7,1.9,2,0.8,2.3c-3.9,1-2.5,4.3-2.7,6.4c-0.3,3.6-1.3,3.7-4.2,2.4C88.3,557.3,85.2,556.8,82.2,556z"/>
	<path class="st82" d="M278,857.6c-5.7-1-11.2-3.2-17.2-3c-12.9,0.3-25.8,0.1-38.8,0c-2.3,0-4.6,0.4-6.9-0.6
		c24.1-0.5,48.3-0.4,72.4,0.6c2.2,0.1,4.3,0,6.5,0.2c0.8,0.1,2.2-0.4,2.3,1.1c0.1,1.6-1.2,1.8-2.4,1.8
		C288.6,857.6,283.3,857.6,278,857.6z"/>
	<path class="st83" d="M79.1,564.9c-0.4,0.2-0.9,0.6-1.3,0.5c-7.6-0.8-7.7-0.9-8.5,6.8c-0.3,3.1-0.2,6.3-0.3,9.4
		c-6.7,0.1-6.8,0.1-5.5-6.4c0.9-4.5,1.4-9.1,2.4-13.6c0.6-2.4,1.2-2.3,2.8-1.7C72.2,561.7,75.6,563.3,79.1,564.9z"/>
	<path class="st84" d="M98.3,510.8c-4.9,4.9-9.9,9.8-11.1,17.1c-1.2-0.6-2.3-1.2-3.5-1.9c-1.9-1.2-2.9-2.3-1.1-4.6
		c2.6-3.2,4.5-6.9,7-10.2C93.6,505.7,93.7,505.8,98.3,510.8z"/>
	<path class="st85" d="M84.5,537.8c-2.8-0.5-4.6,0.5-5.6,3.3c-1.4,4-3.2,7.8-4.8,11.7c-4.5-0.4-5.4-2.8-3.6-6.7
		c1.6-3.6,3.4-7.2,4.5-10.9c1-3.3,2.5-2.9,4.6-1.3C81.1,535.1,82.8,536.5,84.5,537.8z"/>
	<path class="st86" d="M597,552.8c-0.9-4.6-3.4-8.5-5.4-12.7c-1.3-2.7-3.5-1.6-5.3-2.1c8.3-6.1,8.3-6.1,12.4,3.3
		c0.7,1.5,1.3,3.1,2,4.5C602.6,549.8,602,552.4,597,552.8z"/>
	<path class="st87" d="M586.1,526.8c-3.3-5.9-7.1-11.5-13.1-15.1c3.8-6.5,4.1-6.5,8.4-0.8c2.4,3.2,4.6,6.4,6.9,9.7
		C590.5,523.6,590.2,525.9,586.1,526.8z"/>
	<path class="st88" d="M139.7,328.1c-5,0.1-7.7-2.3-8.9-7.6c-0.8-3.5-0.6-6.9-0.6-10.4c0-1.3,0.5-2.3,2-2.3c1.5,0,1.9,0.9,2,2.3
		c0.1,2,0.3,4,0.4,5.9c0.4,5,2.8,7.7,8.1,7.5c1.2-0.1,1.3,0.8,1.1,1.7C143.2,327.1,142.1,328.4,139.7,328.1z"/>
	<path class="st89" d="M215.2,740.5c3.4-3,7.6-2.9,11.7-2.7c5.7,0.2,11.5-0.9,17.2,0.7c-6.6,0.1-13.1,0.5-19.7,0.2
		c-4.6-0.2-5.9,1.5-5.4,5.7c0.3,2,0.2,4,0,5.9c-0.4,3.8,1,6.3,4.9,7.2c-10.7,0.4-9.8,2-9.8-9.3C214.2,745.7,214.4,743.1,215.2,740.5
		z"/>
	<path class="st90" d="M280.1,402.8c0.7,3.8-0.7,5.3-4.7,5.2c-3.4-0.1-6.9-0.8-10.3,0.7c-2,0-4,0-6,0c-1.7-1.9-1.6-3.9-0.1-5.8
		C266,402.8,273,402.8,280.1,402.8z"/>
	<path class="st91" d="M603.2,581.7c-0.4-3.7-0.9-7.4-1-11.2c-0.1-3.7-0.9-6.9-5.2-7.7c7.6-4,7.6-4,9.3,4.6c0.6,3.2,1,6.5,1.6,9.7
		C608.5,581.1,607.1,582.6,603.2,581.7z"/>
	<path class="st92" d="M540.9,312.9c0.6,4-0.3,6.9-1,9.7c-0.4,1.8-1.2,3.7-2.9,4.4c-2.1,0.9-4.8,3.3-6.6,0.5
		c-1.7-2.5,1.4-3.6,3.1-4.7c2.7-1.7,3.7-4.1,3.5-7.2c0-0.7,0-1.3,0-2c0.3-2.3-0.9-6.2,2.1-6.2C542.8,307.6,540.1,311.7,540.9,312.9z
		"/>
	<path class="st93" d="M336.2,112c0.7,3-2,3.6-3.5,3.5c-7-0.6-9.1,3.4-9.7,9.3c-2.7,0.6-3.9-0.1-3.9-3.2c-0.1-7.1,2.1-9.6,9.1-9.7
		C330.9,111.7,333.5,111.9,336.2,112z"/>
	<path class="st94" d="M337,124.8c0.9-0.7,2.1-1.2,2.7-2.1c3.2-4,7.2-6.2,12.4-5.8c2.2,6.3,1.6,7.5-4.5,8.7
		C344.1,126.2,340.5,126,337,124.8z"/>
	<path class="st95" d="M322.9,143.7c7.9,0.1,15.8,0.2,23.7,0.2c5.7,0,2.3-4.6,3.4-7c1.6,0.1,3.3,0.1,4.9,0.4c2.9,0.6,4.3,2.5,4,5.4
		c-0.3,3.1-3,2.1-4.7,2.2c-9.6,0.1-19.3,0.1-28.9,0c-1.5,0-3,0.2-4.3-0.9C321.6,143.4,322.2,143.3,322.9,143.7z"/>
	<path class="st96" d="M476.9,857.6c-0.7-2.4-2.4-2.7-4.6-2.7c-4.4,0.1-8.9,0-13.2-1c11.9-0.5,23.8,0.2,35.7,1c0.8,0.1,1.8-0.1,2,1
		c0.2,1.5-1,1.5-2,1.5C488.8,857.6,482.8,858.3,476.9,857.6z"/>
	<path class="st97" d="M215.2,708.5c1.4-0.5,2.3-2,4-1.7c0,6.3-0.1,12.5-0.1,18.8c-3.5,0.8-4.8-0.8-4.8-4.2
		C214.3,717.1,214.3,712.8,215.2,708.5z"/>
	<path class="st98" d="M322.9,143.7c-0.6,0.1-1.2,0.2-1.9,0.3c-1,0-2,0.1-2.9-0.2c-1.4-0.4-3.9,1.7-4.2-1.5
		c-0.2-2.8-0.1-5.8,4.1-5.7c3.3,0,6.5,0,10.8,0C326.1,139.2,325.5,142.2,322.9,143.7z"/>
	<path class="st99" d="M512.3,425c1.8,0.6,3.8,0.1,5.4,1.6c1.8,1.6,1.6,3.6,1,5.4c-0.8,2.4-2.7,1.6-4.5,1c-1-0.3-2.1-1.3-3.2-0.2
		c-0.5-0.6-1.1-1.1-1.5-1.8c-1-1.5-3.6-2.4-2.3-4.8C508.3,424.4,510.6,425.4,512.3,425z"/>
	<path class="st97" d="M225.1,706.7c8.3-2.1,16.7-0.3,25-1c2.3-0.2,4.3-0.3,5-2.9c2.8,0,5.6-0.1,8.4-0.1c1.5,0,2.7,0.4,2.6,2.2
		c-0.1,2.1-1.8,1.5-3,1.6c-6.6,0.1-13.3,0.2-19.9,0.3C237.2,706.3,231.1,707.7,225.1,706.7z"/>
	<path class="st100" d="M332.2,74.9c2.1,1.1,2.9,2.9,2.9,5.3c-0.2,7.1-0.1,14.3-0.2,21.4c-2.2,0.6-2.9-0.3-2.9-2.5
		C332.2,91.1,332.2,83,332.2,74.9z"/>
	<path class="st101" d="M560,507.8c-1.1,0.8-0.6,2.2-1.2,3.1c-1.2,2-2.8,4.7-4.9,4.4c-2.3-0.4-4.4-2.6-6.3-4.3c-0.9-0.8,0.2-2.4,1-2
		c5.1,2.4,5.3-2.9,7.7-4.7c0.3-0.2,0.5-0.4,0.8-0.6C559.3,504.1,561.4,504.7,560,507.8z"/>
	<path class="st102" d="M67.1,591c3.6-0.1,7.3-0.2,10.6,1.6c1.5,0.8,2.7,2.2,2.2,4c-0.6,2.2-2.5,1-3.7,1c-3.1-0.2-6.2-0.6-9.3-1
		C65.6,594.7,66.2,592.9,67.1,591z"/>
	<path class="st103" d="M560,507.8c0.3-2.3-2-2.7-3-4.1c1.9-2.1,3.9-4.1,5.8-6.2c2.9,0.1,5,1.2,5.4,4.3
		C565.8,504.3,565.4,509.5,560,507.8z"/>
	<path class="st104" d="M215.2,772.6c1.4-0.5,2.4-2,4.1-1.7c-0.1,4.8-0.7,9.7,0.7,14.7c-1.6,0.1-3.2,0.2-4.8,0.2
		C213.3,781.4,215.3,777,215.2,772.6z"/>
	<path class="st105" d="M497.2,437.6c-2.2,3.5-2.4,0-3.2-1c-0.7-0.8-1.1-2.1-2.4-1.9c-0.3,0.1-0.4,1.4-0.6,2.2
		c-2.3,0.2-2.2-1.8-2.9-3.1c-2.6-3.8-6.3-6.4-10.1-8.9C486.7,425.8,492.7,430.5,497.2,437.6z"/>
	<path class="st106" d="M109.2,497.7c1.3,1.2,2.5,2.6,3.9,3.7c3.1,2.4,0.8,4-0.6,6c-2.1,3.1-2.9-0.2-4.1-0.8
		c-1.3-0.6-2.7-1.3-3.3-2.9C104.3,500.3,106.3,498.7,109.2,497.7z"/>
	<path class="st107" d="M157.9,434.7c-3.3,0.6-4.1-1.5-5-4.1c-1-3.1,1.9-2.5,2.8-3.6c1.7-1.9,4.3-1.1,6.6-1.4c2,1.5,0.3,2.3-0.6,3.4
		C160.4,430.8,159.2,432.8,157.9,434.7z"/>
	<path class="st108" d="M600.3,596.6c-1.9,0.4-3.9,0.8-5.8,1c-1.3,0.1-3.2,1-3.6-1.2c-0.3-1.9,0.7-3.2,2.4-3.8
		c3.1-1.1,6.2-2.1,9.6-1.6C602.2,592.9,602.4,595.3,600.3,596.6z"/>
	<path class="st109" d="M149.1,470.8c0.2,7.3,1.3,14.7-3.9,21c-0.1-3.7-0.7-7.3,0-11C147.1,477.7,145.3,473.1,149.1,470.8z"/>
	<path class="st110" d="M600.3,596.6c1.7-1.5-1.1-5.1,2.6-5.6c1.5,0,3.1-0.4,4.4,0.1c2,0.8,1.7,3,1.7,4.8c-0.1,2.9-2.1,1-3.2,1
		C603.9,596.9,602.1,596.7,600.3,596.6z"/>
	<path class="st111" d="M109.2,497.7c-1.4,2-3.3,3.6-4.1,6.1c-1.2-2.1-6.8-2.4-3.1-6.7C105.7,492.8,105.8,492.8,109.2,497.7z"/>
	<path class="st112" d="M316.2,34.7c3.6,1.7,1.7,5.9,3.8,8.2c0.9,1.2,2.8,2,1.8,4.1c-1.4,1.1-3.2-0.5-4.5,0.8
		C315.9,43.5,313.6,39.3,316.2,34.7z"/>
	<path class="st113" d="M568.2,501.9c-1.8-1.4-3.6-2.9-5.4-4.3c0.2-1.4,0.4-3.7,1.9-3.5c2.6,0.4,4.5,2.7,5.9,4.8
		C571.6,500.3,569.5,501.2,568.2,501.9z"/>
	<path class="st114" d="M255.1,737.7c0.7-1.7,3.9-0.3,3.9-2.9c2.4-0.2,4.9-1,6.9,1c0.3,0.3,0.3,1.5,0,1.9c-2.1,1.9-4.7,0.9-7,1
		C257.7,738.6,256.4,738,255.1,737.7z"/>
	<path class="st115" d="M67.1,591c1.5,1.9-0.2,3.8-0.2,5.7c-1.5,0-3.4,1.4-4.5,0c-1-1.2-0.7-3.2,0-4.6
		C63.4,589.8,65.5,590.9,67.1,591z"/>
	<path class="st116" d="M259,402.8c0,1.9,0,3.9,0.1,5.8c-2.1,0-4.8,1.4-4.7-2.6C254.4,402.7,256,401.8,259,402.8z"/>
	<path class="st117" d="M466.1,163.8c-4.8-1.2-9.5-2.7-14.1-4.7c3.3,0,6.6,0,9.9,0C461.6,162.1,465.4,161.6,466.1,163.8z"/>
	<path class="st92" d="M525.8,327.8c-1.4-0.1-3.1,0-3.1-1.8c0-1.6,1.6-2.1,2.9-1.7c1.1,0.3,3.1,0.2,3.1,1.9
		C528.8,328.3,526.9,327.6,525.8,327.8z"/>
	<path class="st4" d="M370,831.8c0.1,4.9,0.1,9.8,0.2,14.7C368.2,841.7,368.6,836.8,370,831.8z"/>
	<path class="st36" d="M552.1,235.9c-0.6,2.5,2,3.1,3,4.8c-0.9,2-2.9-0.3-3.8,1.2C551.8,239.9,549.9,237.6,552.1,235.9z"/>
	<path class="st118" d="M481.1,457.8c-2.2,1-3.5,2.3-2.5,5c0.5,1.5,0.4,3.3,0.6,4.9c0.9,1.9,0.8,4.1,0.3,5.9
		c-2.2,7.5,0.2,15.1-0.7,22.6c-0.9,7.2-0.1,14.6-0.1,21.9c-0.1,19.4-0.3,38.8,0,58.2c0.2,10.6-0.6,21.2,0.9,31.7
		c-0.1,4.3-0.6,8.6-1.1,12.8c-0.8,6.9-4.2,12.5-9.7,16.7c-2.3,1.8-4.8,3-7.8,1.4c-2.8-1.4-5.8-1.3-8.8-1.3
		c-29.9-0.1-59.9-0.5-89.8,0.1c-28,0.6-55.7-3.4-83.7-2.7c-16.8,0.4-33.6,0.1-50.4,0c-2.3,0-5.2,0.9-6.5-2.3c2.1-2.6,5.1-2,7.9-2.1
		c16.6-0.1,33.2-0.3,49.9,0c11.8,0.2,23.5-1.4,35.3-1.1c2.3,0.1,3.8-0.9,5.1-2.5c1.3-1.3,3-2,4.6-2.9c6.2-3.7,9.6-9,9.6-16.3
		c0-10,0.1-20,0-29.9c-0.1-10.1-6.7-17.2-16.7-18.3c-2.2-0.2-4.3-0.2-6.5-0.2c-29.6,0-59.2,0-88.8,0c-13.4,0-17.7,3.1-22.6,15.8
		c-0.4,1.1-0.8,2.2-2.1,2.6c-1.8-0.8-2-2.5-2.3-4.2c-0.2-1-0.2-2-0.2-3c0.5-28.5-1.7-56.9-1.1-85.4c0.1-5.2,0.5-10.3,1.3-15.4
		c2.2-13.5,12.3-22.1,25.9-22.1c44.6-0.1,89.3,0,133.9,0c1,0,2,0,3,0.1c2.1,0.4,4.3,0.3,6.5,0.3c29.2,0,58.5,0,87.7,0
		c2.3,0,4.7-0.2,7,0.2c0.9,0.2,1.9,0.4,2.8,0.8c8.2,4.1,13,10.3,12.9,20c-0.1,44.3-0.1,88.6,0,132.8c0,2.4-0.2,4.8,0.8,7
		c-1.3-2.3-0.8-4.9-0.8-7.4c0-44.1-0.1-88.2,0.1-132.3c0-9.5-4.5-15.6-12.3-19.9c-4-2-8.2-2.4-12.5-2.3c-15,0.1-29.9,0.3-44.9,0
		c-20.1-0.4-40.2-0.5-60.3-0.6c-2.5,0-5.1,0.3-7-1.8c0.6-4.2-0.7-5.5-5.1-5c-2.4,0.3-4.7,1.8-7.2,0.3c0.1-0.3,0.2-0.9,0.3-0.9
		c8.1-0.4,16.3-2.6,24.2-1.1c5.2,1,10.5,4.2,15.7,2.5c9.5-3.2,18.4-2.8,27.8,0c3.2,1,6.7-0.3,10.2-2.1c4-2.1,9.7-1.7,14.2-0.2
		c5.9,1.9,11.3,1.4,17.1,0.6c9-1.1,18-2.7,27.1-1.2c0.2,0,0.3,0,0.5,0c1.8,0.3,4.7-2.3,5.3,0c0.7,2.9-3.1,3.2-5.1,4.4
		c-0.1,0.1-0.2,0.3-0.3,0.5c0.9,1.7,2,2.7,3.8,1.1c1-0.9,2.1-1.6,3.4-2c2.6-0.9,5.6-1.7,7.3,0.8c1.4,2.1-0.3,4.4-1.7,6.3
		c-0.9,1.3-2.8,2.5-1.5,4.3c1.1,1.6,2.7,0.2,4.1-0.1C484.1,451.7,480.3,456.1,481.1,457.8z"/>
	<path class="st119" d="M462.1,638.9c8.6-2.4,14.9-10.8,15.1-20.8c0.1-3.1,0.4-6.2,0.9-9.2c0.7-1.2,1.4-2.1,2.9-1.2
		c2.2,15.9,3.1,29-14,37.9c-5.5,3-11.4,4.2-17.7,4.2c-35.3-0.1-70.6-0.1-105.9,0c-4.2,0-8.3-0.8-12.5-0.5c-29.5,1.1-59,0.2-88.5,0.5
		c-2.3,0-4.7,0.1-6.5-1.8c-8.6-0.9-17.3,1.2-25.9-1.1c-13.6-3.6-21.3-14.4-20.5-28.5c0.2-3.6-0.6-7.2,1.4-10.5
		c2.4,0.6,2.5,2.8,2.9,4.6c0.7,3.2,1.5,6.3,2.6,9.3c4,10.1,11.8,15,22.4,16.1c11.3-0.2,22.6-0.1,33.9-0.1
		c16.8-0.1,33.5,0.9,50.3,0.2c9.3-0.2,18.6-0.8,27.9,0.6c2.3,0.3,4.7,0.2,7,0.2c36.1,0,72.2-0.1,108.3,0.1
		C451.6,638.9,456.9,637.1,462.1,638.9z"/>
	<path class="st120" d="M195.4,622.7c-2.7-4.6-2.1-10.1-4.3-14.8c0-40,0.1-80,0.2-119.9c0-6.3,0-12.6,0.8-19
		c1.6-12.5,12.1-22.7,24.7-23.3c36.5-1.6,72.9-0.7,109.4-0.5c4,0,8-0.2,12-0.3c14.8,0.1,29.6,0.2,44.4,0.3
		c24.5,0.2,48.9,0.5,73.4,0.6c2.9,0,4.7,2.1,7.1,3.1c0.2,0.9,0,1.4-1.1,1.1c-0.6-0.1-1.3-0.1-1.9-0.2c-1.1-0.5-2.3-0.4-3.4-0.4
		c-31.7,0-63.4,0-95.1,0c-1.1,0-2.3-0.2-3.4,0.4c-46.3,0-92.5,0.4-138.8-0.1c-11.2-0.1-21.3,12.1-22.2,21.2c-0.5,5-0.8,10-0.8,14.9
		c0.2,29.1,0.6,58.3,0.9,87.4c0,1.6-0.3,3.4,0.7,4.9c1.1,0.7,1.7,1.7,1.7,2.9c0.3,9,1.3,18.1-0.6,27.1c-0.6,0.8-1.5,1.7-2.1,0.2
		c-0.6-1.5-0.5-3.2,0-4.8c-1.8,4.1,2.4,7.3,1.7,11.2c-0.1,1.6,0.6,3.2,0.5,4.8C199,621.6,198.6,623.9,195.4,622.7z"/>
	<path class="st121" d="M236.1,647.9c31.6,0,63.3,0,94.9,0.1c0.8,1.6,2.3,0.6,3.5,0.8c4.6,0.9,5.5,3,2.7,6.9
		c-18.4,0-36.9-0.6-55.3,0.3c-16.6,0.8-33.1,0.4-49.7,0.7C234.8,654.4,233,650.1,236.1,647.9z"/>
	<path class="st122" d="M180.7,438.9c0.7-0.7,1.4-1.3,2.1-2c2.4-0.5,4.8-0.8,7.2,0.4c4.6,2.1,6.8,7.1,5,11.5
		c-1.6,3.9-7.6,6.5-11.2,4.8c-4.8-2.3-6.5-7.1-4.3-12C180,440.8,180.4,439.8,180.7,438.9z"/>
	<path class="st123" d="M206.1,433.1c2.8,0,3.7,1.8,3.5,3.9c-0.2,2.3-0.7,4.8-3.8,4.8c-2.6-0.1-3.6-1.9-3.8-4.3
		C201.8,434.4,203.8,433.5,206.1,433.1z"/>
	<path class="st124" d="M488.1,433.8c1,1,1.9,2.1,2.9,3.1c0.2,2.4,2.9,3.5,3.2,5.8c-0.9,2.7-2,0.7-2.4-0.1c-1.4-2.5-3.7-4-5.6-5.9
		C486.8,435.8,487.4,434.8,488.1,433.8z"/>
	<path class="st125" d="M186.1,465.8c0.3,2.5-2,1.9-3.4,2.3c-1.6,0.5-1.6-0.6-1.6-1.7c0-1.8,0.5-3.4,2.7-3.5
		C185.4,462.9,186,464,186.1,465.8z"/>
	<path class="st126" d="M185.2,473.2c0,1.4-0.3,2.3-1.6,2.2c-1.5,0-1.9-1.2-2-2.3c-0.1-1.3,0.7-2.2,2-2.1
		C185.2,471,185,472.4,185.2,473.2z"/>
	<path class="st121" d="M225.2,656.8c-4.6,1.8-9.4,0.6-14,0.9C215.7,655.8,220.5,657.1,225.2,656.8z"/>
	<path class="st127" d="M337.1,655.8c1.2-5.3,1.2-5.4-8-6.3c0.7-0.5,1.3-1,1.9-1.4c24.3-0.1,48.6-0.2,72.9-0.2
		c16.7,0,33.3,0.2,50-0.1c4.4-0.1,8.8-1.3,13.2-2.1c-1.4,2.2-3.7,3.3-6,4.2c-0.8,0.3-1.8,0.4-2.3,1c-6.4,8-15.7,4.4-23.3,4.6
		C402.7,656.3,369.9,655.8,337.1,655.8z"/>
	<path class="st128" d="M481.1,607.7c-1,0.4-2,0.8-2.9,1.2c-1.1-47-2.5-94.1,1-141.1c1.3,1.6,0.9,3.5,0.9,5.3
		c0.1,42.4,0.1,84.9,0.1,127.3C480.1,602.8,480.3,605.3,481.1,607.7z"/>
	<path class="st129" d="M177.1,353c-1.2-2.2-3.1-3.9-3.8-6.4c2.8-0.1,2.7-1.9,2.1-3.9c-2.3-8-2.1-16.1-2.1-24.3
		c0-35.3,0.5-70.6-0.3-105.9c-0.6-28.3,21.5-45.4,46.1-45.4c48.1,0,96.3,0,144.4-0.1c31,0,62-0.1,92.9-0.2c4.2,0,8.3,0.1,12.3,1.5
		c1.4,0.5,2.9,1.1,4.1-0.4c13.6,9.3,21.6,21.8,22.1,38.5c0.4,13.3,1.3,26.5,0.7,39.8c-1.2,28.1,0.3,56.3-0.9,84.4
		c-0.6,14-13.5,29.3-29.7,29.6c-52,1.1-103.9,0.5-155.9,0.3c-16.5-0.1-33-0.8-49.4-0.4c-13.3,0.4-26.6,0.6-39.9,0.6
		c-7.3,0-14.7,0.1-21.9-1.1c-5.6-1-10.6-4.4-14.5-9c-1.8-2.1-3.5-4.3-5.6-6.9C176.5,347.1,180,350.4,177.1,353z"/>
	<path class="st130" d="M193.5,831.7c-3.6,0-6.4-2.9-6.3-6.8c0.1-4.1,2.9-5.4,6.2-5.8c3.2-0.4,6.5,3.4,6.5,6.9
		C199.7,829.1,196.9,831.6,193.5,831.7z"/>
	<path class="st131" d="M236.4,813.7c3,0.1,4.2,1.8,4.3,4.1c0.1,2.3-1.4,3.7-3.7,3.8c-2.5,0-4-1.3-3.9-4
		C233.3,815.4,234.2,813.8,236.4,813.7z"/>
	<path class="st132" d="M397,826c0.1,4-3.5,7.7-7.4,7.7c-4.3,0-8.3-3.8-8.4-8.2c-0.1-3.4,4.1-7.5,7.9-7.6
		C393.1,817.8,396.9,821.6,397,826z"/>
	<path class="st133" d="M434.9,813.7c2.6,0.2,4,1.4,4.2,3.8c0.2,2.7-1.5,4.1-3.9,4.1c-2.2,0-3.2-1.5-3.2-3.6
		C432,815.8,432.6,814,434.9,813.7z"/>
	<path class="st134" d="M56,627.8c-2.5,0.2-3.8-1.2-3.9-3.8c-0.1-2.7,1.3-4,3.9-4.1c2.7-0.1,4.8,1.1,4.9,3.8
		C60.9,626.2,59.1,627.9,56,627.8z"/>
	<path class="st135" d="M525.3,242.8c-2.7-0.1-4.5-2.1-4.5-6c0.1-3.6,1.6-6.2,5.3-6.7c2.7-0.4,6.4,3.6,6.2,6.7
		C532.1,240.2,530.6,242.9,525.3,242.8z"/>
	<path class="st136" d="M137.1,236.3c0.7-3.4,2.6-6,6.5-6.2c3.4-0.1,6,3.5,5.6,7.5c-0.4,3.8-2.8,5.5-6.5,5.3
		C138.8,242.6,137.3,240.1,137.1,236.3z"/>
	<path class="st137" d="M321.8,47c-0.6-1.4-1.2-2.7-1.8-4.1c0.4,0,0.8,0,1.2-0.1c3,4.8,6.3,9.1,12.9,8.1c1.1-0.2,1.8,0.6,1.9,1.8
		C330.4,52.9,325.3,51.9,321.8,47z"/>
	<path class="st138" d="M270.2,547.8c-14.7,0-29.3-0.5-44,0.2c-13.3,0.6-19.5-9.4-21.4-18.1c-1.3-5.8-0.6-11.6-0.6-17.4
		c0-9,0.8-18,0-27c-1-11.9,6.5-23.5,23.4-23.5c21.5,0.1,43,0.1,64.5,0.2c9,0,18-0.3,26.9,0.5c10.4,0.9,18.4,8.4,18.7,18.7
		c0.6,16.1,1.1,32.3-0.5,48.4c-1.1,11.6-9.1,18-20.6,18C301.2,547.8,285.7,547.8,270.2,547.8z"/>
	<path class="st139" d="M198.1,608.7c0-10.2-0.1-20.5-0.1-30.7c1.5-13.7,8.4-20,22.2-20.1c31.5-0.1,62.9,0,94.4,0
		c5.5,0,10.6,1,14.8,4.9c4.5,4.2,7.1,9,6.9,15.4c-0.2,9.7-0.1,19.3-0.2,29c-0.1,11.2-4.3,17-15,20.8c-2.2,1.3-4.6,1.8-7.1,1.8
		c-31.4,0-62.8,0.1-94.2-0.1C206.4,629.5,198.6,621.7,198.1,608.7z"/>
	<path class="st140" d="M360.1,516.8c-4.5-17.6-1.7-34.2,10.7-47.4c21.3-22.8,52.4-25.2,73.8,1.7c10.8,13.6,12.4,29.2,9.4,45.7
		c-5.1,16.9-16.9,27.9-33.1,33.3c-10,3.3-20.9,2.6-30.9-1.5c-12.7-5.2-23.1-13.2-28.5-26.4C360.8,520.4,360.3,518.7,360.1,516.8z"/>
	<path class="st141" d="M195.4,622.7c2.3-0.3,3.1-1.7,2.3-3.8c-0.5-1.4-0.6-2.8-0.4-4.3c2.6,0.4,2.6,2.8,3.2,4.5
		c2.8,7.8,7.6,12.7,16.5,12.2c1.8-0.1,3.7-0.2,5,1.6c2.2,1.3,4.6,0.8,6.8,0.8c26.6,0.1,53.4-1.1,79.9,0.4
		c48.4,2.8,96.8,0.7,145.2,1.8c2.9,0.1,6.5-0.8,8.2,2.9c-4.9,2.2-10.2,1.6-15.2,1.6c-47.9,0.3-95.8,0.6-143.8-0.9
		c-1.2-0.4-2.2-1.5-3.7-1.4c-27.2,0.4-54.3-1.9-81.5,0.2c-0.3,0-0.6,0.2-0.9,0.4C206.1,638.6,199.5,632.3,195.4,622.7z"/>
	<path class="st142" d="M426.1,611.8c-13.2,0.2-24-10.4-23.8-23.6c0.2-13.3,12.2-23.3,24.4-23.4c11.3,0,22.3,11.3,22.3,23.2
		C449.1,601.3,439.1,611.6,426.1,611.8z"/>
	<path class="st143" d="M344.1,588.2c0.1-12.5,11-23.4,23.2-23.3c11.3,0.1,22.1,11.8,21.8,23.7c-0.3,12.6-10.8,23.4-22.5,23.2
		C354.7,611.5,343.9,600.2,344.1,588.2z"/>
	<path class="st144" d="M360.1,516.8c5.2,11.4,12.6,20.7,23.8,27.1c15.3,8.7,40.3,9.6,55.4-6.7c5.8-6.2,11.1-12.7,14.7-20.4
		c-0.5,11.5-5.8,20.9-14,28.2c-13.8,12.3-30.1,15.9-47.8,10.7c-18.3-5.3-28.8-18.1-32.7-36.6C359.3,518.4,359.9,517.6,360.1,516.8z"
		/>
	<path class="st145" d="M221.9,632.9c-1.2,0-2.3-0.1-3.5,0c-13.1,1-17-5.9-19.9-15.1c-0.3-1.1-0.8-2.1-1.3-3.2
		c-0.2-4.1-1.4-8.1-0.7-12.3c1.1,2-0.5,4.6,1.5,6.3c1.9,3.1,2.3,6.8,4.3,9.9c4.1,6.4,9.6,9.2,17,9.2c32.6-0.1,65.2,0,97.7,0
		c1.3,0,2.7,0,4,0.1c-1.1,3.6-3.8,3.8-7.1,4C283.4,633.3,252.6,632.4,221.9,632.9z"/>
	<path class="st146" d="M443.1,555.5c0.1-6.3,4.5-10.6,10.6-10.6c6.3,0,12.4,6.1,12.2,12.1c-0.2,5.7-6.2,10.9-12.2,10.8
		C447.1,567.6,442.9,562.8,443.1,555.5z"/>
	<path class="st147" d="M462,449.9c0.4-0.4,0.7-0.7,1.1-1.1c7.5,2.8,13,11.1,13,20c0.1,42.6,0.1,85.3,0.1,127.9c0,4.8,0,9.7,0,15.2
		c-2.1-4-2-7.6-2-11.2c-0.1-43-0.4-86,0-128.9C474.2,461.6,471.1,454.4,462,449.9z"/>
	<path class="st147" d="M358.1,449.7c1.4-1.3,3.1-0.9,4.8-0.9c30.8,0,61.6,0,92.4,0c1.6,0,3.4-0.4,4.8,0.9
		C426.1,449.7,392.1,449.7,358.1,449.7z"/>
	<path class="st148" d="M453.1,611.9c3.8-3.2,6.4-1,8.4,2.1c2.1,3.1,0.9,7.5-2.3,9c-2.1,1-3.9,0.7-4.2-2.2
		C455.3,617.6,455.6,614.5,453.1,611.9z"/>
	<path class="st149" d="M452,461.9c-1.8-2.7-1.2-5,1.3-6.7c1.7-1,3.7-0.8,4.8,1c1.5,2.6,1.8,5.2-0.9,7.4
		C455.1,464.2,453.3,463.8,452,461.9z"/>
	<path class="st150" d="M351.2,546.7c2.4-3.2,4.1-0.5,5.4,0.9c2.1,2.2,2.3,4.8-0.1,7c-1.6,1.4-3.3,3.3-5.7,1.2
		c-0.1-0.1,0.2-0.6,0.3-0.9C351.7,552.2,350.8,549.4,351.2,546.7z"/>
	<path class="st151" d="M453.1,611.9c4.7,2.2,5,3.4,2,8.9c-2-0.1-4-0.4-4.7-2.7C449.4,615.3,451.3,613.6,453.1,611.9z"/>
	<path class="st152" d="M351.2,546.7c3.1,2.8,3.4,5.5-0.1,8.2c-3,0-4.7-1.5-4.6-4.4C346.5,547.6,348.5,546.6,351.2,546.7z"/>
	<path class="st153" d="M452,461.9c1.7,0.6,3.5,1.2,5.2,1.8c-0.4,2.3-1.8,3.8-4.1,3C450.8,465.8,450.6,463.9,452,461.9z"/>
	<path class="st154" d="M217.1,638.8c-0.6-1.6,0.1-1.9,1.6-2.1c16.4-1.7,32.8-0.8,49.2-0.7c9.9,0.1,19.8,0.8,29.6,0.5
		c3.2-0.1,4.5,0.7,5.6,3.1c-27.6,0-55.1-0.1-82.7-0.2C219.3,639.5,218.2,639,217.1,638.8z"/>
	<path class="st155" d="M199,255.9c-0.9-31.9,23.7-59.3,58.2-59.5c31.8-0.2,59.4,24.2,59.3,59.9c-0.1,33.6-24.2,58.4-59.1,58.6
		C225.6,315,198.7,289.8,199,255.9z"/>
	<path class="st156" d="M472.2,255.6c0.6,29.9-22.1,57.6-56.5,59.1c-31.8,1.3-60.3-21.6-60.9-58.3c-0.5-27.6,20.1-58.8,57.1-60
		C444.1,195.4,472.3,221.7,472.2,255.6z"/>
	<path class="st157" d="M335.9,338.7c-11.5,0.1-21.5-6.6-24.3-16.2c-1.6-5.3,0.6-9.8,4.9-9.8c2.5,0,4.3,1,4.5,3.6
		c0.7,6.8,5.4,9.5,11.2,11c9.7,2.5,17.4-1.8,20-11.1c0.6-2.2,1.8-3.4,4.2-3.5c2.2-0.1,3.8,0.5,4.8,2.7c1.5,3.2,0.8,6.2-0.5,9.1
		C356.4,333.9,348,338.7,335.9,338.7z"/>
	<path class="st158" d="M225.1,334c0,7-7,14.4-13.7,14.6c-7.6,0.2-15-7.1-15.1-14.9c-0.1-7.8,7.2-15,15-14.8
		C218.5,319.2,225.2,326.5,225.1,334z"/>
	<path class="st159" d="M444.8,333.3c-0.1-7.4,6.6-14.3,13.9-14.2c7.3,0.1,14.3,7.1,14.4,14.6c0.1,7.6-6.1,14.8-13.1,15
		C452.2,349,444.9,341.5,444.8,333.3z"/>
	<path class="st160" d="M187.2,201.6c-0.9-0.7-1.7-1.4-2.6-2.2c-3.4-2.9-4.7-6.8-3-10.7c1.5-3.5,4.6-6.2,8.9-5.8
		c4.7,0.5,7.4,3.4,8.3,7.9c0.3,1.3,0.2,2.6,0.3,4c1.5,3.8-1.5,5.5-3.8,7.1C192.7,203.8,189.8,204.1,187.2,201.6z"/>
	<path class="st161" d="M469.2,198.7c-1.4-2.9-2.8-5.7-1.4-9c1.6-4.1,6.3-6.8,9.9-5.6c5,1.6,7.8,6.6,6.5,11.7c0,4.6-3,6.5-6.8,7.1
		C473.9,203.6,470.5,203.1,469.2,198.7z"/>
	<path class="st162" d="M187.2,201.6c6.9,0.8,9.2-0.5,12-6.8c3-0.2,3.3,1.7,2.8,3.9c-0.9,4.7-8.2,8.6-12.7,7
		C187.1,205,188,202.9,187.2,201.6z"/>
	<path class="st163" d="M469.2,198.7c6.4,5,10.3,4.2,15-2.9c2,2.9,1,5.2-1.2,7.5c-3.1,3.3-7.1,3.4-10.7,1.9
		C470.3,204.3,467.3,202.3,469.2,198.7z"/>
	<path class="st164" d="M341,196.6c4.3-0.5,4.6,3.1,4.8,5.5c0.3,4.2-3,6-6.6,6.5c-1.4,0.2-4.7,1.9-4.2-2.2c0.3-0.3,0.6-0.7,1-1
		C340,203.8,340.1,200,341,196.6z"/>
	<path class="st165" d="M336.1,206.4c-0.4,0-0.7,0-1.1,0c-5-3.6-6-6.2-3.6-9.4c2.6-3.5,5.5-3.6,8.8-0.4
		C337.6,199.4,335.5,202.3,336.1,206.4z"/>
	<path class="st166" d="M336.1,206.4c-3-4.6-1.6-7.8,4.1-9.7c0.3,0,0.5,0,0.8,0C342.6,202.8,341.9,204.1,336.1,206.4z"/>
	<path class="st167" d="M327.9,482.7c0.1,14.8,0.2,29.6,0.2,44.4c0,5.8-4.6,10.6-10.4,10.7c-31.1,0.1-62.2,0.1-93.4,0
		c-4.5,0-7.7-2.5-9.2-7c1.9-2.7,2.1-5.9,2.1-9.1c0-9.6-0.1-19.3,0.1-28.9c0.1-2.2-0.8-5.5,3.2-5.7c1.1,1.4,1.4,3,1.4,4.6
		c0,10.5,0.4,21.1-0.2,31.6c1.2,5.7,1.9,6.5,7.4,6.6c27.9,0.1,55.9,0.1,83.8,0c3.7,0,6.6-0.9,7.2-5.1c1-12.8-0.6-25.7,0.4-38.6
		c0.1-1.5,0-3,0.9-4.3C323.9,480,326.1,480,327.9,482.7z"/>
	<path class="st168" d="M220,486.7c-1.5,4.7-0.6,9.5-0.7,14.3c-0.1,8,0,15.9-0.1,23.9c0,2.7-0.2,5.6-4,5.8c-1.6-2.2-1.4-4.7-1.4-7.2
		c0-13.8,0-27.6,0.2-41.4c0.1-6.1,4.8-10.4,11.5-10.4c25-0.1,49.9-0.1,74.9-0.1c5.7,0,11.3-0.1,17,0.1c5.9,0.2,10.2,4.8,10.6,11
		c-1.7-1.6-3.8-0.6-5.7-0.9c-7.9-4.2-16.4-3.1-24.8-3.1c-19.3,0-38.6,0.1-57.9-0.1C231.7,478.5,224.2,478.4,220,486.7z"/>
	<path class="st169" d="M326.8,579.7c0.1,9.1,0.2,18.3,0.2,27.4c0,6.4-3.4,10.6-9.7,10.9c-9.9,0.5-19.9,0.5-29.9,0.5
		c-20.8,0-41.6-0.6-62.4-0.1c-5.2,0.1-11.3,1.5-14.8-4.6c0.5-2.3,2.2-3.8,4.3-3.3c7.7,1.7,15.5,0.4,23.2,0.9c0.3,0,0.8,0.2,1,0
		c0.6-0.7,2.1,2,2-0.6c1.7-3.8,1.5-7.8,1.5-11.8c0-6.3-0.1-12.7,0.1-19c0-1.8,0.2-3.7,1.3-5.3c2.7-2,5.5-2.9,8.7-1.1
		c1.6,4.7,0.4,9.5,0.6,14.3c0.2,5.5,0,11,0.1,16.4c0.1,3.7,1.8,5.4,5.5,5.5c5.5,0.1,11,0,16.4,0c3.5,0,5.1-1.6,5.2-5.1
		c0.1-7.5,0-14.9,0.1-22.4c0-2.6-0.2-5.3,1.2-7.8c2.6-2.8,5.5-3,8.7-1.2c1.5,1.7,1,3.7,1,5.7c-0.3,7.8-0.4,15.6,0,23.4
		c0.3,6.7,1.3,7.4,7.8,7.5c4,0,8,0.1,12-0.1c6-0.4,7.2-1.6,7.4-7.6c0.1-5.7,0-11.3,0.1-17c0-2.3-0.2-4.7,0.9-6.8
		C322.2,576.3,324.4,578.2,326.8,579.7z"/>
	<path class="st170" d="M290.2,573.8c-2.7,0.1-5.4-0.5-7.9,0.9c-10-2.1-20.1-0.9-30.2-0.8c-2.6,0.2-5.2,0.5-7.8,0.7
		c-5-1.2-10.1-0.9-15.2-1.3c-6.8-0.6-12.3,1.3-16.1,7.1c-1.8,0.8-3.4,0.6-4.9-0.8c-1.6-6.1,2.3-12.4,8.3-13.1
		c3.8-0.4,7.6-0.7,11.4-0.7c28.8-0.1,57.5-0.1,86.3-0.1c7.9,0,13.1,5.7,12.6,13.8c-2.4,0.2-4.9,0.6-6.4-1.9c-7.6-6.4-16.6-4-25.3-4
		C293.5,573.8,291.9,574.6,290.2,573.8z"/>
	<path class="st171" d="M208.1,579.7c1.6,0,3.3-0.1,4.9-0.1c2.9,2.7,2.6,6.3,2.8,9.7c0.3,4.8-0.1,9.6,0.2,14.4
		c0.3,4.9,1.5,6,6.4,6.2c4.1,0.1,8.3,0,12.4,0.1c2.1,0.1,4.4-0.1,6,1.7c0.2,0,0.4,0.1,0.5,0.2c0.2,0.2,0.3,0.4,0.4,0.7
		c-1.4,0.1-2.9,0.4-4.3,0.3c-7.6-0.6-15.4,1.4-23-1.1c-1.8-0.6-2.9,1.3-4.3,2.1c-1.8-1.5-2.3-3.6-2.3-5.8
		C208,598.5,208.1,589.1,208.1,579.7z"/>
	<path class="st172" d="M444.2,492.6c6.4,20.3-9.4,43.5-30.4,46.4c-13.7,1.8-24.8-1.7-34.4-11.1c-1.9-1.9-3.8-3.8-4.5-6.5
		c-1-2.6-2.3-5.1-3.4-7.7c-0.4-1-0.5-2,0.5-2.7c1.1-0.7,1.8,0.2,2.4,1c1.7,2,3,4.3,4.1,6.7c0.8,1.7,1.8,2.6,3.8,1.7
		c2.3,0.3,3.7,2.2,5.3,3.5c16.8,13.3,39.4,7.7,48.1-11.9c0.6-1.4,1.1-2.8,2.4-3.7c2.2-0.6,2.4-2.4,2.3-4.3
		C440.4,499.7,442,496,444.2,492.6z"/>
	<path class="st173" d="M444.2,492.6c-0.1,5-3.2,9.5-2.4,14.8c0.2,1.4-1,3-2.9,1.2c-1.9-1.9-1.4-4.3-1.3-6.6
		c0.4-16.5-9.9-28.9-26.7-31.1c-13.3-1.7-27.9,6.4-32.5,22.2c-2.4,8.1-1.2,15.7,2.3,23.2c0.7,1.5,1.7,2.9,1.4,4.7
		c-0.9,2.2-2.1,3.1-3.6,0.5c-1.9-3.2-3.7-6.5-6.2-11c0.2,4.7,2.8,7.5,2.7,10.9c-2.4-2.8-3.9-5.9-4.7-9.5c-0.1-8.9-0.7-17.8,3.7-26.2
		c8.5-16.3,24.2-24.2,42-20.4c7.2,1.5,13.1,5.5,18.2,10.8c1.5,1.6,2.8,3.4,5.2,3.6C442.1,483.6,443.8,487.8,444.2,492.6z"/>
	<path class="st174" d="M439.3,479.7c-2.8,1.9-4.1-0.4-5.7-2c-13.7-13.9-30-16.3-46.2-5.5c-8.8,5.9-14.5,14.7-15.5,25.9
		c-0.4,4.6-1.1,9.1-1.6,13.7c-8-22.5,10.6-49.1,34.8-50.1C420.1,461.1,431.1,467.6,439.3,479.7z"/>
	<path class="st175" d="M437.2,579.7c4.4,5,3.6,10.3,0.9,15.6c-2.5,5-7,7.6-12.5,7.3c-6.4-0.4-11.1-3.8-13.3-10.1
		c0.9-4.4,3.8-3.1,6.6-2.4c1.9,0.8,2.7,3,4.7,3.6c2.4,0.6,4.7,0,6.6-1.5c2-1.6,1.4-3.9,0.9-6c-0.7-2.7-3.2-4.2-4.5-6.5
		c-0.3-2.7,1.6-2.7,3.5-2.8C432.8,576.9,435,578.4,437.2,579.7z"/>
	<path class="st176" d="M418.3,590.8c-1.9,1.1-4.8-1.3-6.1,1.7c-2-10.2,0.7-16.3,8.3-19.1c5.8-2.1,13.8-0.7,16.6,6.3
		c-2.6-0.4-5.3-0.9-7.9-1.4c-1.3-0.2-2.3-0.4-2.1,1.4c0.1,0.5,0.1,1.2-0.3,1.3C422,582.7,420.3,586.8,418.3,590.8z"/>
	<path class="st177" d="M354.5,593.8c-4-11.7,2.1-21.5,13.3-21c5.9,0.3,9.5,3.8,11.5,9.2c1,3.2-0.5,3.9-3.3,3.2
		c-0.8-0.2-1.5-0.8-2.1-1.3c-2.5-2-5.1-4.1-8.4-2.2c-3.8,2.1-4.8,5.6-4.3,9.7C360.2,596.1,356.9,593.6,354.5,593.8z"/>
	<path class="st178" d="M360.1,591.7c-1.5-4.7-0.1-8.5,4.3-11.3c3.7-2.4,6.7-0.8,9.7,1.6c1.4,1.1,3.4,6,5.1,0
		c1.2,2.8,1.9,5.7,1.1,8.8c-1.6-0.6-3.2-0.9-4.5,0.7c-1.1,1.2-2.5,2.2-3.8,3.2C366.5,598.5,363.2,597.7,360.1,591.7z"/>
	<path class="st179" d="M360.1,591.7c6.7,5.7,8.3,5.7,15.2-1.8c2.8-3,3.9-2.6,5,0.9c-1.3,6.9-5.1,10.6-11.8,11.5
		c-6.1,0.8-11.1-2.2-14.1-8.6c0.6-1.6,1.6-2.2,3.3-1.3C358.7,593,359.9,593.5,360.1,591.7z"/>
	<path class="st180" d="M454.1,550.7c3.3,0.9,5.3,3,5.2,6.4c-0.1,3.1-1.9,5-5.2,4.7c-3.2-0.3-5.3-2.2-4.9-5.6
		C449.4,553.4,450.8,551.1,454.1,550.7z"/>
	<path class="st181" d="M305,266c-4.8,18.2-15.6,31-34.1,36.1c-26.6,7.3-54.4-9.5-60.4-36.1c1.4-3,0.9-6.2,1-9.3
		c0.9-24.3,17.1-40.8,36.2-45.4c21.4-5.2,44.9,8.6,53.2,30.6c2.4,6.3,4.4,12.6,2.8,19.5C303.3,263.2,304,264.6,305,266z"/>
	<path class="st182" d="M305,266c-4.2,0.9-2.9-2.4-2.7-4.1c1.6-16.1-5.1-28.9-16.8-39c-18.6-16.1-45.1-15.1-62.2,5.8
		c-7.4,9-10.3,19.6-10,31.1c0.1,2.6,0,5-2.8,6.2c-5.9-18.8,3-41.3,19.8-52.2c28.8-18.6,66.2-3,74.3,29.6
		C306.4,250.8,307,258.4,305,266z"/>
	<path class="st183" d="M460,269.7c-7.3,21.4-25.5,34.5-47.4,34.2c-20-0.3-38.5-14.3-44.3-33.3c0-6.3-0.4-12.7,0.4-19
		c1.8-15.2,10-26.3,22.7-34.7c21.1-13.9,46.7-3.8,59.2,13.2c8.3,11.2,11.4,23.5,9.3,37.2C459.8,268.1,459.5,268.9,460,269.7z"/>
	<path class="st184" d="M460,269.7c-1.9-3.2-0.8-6.8-0.9-10.1c-0.5-18.1-8.6-32-23.9-41.2c-25.5-15.5-51-0.6-60.7,19.4
		c-3.5,7.1-4.9,14.4-4.5,22.1c0.2,3.6,0.1,7.3-1.7,10.6c-8-18.7,0.5-46.2,20.4-58c28.7-16.9,66.4-0.8,73.1,34.5
		C463.2,254.6,462.2,262.3,460,269.7z"/>
	<path class="st185" d="M210.2,326.8c4.1-0.1,7.6,3,7.6,6.8c0,3.3-4.1,7.6-7.3,7.6c-3.2,0-6.9-3.9-7-7.2
		C203.6,330.1,206.6,326.9,210.2,326.8z"/>
	<path class="st186" d="M454.3,338.8c-2.9-2.1-2.9-5-1.7-7.9c1.1-2.5,3.1-4.2,6.1-4.1c3.4,0.1,5.6,1.6,6.4,4.9
		c0.3,0.6,0.5,1.7,0.1,1.8C461,334,458.6,338.3,454.3,338.8z"/>
	<path class="st187" d="M454.3,338.8c3.1-3.1,6.5-6,10.9-7.1c2.2,3.8,0,6.2-2.8,8.2C459.4,342.1,456.7,341.7,454.3,338.8z"/>
	<path class="st188" d="M220,486.7c0.7-7,3.3-9.7,10.6-9.7c20.8-0.2,41.6-0.1,62.5-0.1c6.5,0,13,0.2,19.5,0c4.2-0.1,7.4,1.4,9.7,4.9
		c-0.1,14.4,0.6,28.8-0.2,43.1c-1.8,1-3.8,0.9-5.8,0.9c-29.1,0-58.2,0-87.3,0c-2.9,0-6,0.5-8.6-1.7
		C220.2,511.6,220.1,499.2,220,486.7z"/>
	<path class="st189" d="M220.4,524.1c32.8,0,65.6-0.1,98.4-0.1c1.2,0,2.3,0.2,3.3,0.9c0.4,4.9-2.1,7-6.8,6.9
		c-29.4,0-58.9,0-88.3-0.1C222,531.7,220.5,529.8,220.4,524.1z"/>
	<path class="st190" d="M252.1,573.9c2.2-1.6,4.6-2.2,7.4-2.1c5.5,0.2,10.9,0.1,16.4,0c2.6,0,4.9,0.5,6.4,2.9
		c-0.1,9.5-0.2,19-0.3,28.4c0,8.4,0,8.5-8.7,8.5c-5.5,0-11,0-16.5,0c-2.9,0-5.4-1.1-5.5-4.5c-0.1-10.5-0.1-21,0-31.4
		C251.4,575.1,251.9,574.5,252.1,573.9z"/>
	<path class="st191" d="M290.2,573.8c2.3-1.9,5-2.1,7.9-2.1c4.3,0.1,8.6,0.3,12.8-0.1c4.9-0.4,7.8,1.7,9.5,6
		c-0.1,9.1-0.4,18.3-0.2,27.4c0.1,4.3-2.1,6.2-5.9,6.3c-6.8,0.2-13.6,0.2-20.4,0.2c-2.4,0-3.8-1.1-3.9-3.5
		C289.3,596.7,288.5,585.2,290.2,573.8z"/>
	<path class="st192" d="M241,611.7c-6.5,0-13-0.3-19.4,0.1c-6.3,0.4-7.1-2.6-7.4-7.3c-0.5-7.6-0.5-15.3-0.8-22.9
		c0-0.7-0.2-1.3-0.3-2c1.2-4.9,4.1-7.7,9.4-7.7c4.8,0,9.6,0.1,14.4-0.2c3-0.1,5.5,0.5,7.5,2.9c-0.1,10.3-0.1,20.6-0.2,30.9
		C244.1,608.1,244.1,610.7,241,611.7z"/>
	<path class="st193" d="M382.1,520.9c-15-19.2-3.1-48.6,22.4-51.9c17.6-2.3,35.4,13.2,34.7,31c-0.1,2.8-0.1,5.6-0.2,8.5
		c-5.6,18.1-21.2,25-34.1,24.3C395.4,532.3,388.6,527,382.1,520.9z"/>
	<path class="st194" d="M418.3,590.8c-0.1-7.2,0.8-8.2,8.8-11c5.1,1.8,6,5.8,6.1,10.6c0,3.6-2.7,3.5-4.9,4.5
		C423.5,597,420.5,594.9,418.3,590.8z"/>
	<path class="st195" d="M222,265.9c-1.4-8.9-2.1-17.8,1.9-26.4C230.7,225,244,217,260,217.9c14.2,0.8,28.2,12.5,33.2,26.6
		c2.5,7.2,1.1,14.1,0.7,21.2c0.8,3.9-1.1,7-2.8,10.2c-12.2,19-40.8,23.7-58.2,9.1c-4.7-3.9-7.9-8.9-10.6-14.2
		C221.6,269.2,221.3,267.6,222,265.9z"/>
	<path class="st196" d="M222,265.9c7.4,18.5,21.9,28.3,39.9,26c11.8-1.5,21.5-7.2,28.4-17.2c3.3,1.6,1.5,3.9,0.8,6
		c-16,21.4-42.3,22.8-62,6.1c-4-3.4-6.5-8.3-8.8-13.2C218.9,270.6,219,268,222,265.9z"/>
	<path class="st197" d="M291,280.8c-0.2-2,0.8-4.2-0.8-6c1.2-3,2.4-6.1,3.6-9.1C297.4,270.7,296.8,274,291,280.8z"/>
	<path class="st198" d="M377,255c1.4-22.9,18.3-37.4,37.4-36.9c15,0.4,26.3,8.2,33,22c0.9,1.9,1.7,3.9,2.5,5.9
		c3.7,10,2.8,19.5-2.5,28.7c-15.4,23.8-49.3,27.8-66.8-0.4C377.4,268.3,375.8,261.9,377,255z"/>
	<path class="st199" d="M381.9,273.9c15.7,24.1,45.3,25,63.2,1.9c0.3-0.4,0.7-0.7,1-1c2.1,0,3.1,0.8,1.8,2.9
		c-8.7,17.8-34.2,25.7-51.8,16.4c-6.1-3.3-11.2-7.5-15.1-13.3C381.1,278.5,377.3,275.7,381.9,273.9z"/>
	<path class="st200" d="M448,277.8c0.2-1.5-0.5-2.4-1.8-2.9c0.5-4,3.3-7.1,4-11.1c1-6,0.9-11.8-0.2-17.7c3.1,3.2,3.2,7.8,3.5,11.5
		C454,264.5,453.3,272,448,277.8z"/>
	<path class="st201" d="M381.9,273.9c-2.6,2,0.3,4.7-0.9,6.9c-7.2-7.7-5.6-16.8-4.1-25.8C376.5,261.9,379.4,267.9,381.9,273.9z"/>
	<path class="st202" d="M289.2,512.9c-1-0.6-2.1-1-2.9-1.8c-3.6-3.5-7-5.5-10.6,0c-0.5,0.8-2.4,0.7-3.7,1c-1.4,1.3-3.1,1.5-4.9,0.8
		c-2-0.8-4.5-1.1-5.9-2.5c-4.2-4.1-7.2-2.1-10.3,1.3c-2.3,2.1-4.6,2.1-7,0.2c-5.6-0.2-10.6-3.6-11.8-8.1c-1.9-6.9,0.3-13,6.1-17.1
		c4.3-3,11.4-3.1,15.3,0.5c3.1,2.9,4.9,2.8,8.1,0c5-4.4,11.6-3.7,16.6,0.9c1.4,1.3,2.4,3.5,4.7,0.9c4.4-4.9,10.1-5.4,15.5-2.8
		c5.3,2.5,7.8,7.5,7.6,13.5c0,0.3,0.1,0.7,0.1,1c1,4.9-2.9,10.3-8.9,12C294.8,513.6,292,514.1,289.2,512.9z"/>
	<path class="st203" d="M289.2,512.9c1.1-0.8,2.3-1.1,3.6-1.1c7.4-0.3,11.3-3.6,13.4-10.9c0.6-0.1,1.1-1.9,1.7-0.6
		c1.7,3.6-0.7,9.1-5.2,12.5c-3.8,2.9-10.9,4-13.5,2C289,514.4,289.3,513.5,289.2,512.9z"/>
	<path class="st204" d="M244.1,511.9c2.3-0.1,4.6-0.1,7-0.2c1.6,0.3,2.1,1,0.5,2c-3.9,2.4-7.9,2.8-11.9-0.2
		C241,512.3,243,513.3,244.1,511.9z"/>
	<path class="st205" d="M267.2,513c1.4-1.4,3.1-1.5,4.8-0.8c0.7,0.5,1.5,1,2.6,1.8C271.8,514.5,269.2,516.7,267.2,513z"/>
	<path class="st206" d="M266.4,591.6c-2.5,0-5,0-7.4,0c-1.1,0-2-0.3-2.1-1.5c-0.2-1.4,0.8-1.6,1.8-1.6c5.1-0.1,10.3-0.2,15.4-0.4
		c1.2,0,2.4,0.1,2.3,1.8c-0.1,1.6-1.3,1.7-2.5,1.7C271.4,591.5,268.9,591.5,266.4,591.6C266.4,591.5,266.4,591.6,266.4,591.6z"/>
	<path class="st207" d="M303.7,591.8c-2.5,0-5,0-7.5,0c-1.3,0-2.3-0.3-2.2-1.9c0.1-1.3,0.8-1.6,2-1.6c5-0.1,10-0.3,14.9-0.4
		c1.2,0,2.4,0.1,2.4,1.7c0.1,1.5-0.8,2-2.2,2c-2.5,0-5,0-7.5,0C303.7,591.6,303.7,591.7,303.7,591.8z"/>
	<path class="st208" d="M228.3,591.6c-2.3,0-4.7,0-7,0c-1,0-2-0.2-2.1-1.5c-0.1-1.6,0.9-2,2.2-2c5-0.1,10-0.1,15-0.2
		c1.1,0,1.9,0.4,2,1.7c0.1,1.4-0.5,2.2-2,2.2C233.6,591.7,231,591.7,228.3,591.6C228.3,591.6,228.3,591.6,228.3,591.6z"/>
	<path class="st209" d="M386.4,505.1c-1.4-12.7,3.5-21.2,14.1-24.4c14.3-4.3,26.8,4.3,27.7,19.1c-1.3,3.2-3.4,1.1-5.2,0.8
		c-1.8-1.2-2.2-3.2-3.2-5c-3-5.6-7.8-8-14.1-7c-5.5,0.8-9.6,5-10.8,11c-0.4,2.2,0.1,4.8-1.9,6.5C390.7,506.9,388.5,506,386.4,505.1z
		"/>
	<path class="st210" d="M423,499.8c1.8-0.3,3.5,1,5.3,0c1.1,11-7,20.8-18.8,22.8c-9.9,1.7-20.5-6.4-23-17.5c2.2-1.9,4-0.5,5.8,0.6
		c2.1,0.3,3.5,1.6,4.9,3.1c3.6,3.7,7.8,6.8,13.2,4.9c5.1-1.8,10.1-4.5,10.5-11.2C420.9,501.3,421.1,499.8,423,499.8z"/>
	<path class="st211" d="M245.1,253.9c-7.7,0-13.2-5.8-13.1-13.8c0.1-7.2,6.1-13.1,13.4-13.1c7,0,14,7.2,13.3,14.6
		C258.1,248.1,252.6,254.6,245.1,253.9z"/>
	<path class="st212" d="M274.9,266.8c3.3,0.7,6.1,2,5.9,5.6c-0.2,3.2-2.1,5.6-5.7,5.5c-3.3-0.1-5.2-2.4-5.2-5.4
		C269.8,269.4,272,267.6,274.9,266.8z"/>
	<path class="st213" d="M415.1,240.6c-0.3,8.5-5.9,13.7-14.4,13.3c-6.9-0.3-12.7-6.5-12.2-13.1c0.5-7.5,7.7-14.2,14.9-13.9
		C409.8,227.1,415.4,233.6,415.1,240.6z"/>
	<path class="st214" d="M431.1,266.9c4.1,0.1,5.8,2.5,5.6,5.5c-0.1,2.7-1.4,5.6-5.2,5.5c-3.4-0.1-5.2-2.4-5.2-5.5
		C426.3,269.1,428.2,267.2,431.1,266.9z"/>
	<path class="st215" d="M268.8,505.4c-3.7,0-6.7-3.2-6.7-7.1c0-3.3,3.3-6.4,6.8-6.6c4.1-0.2,7.7,3,7.7,6.8
		C276.6,502.1,273,505.3,268.8,505.4z"/>
	<path class="st216" d="M238.7,497.5c0.2-3.1,2.1-5.4,6-5.7c3.9-0.3,7.6,2.6,7.8,6.1c0.2,3.4-3.8,7.4-7.4,7.4
		C241.8,505.3,238.8,502.1,238.7,497.5z"/>
	<path class="st217" d="M292,504.9c-3.5-0.1-6.3-3.6-6-7.7c0.3-4.1,3.4-5.3,6.6-5.3c4-0.1,5.8,2.8,6,6.6
		C298.8,502.4,296,505,292,504.9z"/>
	<path class="st218" d="M423,499.8c-0.8,5.4-2.2,9.9-7.5,13.4c-7.4,5-14.3,2-19.4-3c-1.4-1.4-2.6-2.9-3.9-4.4c1-1.3,0.7-2.9,0.8-4.3
		c0.4-7.7,6.1-14.1,13-14.7c8.4-0.8,14.2,3.3,16.4,11.7C422.5,498.9,422.8,499.3,423,499.8z"/>
</g>
</svg>
