<?xml version="1.0" encoding="utf-8"?>
<!-- Generator: Adobe Illustrator 28.3.0, SVG Export Plug-In . SVG Version: 6.00 Build 0)  -->
<svg version="1.1" id="Layer_1" xmlns="http://www.w3.org/2000/svg" xmlns:xlink="http://www.w3.org/1999/xlink" x="0px" y="0px"
	 viewBox="0 0 500 500" style="enable-background:new 0 0 500 500;" xml:space="preserve">
<g>
	<path d="M61,500.1c-3.3-45.9,3.2-89.4,27.9-128.9c23-36.7,54.6-63,95.1-78.5c1.4-0.5,3.4-0.4,4.7,0.2c42.7,19,85.4,19.1,128.1,0
		c2.2-1,3.9-0.9,6,0c67.6,28.2,107.7,78.4,120.4,150.4c3.3,18.7,2,37.6,2.1,56.7C317,500.1,188.9,500.1,61,500.1z"/>
	<path d="M377.4,154.8c0.2,68.5-55.4,124.5-124,124.7c-68.9,0.2-125-55.4-125-124.3c-0.1-68.6,55.5-124.5,124-124.6
		C321.4,30.4,377.2,85.8,377.4,154.8z"/>
</g>
</svg>
