<?xml version="1.0" encoding="UTF-8"?>
<svg id="Layer_1" data-name="Layer 1" xmlns="http://www.w3.org/2000/svg" version="1.1" viewBox="0 0 676 676">
  <defs>
    <style>
      .cls-1 {
        fill: #efefef;
        stroke-width: 0px;
      }
    </style>
  </defs>
  <path class="cls-1" d="M303.7,11.4c23,0,46,0,69,0,3.4,1,6.8,2.6,10.3,3.1,135.9,19.5,241.7,114.6,274.6,247.1,3.6,14.5,6.2,29.3,9.3,44v65.4c-1.2,4.6-2.7,9.1-3.4,13.7-25.9,177.1-187.1,300-364.4,277.5C143.2,642.5,22.8,514.5,13.7,359,4.4,200.9,107,60.2,260.1,21.5c14.5-3.7,29.1-6.7,43.7-10.1ZM623.3,338.4c0-156.1-126.6-283.2-282.6-283.4-156.4-.2-283.6,126.2-283.9,282-.3,157.2,126.5,284.5,283.4,284.5,155.8,0,283.1-127.4,283.2-283.1Z"/>
  <path class="cls-1" d="M400.7,528.2c-32.1,39.3-64.7,66.2-114.4,60.3-35-4.2-48.1-23.3-39-57.3,17.6-66.2,35.4-132.4,53.1-198.6,1.4-5.2,3.9-10.5,3.8-15.7-.3-16.3,3.9-36.7-4.3-47.3-5.6-7.2-29-.6-44.5,0-2.1,0-4.2,1.1-6.6,1.8,18.6-40.5,75.1-67.9,117-57.3,28.8,7.3,39.1,24.4,31.4,53.2-18.6,70-37.5,139.8-56.2,209.8-1.4,5.2-2.6,10.5-3.7,15.8-8.8,40.5,5.7,53.3,45.8,40.6,4.3-1.3,8.6-2.5,17.7-5.2Z"/>
  <path class="cls-1" d="M350.4,128.1c1.4-24.3,21.7-42.2,46.5-41,24.6,1.2,42.1,21.4,40.5,46.4-1.5,23.4-21.1,41-44.7,40.2-24-.9-43.7-22-42.3-45.6Z"/>
</svg>