<?xml version="1.0" encoding="UTF-8"?>
<svg id="Layer_1" data-name="Layer 1" xmlns="http://www.w3.org/2000/svg" xmlns:svg="http://www.w3.org/2000/svg" xmlns:sodipodi="http://sodipodi.sourceforge.net/DTD/sodipodi-0.dtd" xmlns:inkscape="http://www.inkscape.org/namespaces/inkscape" version="1.1" viewBox="0 0 646 510">
  <defs>
    <style>
      .cls-1 {
        fill: #fff;
        stroke-width: 0px;
      }
    </style>
  </defs>
  <sodipodi:namedview id="namedview226" bordercolor="#000000" borderopacity="0.25" inkscape:current-layer="Layer_1" inkscape:cx="336.47059" inkscape:cy="446.58824" inkscape:deskcolor="#d1d1d1" inkscape:pagecheckerboard="0" inkscape:pageopacity="0.0" inkscape:showpageshadow="2" inkscape:window-height="975" inkscape:window-maximized="0" inkscape:window-width="1920" inkscape:window-x="0" inkscape:window-y="25" inkscape:zoom="0.65384615" pagecolor="#ffffff"/>
  <path id="path226" class="cls-1" d="M27.7,497.4c-2.1-4.9,96.2-198.7,106.1-209.1,2.2-2.3,67.3-12.7,144.7-23,77.4-10.4,141.6-19.7,142.5-20.7,1-1,.9-2.6,0-3.6-1-1-63-6.3-137.8-11.9-74.8-5.6-140-11.6-144.9-13.3-5.6-2-30.4-39.3-66.2-99.4C40.6,63.3,14.1,17.5,13.2,14.5c-.9-3.1,1-6.6,4.2-7.9,9.7-3.9,620.2,222.6,620.4,230.1.1,4.6-89.4,45.2-300.4,136.2C172.1,444.3,35.3,502.8,33.4,502.8c-1.9,0-4.5-2.4-5.7-5.4h0Z"/>
</svg>