<?xml version="1.0" encoding="UTF-8"?>
<svg id="Layer_1" data-name="Layer 1" xmlns="http://www.w3.org/2000/svg" version="1.1" viewBox="0 0 176.12 99.18">
  <defs>
    <style>
      .cls-1 {
        fill: #ddd;
        stroke-width: 0px;
      }
    </style>
  </defs>
  <path class="cls-1" d="M9.57,6.8c.21,0,2.77,2.55,7.66,7.66v26.06c0,.21-2.55,2.77-7.66,7.66-.21,0-1.06-.85-2.55-2.55V9.35c0-.21.85-1.06,2.55-2.55ZM9.57,50.74c.21,0,2.77,2.55,7.66,7.66v26.06c0,.21-2.55,2.77-7.66,7.66-.21,0-1.06-.85-2.55-2.55v-36.27c0-.21.85-1.06,2.55-2.55ZM19.53,84.97h26.06c.21,0,2.77,2.55,7.66,7.66,0,.21-.85,1.06-2.55,2.55H14.42c-.21,0-1.06-.85-2.55-2.55,0-.21,2.55-2.77,7.66-7.66ZM14.68,3.99h36.27c.21,0,1.06.85,2.55,2.55,0,.21-2.55,2.77-7.66,7.66h-26.06c-.21,0-2.77-2.55-7.66-7.66,0-.21.85-1.06,2.55-2.55ZM17.23,44.1h30.14c.21,0,1.92,1.7,5.11,5.11v.26c0,.21-1.7,1.92-5.11,5.11h-30.14c-.21,0-1.92-1.7-5.11-5.11v-.26c0-.21,1.7-1.92,5.11-5.11Z"/>
  <path class="cls-1" d="M64.81,4.24h.26c.26,0,3.58,3.41,9.96,10.22v26.06c0,.21-2.55,2.77-7.66,7.66-.21,0-1.06-.85-2.55-2.55V4.24ZM67.37,50.74c.21,0,2.77,2.55,7.66,7.66v26.06c0,.21-2.55,2.77-7.66,7.66-.21,0-1.06-.85-2.55-2.55v-36.27c0-.21.85-1.06,2.55-2.55ZM77.33,84.97h26.06c.21,0,2.77,2.55,7.66,7.66,0,.21-.85,1.06-2.55,2.55h-36.27c-.21,0-1.06-.85-2.55-2.55,0-.21,2.55-2.77,7.66-7.66Z"/>
  <path class="cls-1" d="M125.16,6.8c.21,0,2.77,2.55,7.66,7.66v26.06c0,.21-2.55,2.77-7.66,7.66-.21,0-1.06-.85-2.55-2.55V9.35c0-.21.85-1.06,2.55-2.55ZM125.16,50.74c.21,0,2.77,2.55,7.66,7.66v26.06c0,.21-2.55,2.77-7.66,7.66-.21,0-1.06-.85-2.55-2.55v-36.27c0-.21.85-1.06,2.55-2.55ZM135.13,84.97h26.06c.21,0,2.77,2.55,7.66,7.66,0,.21-.85,1.06-2.55,2.55h-36.27c-.21,0-1.06-.85-2.55-2.55,0-.21,2.55-2.77,7.66-7.66ZM130.27,3.99h36.27c.21,0,1.06.85,2.55,2.55,0,.21-2.55,2.77-7.66,7.66h-26.06c-.21,0-2.77-2.55-7.66-7.66,0-.21.85-1.06,2.55-2.55ZM132.83,44.1h30.14c.21,0,1.92,1.7,5.11,5.11v.26c0,.21-1.7,1.92-5.11,5.11h-30.14c-.21,0-1.92-1.7-5.11-5.11v-.26c0-.21,1.7-1.92,5.11-5.11Z"/>
</svg>