<?xml version="1.0" encoding="UTF-8"?>
<svg id="Layer_1" data-name="Layer 1" xmlns="http://www.w3.org/2000/svg" version="1.1" viewBox="0 0 229.8 56.4">
  <defs>
    <style>
      .cls-1 {
        fill: #c9c9c9;
      }

      .cls-1, .cls-2 {
        stroke-width: 0px;
      }

      .cls-2 {
        fill: #f4f4f4;
      }
    </style>
  </defs>
  <path class="cls-2" d="M15.1,9.5v11h22.2v5.6h-16.6v22.2h16.6v5.6H6.8l-2.8-2.8V6.8l2.8-2.8h30.5v5.6H15.1Z"/>
  <path class="cls-2" d="M78.7,48.4v5.6h-30.5l-2.8-2.8V6.8l2.8-2.8h5.5l2.8,2.8v11.2l5.5,5.5v25h16.7Z"/>
  <path class="cls-2" d="M97.8,9.5v11h22.2v5.6h-16.6v22.2h16.6v5.6h-30.5l-2.8-2.8V6.8l2.8-2.8h30.5v5.6h-22.2Z"/>
  <path class="cls-1" d="M161.3,51.1l-2.8,2.8h-27.7l-2.8-2.8V6.8l2.8-2.8h5.4l2.8,2.8v8.2h19.4l2.8,2.8v33.3ZM155.8,20.5h-16.7v8.4l5.5,5.5v13.9h11.2v-27.8Z"/>
  <path class="cls-1" d="M169.4,54l-2.8-2.8V17.8l2.8-2.8h27.7l2.8,2.8v33.3l-2.8,2.8h-27.7ZM194.4,20.5h-16.6v8.4l5.4,5.4v14h11.2v-27.8Z"/>
  <path class="cls-1" d="M212.8,54l-2.9-2.8v-30.6h-5.7v-5.6h5.7V3.9h5.5v11h11.2v5.6h-5.6v8.4l5.6,5.6v16.6l-2.9,2.8h-11Z"/>
</svg>